<?xml version="1.0" encoding="utf-8"?>
<!-- Generator: Adobe Illustrator 25.2.1, SVG Export Plug-In . SVG Version: 6.00 Build 0)  -->
<svg version="1.1" id="Layer_1" xmlns="http://www.w3.org/2000/svg" xmlns:xlink="http://www.w3.org/1999/xlink" x="0px" y="0px"
	 viewBox="0 0 40 40" style="enable-background:new 0 0 40 40;" xml:space="preserve">
<path d="M5.1,36.6c0.5-0.4,1.1-0.8,1.6-1.1c4.4-2.4,8.4-2.9,12.2-2.6c3.8,0.2,5.2,1.3,9,1.7s4.6,0.2,6.3-0.2
	c1.7-0.5,1.9-0.7,3.1-1.5c-0.3,0.4-0.9,1-1.7,1.4c-1.3,0.6-2.8,1.1-5,1.3c-2.2,0.2-4.2-0.2-6-0.6s-5-1-8.2-1.1c-3.4,0-5.9,0.1-9,1.6
	C7,35.8,6,36.2,5.1,36.6z"/>
<g>
	<path d="M24.5,4.3c-0.3-0.8-1-2.2-1-2.2S22.4,3.5,22,3.8c-0.8,0.7-1.4,1.6-2.1,2.4c-1.4,1.6-2.6,3.3-4,5.3c0.1-0.6,0.4-1.7,0.3-2.3
		c-3.2,4.5-6.1,9.5-8.4,14.6c-0.3-0.2-0.3-1.5-0.3-1.5s-0.6,1.7-0.7,2.1c-0.3,1.8-0.7,3.6-0.9,5.3c-0.2,1.8,0.1,2.9-0.7,4.5
		c-0.2,0.5-1,1.7-1.1,2.3c1.2-1.9,2.3-3.8,3.5-5.7l4.3-6.8c2.9-4.5,5.7-9.1,8.8-13.5c-2.5,4.8-5.3,9.4-8.1,13.9
		c-2.6,4.1-8.2,12.1-8.2,12.1s0.9-0.9,1.2-1.1c1.6-1.8,2.2-2.8,4.2-3.5c1.2-0.4,2.1-1.1,2.9-2c0.2-0.3,1.3-1.7,1.3-1.7
		s-1.1,0.6-1.7,0.5c1.8-1.3,3.5-2.5,5.1-3.8c0.4-0.3,1.6-1.6,1.6-1.6s-1.5,0.7-2,0.5c0.2-0.3,0.3-0.5,0.5-0.8
		c1.1-1.4,2.1-2.8,3.2-4.2c0.7-1,1.4-2,2.1-3.1c0.1-0.2,0.7-1,0.7-1S22.7,15,22.3,15c0.9-1.4,1.6-2.8,2.2-4.2
		C25.3,8.6,25.4,6.5,24.5,4.3z"/>
</g>
</svg>
