<?xml version="1.0" encoding="utf-8"?>
<!-- Generator: Adobe Illustrator 25.0.0, SVG Export Plug-In . SVG Version: 6.00 Build 0)  -->
<svg version="1.1" id="Layer_1" xmlns="http://www.w3.org/2000/svg" xmlns:xlink="http://www.w3.org/1999/xlink" x="0px" y="0px"
	 viewBox="0 0 300 240" style="enable-background:new 0 0 300 240;" xml:space="preserve">
<g id="_x32_zpW75.tif">
	<g>
		<path d="M155.8,58.2c-4.5,5-7.9,10.5-10.3,16.6c2.2-3.5,4.6-6.9,6.5-10.5c3.6-6.9,10.1-9.5,16.8-11.9c0.6-0.2,1.3-0.3,1.7-0.9
			c4.3-6.5,10.9-9,18-11c18.8-5.2,37.7-9.2,57.1-11.5c6.3-0.7,12,0.3,17.5,3.2c0.4,0.2,1.1,0.2,1,0.9c-0.1,0.5-0.6,0.5-0.9,0.7
			c-2,0.7-3.5,2.1-5.1,3.5c-0.4,0.3-0.8,0.7-0.7,1.2c0.1,0.6,0.8,0.5,1.2,0.5c0.6,0.1,1.5-0.4,1.7,0.5c0.2,0.8-0.6,1.3-1.2,1.8
			c-5.4,5-11.1,9.4-17.6,13c-6.2,3.4-12.4,6.8-18.6,10.1c-4.9,2.7-10.5,4.1-15.8,6.1c-4.1,1.5-8.2,3-12.3,4.7
			c10.7-1.1,21-3.3,30-9.8c0.5,1.3-0.2,2-0.6,2.7c-4.9,8.9-11.4,16.3-20.2,21.6c-2.2,1.3-4.3,2.6-6.8,3.1c-6,1.3-10.9,5.2-16.8,6.9
			c-0.4,0.1-0.7,0.4-1,0.7c-7.7,8.9-16.9,16-26.3,22.9c-4.3,3.2-8.3,6.6-12,10.5c-11,11.5-24.4,18.1-40.4,19.2
			c-4.7,0.3-9.5,0.5-14.1,1.8c-0.4,0.1-0.8,0-1.1,0c-0.3-0.9,0.3-1.2,0.6-1.6c11.7-13.7,24.8-26,38.4-37.7c4.7-4.1,9.5-8,14.2-12.1
			c1.7-1.5,3.6-2.1,5.9-2.1c7.6,0,15.1,0.1,22.7,0.5c3.2,0.2,6.3-0.3,9.7-1.5c-8.8,0.8-17.2,0.2-25.5,0.3c-1.8,0-3.7-0.1-5.5,0.3
			c-0.7,0.1-1.7,0.5-2-0.4c-0.3-0.9,0.7-1.2,1.2-1.6c5.8-4.5,11.7-9,17.6-13.6c8.3-6.5,16.9-12.4,25.4-18.5c0.4-0.3,1-0.5,1.3-1.6
			c-1.1,0.7-1.9,1.2-2.7,1.7c-21.4,14.1-41.8,29.6-61.6,45.9c-16.5,13.6-32.3,28.1-46.2,44.4c-10.1,11.8-20,24-27.4,37.9
			c-1.8,3.3-3.4,6.7-4.4,10.3c-0.5,1.8-1.5,2.9-3.1,3.6c-1.8,0.8-3.6,1.7-5.4,2.6c-0.6,0.3-1.4,1.1-2,0.5c-0.7-0.7-0.1-1.6,0.2-2.3
			c1.4-3.5,3.2-6.8,5-10c4.9-8.5,10.6-16.5,16.6-24.3c3.3-4.3,3.8-8.7,2.2-13.6c-1-3-2.1-5.9-1.3-9.2c0.3,4.6,3.9,8,4.7,13.1
			c0.3-2.9,0.5-5.1,0.8-8.1c1.1,2.7,0.8,4.9,0.8,7c0.8-4.7,0.6-9.4,0.3-14.1c-0.7-11.2-0.8-22.4,3.1-33.3c1.5-4.1,3.5-7.9,6.1-11.4
			c0.4-0.6,0.8-1.3,2.2-1.4c-4.2,10.6-1.4,21.2-0.5,31.8c0.9-6,1.6-12,2.8-17.9c1.1-5.4,2.5-10.7,5.1-15.6c1.6-3,3.7-5.7,6.3-7.9
			c0.8-0.7,1.9-1,2.8-0.4c0.9,0.6,0.3,1.5,0.1,2.3c-2.9,9.4-4.7,19-4.1,29c0.1,1.9,0.5,3.8,1.2,5.6c-0.8-7.1-0.2-14,1.1-21
			c2.2-11.9,8-21.4,17.8-28.7c13.2-9.9,27.8-17.3,43.1-23.2C154.1,58,154.1,58,155.8,58.2z M72.8,152.2c0.3-6.3,0.3-12.5-0.1-18.8
			c-0.4-6.3-0.5-12.5,0-18.8C69.6,127.1,73.2,139.7,72.8,152.2z M82.7,136.8c1.8-10.2,1.5-20.7,4-30.8
			C83.1,116,83.6,126.5,82.7,136.8z M91.2,100c-3.2,4.7-5.5,23.2-4,28.4C87.2,118.7,88.4,109.3,91.2,100z"/>
		<path d="M72.2,172.8c-1.4-0.1-0.9-1-0.3-1.8c2.4-3.2,5-6.2,7.2-9.5c3-4.4,6.5-6.8,12.3-6.6c5.2,0.2,10.6,0.1,15.9-1.1
			c3.8-0.8,7.5-2,11.1-3.5c0.6-0.2,1.2-0.9,1.8-0.4c0.6,0.6,0,1.2-0.4,1.8c-5.1,8-11.5,14.3-21,16.8c-6.9,1.8-13.9,2.4-20.9,3.4
			C76.1,172.2,74.3,172.5,72.2,172.8z"/>
		<path d="M82.4,178.9c0,0.8-0.4,0.6-0.7,0.6c-4-1.2-8.1-1.1-12.3-1.1c-0.7,0-1.9,0.5-2-0.7c-0.1-1.2,1-1.6,2.1-1.6
			C74,176.1,78.2,177.5,82.4,178.9z"/>
	</g>
</g>
</svg>
