<?xml version="1.0" encoding="utf-8"?>
<!-- Generator: Adobe Illustrator 25.0.0, SVG Export Plug-In . SVG Version: 6.00 Build 0)  -->
<svg version="1.1" id="Layer_1" xmlns="http://www.w3.org/2000/svg" xmlns:xlink="http://www.w3.org/1999/xlink" x="0px" y="0px"
	 viewBox="0 0 60 60" style="enable-background:new 0 0 60 60;" xml:space="preserve">
<style type="text/css">
	.st0{fill:#C2C1AC;}
	.st1{fill:#2F5024;}
</style>
<path class="st0" d="M69.6-10.1c-11.9-11.9-32.7-10.6-46.3,3c-13.6,13.6-15,34.4-3,46.3c11.9,11.9,32.7,10.6,46.3-3
	C80.2,22.6,81.6,1.8,69.6-10.1z"/>
<g>
	<g>
		<g>
			<g>
				<path class="st1" d="M69.4-14.6c0-0.1-0.1-0.2-0.1-0.3c-0.2-0.2-0.7-0.3-1.4-0.3c-0.5,0-1.1-0.1-1.8-0.2c-0.1,0-0.2,0-0.2-0.1
					c-0.1,0-0.3-0.1-0.3-0.1c-0.1,0-0.2-0.1-0.2-0.1c-0.3-0.1-0.6-0.3-0.9-0.4c-0.4-0.2-0.9-0.6-1.6-1.3c-1.6-1.6-3-4-4.4-7.2
					l-0.2-0.6l0,0.6c0,0.3,0,0.9,0.1,1.4c0-0.1-0.1-0.3-0.1-0.4c-0.1-0.4-0.2-0.8-0.4-1.3c-0.4-1.2-0.9-2.5-1.7-3.2
					c-0.1-0.1-0.1-0.1-0.2-0.2l-0.3-0.2l0.1,0.4c0,0.2,0.1,0.4,0.1,0.5c0.1,0.5,0.3,1,0.4,1.6c-0.3-0.8-0.7-1.6-1.2-2.3
					c-0.3-0.4-0.7-0.9-1.2-1.4c-0.4-0.4-1-1-1.7-1.4l-0.4-0.2l0.2,0.4c0.1,0.3,0.3,0.6,0.5,0.9c0.3,0.5,0.9,2,0.9,2.1
					c0,0.1,0.2,0.4,0.2,0.5l0.3,0.1l-0.2-0.6c0-0.1-0.7-1.6-1-2.3c-0.1-0.2-0.2-0.3-0.3-0.5c0.5,0.4,1,0.8,1.3,1.1
					c0.5,0.5,0.9,1,1.2,1.4c0.7,1,1.2,2.3,1.6,3.4l0.2-0.1c0-0.2-0.1-0.4-0.1-0.7c0-0.1,0-0.3-0.1-0.5c-0.1-0.6-0.2-1.1-0.4-1.7
					c0,0,0-0.1,0-0.1c0.7,0.7,1.1,1.9,1.5,3c0.2,0.5,0.3,0.9,0.4,1.3c0.2,0.7,0.4,1.4,0.7,2l0.2-0.1c-0.3-0.7-0.4-1.7-0.4-2.4
					c1.3,2.9,2.7,5.2,4.2,6.7c0.7,0.7,1.2,1.1,1.6,1.3c0.3,0.2,0.6,0.3,0.9,0.4c0.1,0,0.2,0.1,0.2,0.1c0.1,0,0.2,0.1,0.3,0.1
					c0.1,0,0.2,0,0.2,0.1l0,0c0.7,0.1,1.4,0.2,1.9,0.2c0.5,0,0.8,0.1,1.1,0.1c-0.2,0-0.4,0-0.7,0c-1.2,0.1-3.1,0.3-6.2-1.3
					c-0.9-0.5-1.7-1.1-2.6-1.9l0,0c-1.2-1.2-1.9-2.4-2.8-3.8c0.1,0.3-0.1,0.2,0,0.4c0.8,1.2,1.7,2.5,2.7,3.5l0,0
					c0.8,0.8,1.7,1.5,2.6,1.9c3.1,1.6,5.2,1.4,6.3,1.3c0.5,0,0.8-0.1,0.9,0l0.3,0.2L69.4-14.6z"/>
			</g>
			<g>
				<path class="st1" d="M61.4-17.2c-1.9-1.9-2.6-4.1-2.6-4.2l0.2-0.1c0,0,1,3.1,3.8,5.1c2.7,1.9,4.3,1.7,4.3,1.7l0,0.2
					c-0.1,0-1.7,0.3-4.5-1.7C62.1-16.5,61.7-16.9,61.4-17.2z"/>
			</g>
			<g>
				<path class="st1" d="M60.7-16.9c-2.7-2.7-4.2-7.5-4.3-7.8l0.2-0.1c0,0.1,2.1,6.8,5.8,8.9l-0.1,0.2C61.8-16,61.2-16.4,60.7-16.9z
					"/>
			</g>
			<g>
				<path class="st1" d="M58.1-19.3c-3.1-4-4.7-8.4-4.7-8.5l0.2-0.1c0,0.1,2.1,5.1,4.6,8.4L58.1-19.3z"/>
			</g>
			<path class="st1" d="M52-31c1.2,1.2,2,2.4,2.6,3.9c0.6,1.6,1.3,3.1,2,4.7c0.5,1.1,1.2,2.3,1.9,3.3c0.3,0.5,0.7,0.9,1.1,1.3
				c0.4,0.4,1.4,1.3,1.9,1.5c-1-0.7-2.1-2-2.9-3.4C58-21,57.5-22,57-23.4c-0.4-1.2-0.8-2.5-1.4-3.7c-0.6-1.1-1.4-1.9-2.2-2.9
				C53.2-30.1,52.5-30.7,52-31z"/>
			<path class="st1" d="M55.8-28.1c0,0,1-0.1,3.4,7.7c0,0,1.5,2.9,3.2,4c0,0-3.5-1.7-5.1-7.8C57.3-24.2,56.7-26.5,55.8-28.1z"/>
			<path class="st1" d="M58.3-24.5c0,0,1.1,5.2,4.1,7.5c3,2.3,4.7,1.9,4.7,1.9S61.8-15.7,58.3-24.5z"/>
		</g>
		<g>
			<g>
				<path class="st1" d="M74-10c0.1,0,0.2,0.1,0.3,0.1c0.2,0.2,0.3,0.7,0.3,1.4c0,0.5,0.1,1.1,0.2,1.8c0,0.1,0,0.2,0.1,0.2
					c0,0.1,0.1,0.3,0.1,0.3C75-6,75.1-6,75.1-5.9c0.1,0.3,0.3,0.6,0.4,0.9c0.2,0.4,0.6,0.9,1.3,1.6c1.6,1.6,4,3,7.2,4.4l0.6,0.2
					l-0.6,0c-0.3,0-0.9,0-1.4-0.1c0.1,0,0.3,0.1,0.4,0.1c0.4,0.1,0.8,0.2,1.3,0.4c1.2,0.4,2.5,0.9,3.2,1.7c0.1,0.1,0.1,0.1,0.2,0.2
					l0.2,0.3l-0.4-0.1c-0.2,0-0.4-0.1-0.5-0.1c-0.5-0.1-1-0.3-1.6-0.4c0.8,0.3,1.6,0.7,2.3,1.2c0.4,0.3,0.9,0.7,1.4,1.2
					c0.4,0.4,1,1,1.4,1.7l0.2,0.4l-0.4-0.2c-0.3-0.1-0.6-0.3-0.9-0.5c-0.5-0.3-2-0.9-2.1-0.9c-0.1,0-0.4-0.2-0.5-0.2l-0.1-0.3
					l0.6,0.2c0.1,0,1.6,0.7,2.3,1C89.7,6.9,89.9,7,90,7.1c-0.4-0.5-0.8-1-1.1-1.3c-0.5-0.5-1-0.9-1.4-1.2c-1-0.7-2.3-1.2-3.4-1.6
					l0.1-0.2c0.2,0,0.4,0.1,0.7,0.1c0.1,0,0.3,0,0.5,0.1C86,3.1,86.5,3.2,87,3.3c0,0,0.1,0,0.1,0c-0.7-0.7-1.9-1.1-3-1.5
					c-0.5-0.2-0.9-0.3-1.3-0.4c-0.7-0.2-1.4-0.4-2-0.7l0.1-0.2c0.7,0.3,1.7,0.4,2.4,0.4c-2.9-1.3-5.2-2.7-6.7-4.2
					c-0.7-0.7-1.1-1.2-1.3-1.6c-0.2-0.3-0.3-0.6-0.4-0.9c0-0.1-0.1-0.2-0.1-0.2c0-0.1-0.1-0.2-0.1-0.3c0-0.1,0-0.2-0.1-0.2l0,0
					c-0.1-0.7-0.2-1.4-0.2-1.9c0-0.5-0.1-0.8-0.1-1.1c0,0.2,0,0.4,0,0.7c-0.1,1.2-0.3,3.1,1.3,6.2c0.5,0.9,1.1,1.7,1.9,2.6l0,0
					c1.2,1.2,2.4,1.9,3.8,2.8c-0.3-0.1-0.2,0.1-0.4,0c-1.2-0.8-2.5-1.7-3.5-2.7l0,0c-0.8-0.8-1.5-1.7-1.9-2.6
					c-1.6-3.1-1.4-5.2-1.3-6.3c0-0.5,0.1-0.8,0-0.9l-0.2-0.3L74-10z"/>
			</g>
			<g>
				<path class="st1" d="M76.6-1.9c1.9,1.9,4.1,2.6,4.2,2.6l0.1-0.2c0,0-3.1-1-5.1-3.8c-1.9-2.7-1.7-4.3-1.7-4.3l-0.2,0
					c0,0.1-0.3,1.7,1.7,4.5C75.9-2.7,76.3-2.3,76.6-1.9z"/>
			</g>
			<g>
				<path class="st1" d="M76.4-1.3c2.7,2.7,7.5,4.2,7.8,4.3l0.1-0.2c-0.1,0-6.8-2.1-8.9-5.8L75.1-3C75.4-2.4,75.9-1.8,76.4-1.3z"/>
			</g>
			<g>
				<path class="st1" d="M78.7,1.3c4,3.1,8.4,4.7,8.5,4.7l0.1-0.2c-0.1,0-5.1-2.1-8.4-4.6L78.7,1.3z"/>
			</g>
			<path class="st1" d="M90.4,7.4c-1.2-1.2-2.4-2-3.9-2.6c-1.6-0.6-3.1-1.3-4.7-2c-1.1-0.5-2.3-1.2-3.3-1.9
				c-0.5-0.3-0.9-0.7-1.3-1.1c-0.4-0.4-1.3-1.4-1.5-1.9c0.7,1,2,2.1,3.4,2.9c1.2,0.7,2.3,1.2,3.6,1.7c1.2,0.4,2.5,0.8,3.7,1.4
				c1.1,0.6,1.9,1.4,2.9,2.2C89.5,6.2,90.1,7,90.4,7.4z"/>
			<path class="st1" d="M87.5,3.6c0,0,0.1-1-7.7-3.4c0,0-2.9-1.5-4-3.2c0,0,1.7,3.5,7.8,5.1C83.7,2.1,85.9,2.7,87.5,3.6z"/>
			<path class="st1" d="M83.9,1.1c0,0-5.2-1.1-7.5-4.1c-2.3-3-1.9-4.7-1.9-4.7S75.1-2.4,83.9,1.1z"/>
		</g>
		<path class="st1" d="M74.2-8.7c0-0.1,0.2-2-1-2.9c0-0.1,0.1-0.4,0.3-0.5c0.2-0.1,0.5-0.1,0.8,0.1c0.2,0.1,0.3,0.1,0.5,0
			c0.3-0.1,0.4-0.5,0.5-1.2c0.1-1.1,0-2.6,0-2.7l0-0.1l-0.1,0c-0.6,0-3.8-0.2-4,0.8c0,0.1,0,0.2,0.1,0.4c0.1,0.3,0.2,0.5,0.2,0.7
			c0,0.4-0.4,0.5-0.5,0.5c-0.9-1.1-2.8-0.9-2.9-0.8l-0.4,0l0.3,0.2c0.8,0.5,1.2,1.3,1,2.4C68.9-10.1,67.5-8,67.4-8L67-7.3l0.6-0.5
			c0,0,2.9-2.2,5-1.8c0.6,0.1,1,0.4,1.4,1l0.2,0.3L74.2-8.7z M69.4-11.9c0.1-0.9-0.1-1.7-0.6-2.2c0.7,0.3,1.1,0.7,1.3,1.2
			c0.3,1.3-0.9,3-1.8,4C68.7-9.7,69.3-10.8,69.4-11.9z M69.5-10c0,0,0.1-0.1,0.3-0.3c0.1-0.1,0.2-0.3,0.4-0.5c1-1.4,2.8-4.1,1.4-4.2
			c0,0,1.4-0.6,0.8,0.9c-0.4,0.9-1.4,2.4-2.1,3.3c-0.1,0.2-0.2,0.3-0.3,0.4c0.1-0.2,0.3-0.3,0.5-0.6c0.2-0.3,0.5-0.6,0.9-1
			c0.2-0.2,0.3-0.4,0.5-0.5c0.2-0.2,0.3-0.4,0.5-0.5c0.2-0.2,0.4-0.4,0.5-0.5c0.2-0.2,0.4-0.3,0.5-0.5c0.2-0.2,0.3-0.3,0.5-0.5
			c0.2-0.2,0.3-0.3,0.5-0.4c0.6-0.5,1-0.8,1-0.8s-0.3,0.4-0.8,1c-0.1,0.1-0.3,0.3-0.4,0.5c-0.1,0.2-0.3,0.3-0.5,0.5
			c-0.2,0.2-0.3,0.4-0.5,0.5c-0.2,0.2-0.3,0.4-0.5,0.6c-0.2,0.2-0.4,0.4-0.5,0.5c-0.2,0.2-0.4,0.4-0.5,0.5c-0.3,0.3-0.7,0.6-0.9,0.9
			C70-10.3,69.6-10,69.5-10c0.1,0,0.4-0.3,0.9-0.7c0.9-0.7,2.4-1.7,3.3-2.1c1.5-0.6,0.9,0.8,0.9,0.8c-0.1-1.4-2.8,0.3-4.2,1.4
			C69.9-10.3,69.5-10,69.5-10z M72.6-9.9c-1.3-0.2-2.9,0.5-4,1.1c1-0.9,2.6-2,3.8-1.7c0.5,0.1,0.9,0.5,1.2,1.1
			C73.4-9.7,73-9.8,72.6-9.9z"/>
		<g>
			<path class="st1" d="M35.4-19.6l-0.3-0.3l0.5,0.1c3.2,1,7.8-1.2,9.5-2.1c-0.8,0.1-1.3-0.2-1.5-0.4c-0.1-0.1-0.2-0.3-0.2-0.3
				l-0.1-0.1l0.1,0c6.4-1.8,8.6-8,8.6-8l0.1-0.3l0.1,0.3c0,0,0.3,0.7,0.6,1.4c0.7,1.5,0.7,1.5,0.6,1.5l-0.1,0.1l-0.1-0.1
				c0,0,0,0-0.1-0.1c0,0,0,0,0,0c-0.1,0-0.5,0.5-0.9,1.1c-1,1.4-3,4-6.6,6.9C39.7-15.4,35.6-19.4,35.4-19.6z M46.6-22.6l-0.8,0.5
				c-0.2,0.1-5.8,3.5-9.8,2.7c1.1,0.9,4.7,2.9,9.5-1c3.6-2.9,5.5-5.4,6.6-6.8c0.6-0.7,0.8-1.1,1.1-1.2c-0.2-0.5-0.6-1.4-1-2.1
				c-0.5,1.2-2.9,6.2-8.5,7.9c0.2,0.2,0.7,0.7,2.1,0.3L46.6-22.6z"/>
		</g>
		<path class="st1" d="M43.4-22.7c0,0,3.4,0.3,6.6-3.4c2.3-2.7,2.5-3.7,2.4-4c0-0.1-0.1-0.1-0.1-0.2l0,0l-0.2-0.5
			C52.1-30.8,49.9-24.5,43.4-22.7z"/>
		<path class="st1" d="M45.6-20.3c6-4.8,7.3-8.7,7.7-7.9c0.2,0.4-0.1-0.2-0.4-1c-2.1,3.9-7.4,8.5-10.8,9.8c-3.9,1.5-6.6-0.3-6.6-0.3
			S39.6-15.5,45.6-20.3z"/>
		<g>
			<path class="st1" d="M79.3,13.5c2.9-3.6,5.5-5.6,6.9-6.6c0.6-0.4,1.1-0.8,1.1-0.9c0,0,0,0,0,0c-0.1-0.1-0.1-0.1-0.1-0.1L87,5.8
				L87,5.7c0.1-0.1,0.1-0.1,1.5,0.6c0.7,0.3,1.4,0.6,1.4,0.6L90.2,7l-0.3,0.1c-0.1,0-6.2,2.2-8,8.6l0,0.1l-0.1-0.1
				c0,0-0.1-0.1-0.3-0.2C81.2,15.4,81,15,81,14.1c-0.9,1.7-3.1,6.3-2.1,9.5l0.1,0.5l-0.3-0.3C78.5,23.5,74.5,19.4,79.3,13.5z
				 M81.4,13.4c-0.4,1.4,0,1.9,0.3,2.1c1.7-5.6,6.7-8,7.9-8.5c-0.7-0.3-1.6-0.8-2.1-1c-0.1,0.2-0.4,0.5-1.2,1.1
				c-1.4,1-3.9,3-6.8,6.6c-3.9,4.8-1.8,8.4-1,9.5c-0.8-4,2.5-9.6,2.7-9.8l0.5-0.8L81.4,13.4z"/>
		</g>
		<path class="st1" d="M81.8,15.7c0,0-0.3-3.4,3.4-6.6c2.7-2.3,3.7-2.5,4-2.4c0.1,0,0.1,0.1,0.2,0.1l0,0L89.9,7
			C89.9,7,83.6,9.2,81.8,15.7z"/>
		<path class="st1" d="M79.4,13.6c4.8-6,8.7-7.3,7.9-7.7c-0.4-0.2,0.2,0.1,1,0.4c-3.9,2.1-8.5,7.4-9.8,10.8
			c-1.5,3.9,0.3,6.6,0.3,6.6S74.6,19.5,79.4,13.6z"/>
		<path class="st1" d="M45.6-20.3c0,0,0,0,0.1-0.1c0.1-0.1,0.2-0.1,0.3-0.2c0.2-0.1,0.3-0.2,0.6-0.4c0.1-0.1,0.2-0.1,0.4-0.2
			c0.1-0.1,0.3-0.1,0.4-0.2c0.3-0.1,0.6-0.3,0.9-0.5c0.3-0.2,0.7-0.3,1.1-0.4c0.4-0.1,0.8-0.3,1.2-0.4c0.2-0.1,0.4-0.1,0.6-0.1
			c0.1,0,0.2,0,0.3-0.1l0.3-0.1c0.1,0,0.2,0,0.3,0l0.3,0c0.1,0,0.2,0,0.3,0c0.1,0,0.2,0,0.3,0c0.2,0,0.4,0,0.6,0c0.1,0,0.2,0,0.3,0
			c0.1,0,0.2,0,0.3,0.1c0.1,0,0.2,0,0.3,0.1c0.1,0,0.2,0.1,0.3,0.1c0.2,0.1,0.4,0.1,0.5,0.2c0.2,0.1,0.3,0.2,0.5,0.3
			c0.1,0.1,0.3,0.2,0.4,0.3c0.1,0.1,0.2,0.2,0.3,0.3c0.1,0.1,0.2,0.2,0.3,0.3c0.1,0.1,0.1,0.2,0.2,0.3c0.1,0.1,0.1,0.2,0.2,0.3
			c0.2,0.3,0.2,0.5,0.2,0.5s-0.1-0.2-0.3-0.5c-0.1-0.1-0.1-0.1-0.2-0.2c-0.1-0.1-0.1-0.2-0.2-0.3c-0.1-0.1-0.2-0.2-0.3-0.3
			c-0.1-0.1-0.2-0.2-0.3-0.3c-0.1-0.1-0.3-0.2-0.4-0.2c-0.1-0.1-0.3-0.1-0.5-0.2c-0.2-0.1-0.3-0.1-0.5-0.2c-0.2,0-0.4-0.1-0.5-0.1
			c-0.1,0-0.2,0-0.3,0c-0.1,0-0.2,0-0.3,0c-0.2,0-0.4,0-0.6,0c-0.2,0-0.4,0-0.6,0c-0.2,0-0.4,0-0.6,0.1l-0.3,0c-0.1,0-0.2,0-0.3,0.1
			c-0.2,0-0.4,0.1-0.6,0.1c-0.2,0-0.4,0.1-0.6,0.1c-0.2,0.1-0.4,0.1-0.6,0.2c-0.4,0.1-0.7,0.2-1.1,0.4c-0.3,0.1-0.7,0.2-0.9,0.4
			c-0.3,0.1-0.6,0.2-0.8,0.3c-0.2,0.1-0.4,0.2-0.6,0.3C45.8-20.4,45.6-20.3,45.6-20.3z"/>
		<path class="st1" d="M46.2-21.1C46.2-21.1,46.2-21.1,46.2-21.1c0.2-0.2,0.3-0.3,0.4-0.4c0.1-0.1,0.3-0.2,0.5-0.4
			c0.2-0.1,0.4-0.3,0.6-0.5c0.2-0.2,0.5-0.4,0.8-0.5c0.1-0.1,0.3-0.2,0.4-0.3c0.2-0.1,0.3-0.2,0.5-0.3c0.2-0.1,0.3-0.2,0.5-0.2
			c0.1,0,0.2-0.1,0.3-0.1c0.1,0,0.2-0.1,0.3-0.1c0.2-0.1,0.4-0.1,0.5-0.2l0.3-0.1c0.1,0,0.2-0.1,0.3-0.1l0.3-0.1c0.1,0,0.2,0,0.3,0
			c0.2,0,0.4,0,0.6,0c0.1,0,0.2,0,0.3,0c0.1,0,0.2,0,0.3,0c0.2,0,0.4,0,0.6,0.1c0.1,0,0.2,0,0.3,0.1c0.1,0,0.2,0.1,0.3,0.1
			c0.1,0,0.2,0.1,0.2,0.1c0.1,0,0.2,0.1,0.2,0.1c0.2,0.1,0.3,0.2,0.4,0.3c0.1,0.1,0.2,0.2,0.4,0.3c0.1,0,0.1,0.1,0.2,0.1
			c0,0.1,0.1,0.1,0.1,0.2c0.1,0.1,0.2,0.2,0.2,0.3c0.1,0.2,0.3,0.4,0.4,0.5c0.2,0.3,0.3,0.5,0.3,0.5s-0.1-0.2-0.3-0.4
			c0-0.1-0.1-0.1-0.2-0.2c-0.1-0.1-0.1-0.2-0.2-0.2c-0.1-0.1-0.2-0.2-0.3-0.2c0,0-0.1-0.1-0.1-0.1c-0.1,0-0.1-0.1-0.2-0.1
			c-0.1-0.1-0.2-0.2-0.4-0.2c-0.1-0.1-0.3-0.2-0.4-0.2c-0.1,0-0.1-0.1-0.2-0.1c-0.1,0-0.2-0.1-0.2-0.1c-0.1,0-0.2-0.1-0.2-0.1
			c-0.1,0-0.2,0-0.2-0.1c-0.2,0-0.3-0.1-0.5-0.1c-0.1,0-0.2,0-0.3,0c-0.1,0-0.2,0-0.3,0c-0.2,0-0.4,0-0.5,0c-0.1,0-0.2,0-0.3,0
			l-0.3,0.1c-0.1,0-0.2,0-0.3,0.1L51-23.7c-0.2,0.1-0.4,0.1-0.5,0.2c-0.3,0.1-0.7,0.3-1,0.4c-0.3,0.2-0.6,0.3-0.9,0.5
			c-0.1,0.1-0.3,0.2-0.4,0.2c-0.1,0.1-0.3,0.2-0.4,0.2c-0.5,0.3-0.9,0.6-1.1,0.8C46.3-21.2,46.2-21.1,46.2-21.1z"/>
		<path class="st1" d="M79.4,13.6c0,0,0,0,0.1-0.1c0.1-0.1,0.1-0.2,0.2-0.3c0.1-0.2,0.2-0.3,0.4-0.6c0.1-0.1,0.1-0.2,0.2-0.4
			c0.1-0.1,0.1-0.3,0.2-0.4c0.1-0.3,0.3-0.6,0.5-0.9c0.2-0.3,0.3-0.7,0.4-1.1c0.1-0.4,0.3-0.8,0.4-1.2C81.9,8.5,82,8.3,82,8
			c0-0.1,0-0.2,0.1-0.3l0.1-0.3c0-0.1,0-0.2,0-0.3l0-0.3c0-0.1,0-0.2,0-0.3c0-0.1,0-0.2,0-0.3c0-0.2,0-0.4,0-0.6c0-0.1,0-0.2,0-0.3
			c0-0.1,0-0.2-0.1-0.3c0-0.1,0-0.2-0.1-0.3c0-0.1-0.1-0.2-0.1-0.3c-0.1-0.2-0.1-0.4-0.2-0.5c-0.1-0.2-0.2-0.3-0.3-0.5
			c-0.1-0.1-0.2-0.3-0.3-0.4c-0.1-0.1-0.2-0.2-0.3-0.3c-0.1-0.1-0.2-0.2-0.3-0.3c-0.1-0.1-0.2-0.1-0.3-0.2C80,2,80,1.9,79.9,1.9
			c-0.3-0.2-0.5-0.2-0.5-0.2s0.2,0.1,0.5,0.3C79.9,2.1,80,2.1,80,2.2c0.1,0.1,0.2,0.1,0.3,0.2c0.1,0.1,0.2,0.2,0.3,0.3
			c0.1,0.1,0.2,0.2,0.3,0.3c0.1,0.1,0.2,0.3,0.2,0.4c0.1,0.1,0.1,0.3,0.2,0.5c0.1,0.2,0.1,0.3,0.2,0.5c0,0.2,0.1,0.4,0.1,0.5
			c0,0.1,0,0.2,0,0.3c0,0.1,0,0.2,0,0.3c0,0.2,0,0.4,0,0.6c0,0.2,0,0.4,0,0.6c0,0.2,0,0.4-0.1,0.6l0,0.3c0,0.1,0,0.2-0.1,0.3
			c0,0.2-0.1,0.4-0.1,0.6c0,0.2-0.1,0.4-0.1,0.6C81.1,9.3,81,9.5,81,9.7c-0.1,0.4-0.2,0.7-0.4,1.1c-0.1,0.3-0.2,0.7-0.4,0.9
			c-0.1,0.3-0.2,0.6-0.3,0.8c-0.1,0.2-0.2,0.4-0.3,0.6C79.5,13.4,79.4,13.6,79.4,13.6z"/>
		<path class="st1" d="M80.3,13C80.3,13,80.3,12.9,80.3,13c0.2-0.2,0.3-0.3,0.4-0.4c0.1-0.1,0.2-0.3,0.4-0.5
			c0.1-0.2,0.3-0.4,0.5-0.6c0.2-0.2,0.4-0.5,0.5-0.8c0.1-0.1,0.2-0.3,0.3-0.4c0.1-0.2,0.2-0.3,0.3-0.5c0.1-0.2,0.2-0.3,0.2-0.5
			c0-0.1,0.1-0.2,0.1-0.3C82.9,9,83,8.9,83,8.8c0.1-0.2,0.1-0.4,0.2-0.5L83.3,8c0-0.1,0.1-0.2,0.1-0.3l0.1-0.3c0-0.1,0-0.2,0-0.3
			c0-0.2,0-0.4,0-0.6c0-0.1,0-0.2,0-0.3c0-0.1,0-0.2,0-0.3c0-0.2,0-0.4-0.1-0.6c0-0.1,0-0.2-0.1-0.3c0-0.1-0.1-0.2-0.1-0.3
			c0-0.1-0.1-0.2-0.1-0.2c0-0.1-0.1-0.2-0.1-0.2c-0.1-0.2-0.2-0.3-0.3-0.4c-0.1-0.1-0.2-0.2-0.3-0.4c0-0.1-0.1-0.1-0.1-0.2
			c-0.1,0-0.1-0.1-0.2-0.1c-0.1-0.1-0.2-0.2-0.3-0.2c-0.2-0.1-0.3-0.3-0.5-0.4c-0.3-0.2-0.5-0.3-0.5-0.3s0.2,0.1,0.4,0.3
			c0.1,0,0.1,0.1,0.2,0.2c0.1,0.1,0.2,0.1,0.2,0.2c0.1,0.1,0.2,0.2,0.2,0.3c0,0,0.1,0.1,0.1,0.1c0,0.1,0.1,0.1,0.1,0.2
			c0.1,0.1,0.2,0.2,0.2,0.4c0.1,0.1,0.2,0.3,0.2,0.4c0,0.1,0.1,0.1,0.1,0.2c0,0.1,0.1,0.2,0.1,0.2c0,0.1,0.1,0.2,0.1,0.2
			c0,0.1,0,0.2,0.1,0.2c0,0.2,0.1,0.3,0.1,0.5c0,0.1,0,0.2,0,0.3c0,0.1,0,0.2,0,0.3c0,0.2,0,0.4,0,0.5c0,0.1,0,0.2,0,0.3L83,7.6
			c0,0.1,0,0.2-0.1,0.3l-0.1,0.3c-0.1,0.2-0.1,0.4-0.2,0.5c-0.1,0.3-0.3,0.7-0.4,1c-0.2,0.3-0.3,0.6-0.5,0.9
			c-0.1,0.1-0.2,0.3-0.2,0.4c-0.1,0.1-0.2,0.3-0.2,0.4c-0.3,0.5-0.6,0.9-0.8,1.1C80.4,12.8,80.3,13,80.3,13z"/>
	</g>
	<g>
		<g>
			<g>
				<path class="st1" d="M20.4,43c0,0.1,0.1,0.2,0.1,0.3c0.2,0.2,0.7,0.3,1.4,0.3c0.5,0,1.1,0.1,1.8,0.2c0.1,0,0.2,0,0.2,0.1
					c0.1,0,0.3,0.1,0.3,0.1c0.1,0,0.2,0.1,0.2,0.1c0.3,0.1,0.6,0.3,0.9,0.4c0.4,0.2,0.9,0.6,1.6,1.3c1.6,1.6,3,4,4.4,7.2l0.2,0.6
					l0-0.6c0-0.3,0-0.9-0.1-1.4c0,0.1,0.1,0.3,0.1,0.4c0.1,0.4,0.2,0.8,0.4,1.3c0.4,1.2,0.9,2.5,1.7,3.2c0.1,0.1,0.1,0.1,0.2,0.2
					l0.3,0.2l-0.1-0.4c0-0.2-0.1-0.4-0.1-0.5c-0.1-0.5-0.3-1-0.4-1.6c0.3,0.8,0.7,1.6,1.2,2.3c0.3,0.4,0.7,0.9,1.2,1.4
					c0.4,0.4,1,1,1.7,1.4l0.4,0.2l-0.2-0.4c-0.1-0.3-0.3-0.6-0.5-0.9c-0.3-0.5-0.9-2-0.9-2.1c0-0.1-0.2-0.4-0.2-0.5L36,55.7l0.2,0.6
					c0,0.1,0.7,1.6,1,2.3c0.1,0.2,0.2,0.3,0.3,0.5c-0.5-0.4-1-0.8-1.3-1.1c-0.5-0.5-0.9-1-1.2-1.4c-0.7-1-1.2-2.3-1.6-3.4l-0.2,0.1
					c0,0.2,0.1,0.4,0.1,0.7c0,0.1,0,0.3,0.1,0.5c0.1,0.6,0.2,1.1,0.4,1.7c0,0,0,0.1,0,0.1c-0.7-0.7-1.1-1.9-1.5-3
					c-0.2-0.5-0.3-0.9-0.4-1.3c-0.2-0.7-0.4-1.4-0.7-2l-0.2,0.1c0.3,0.7,0.4,1.7,0.4,2.4c-1.3-2.9-2.7-5.2-4.2-6.7
					c-0.7-0.7-1.2-1.1-1.6-1.3c-0.3-0.2-0.6-0.3-0.9-0.4c-0.1,0-0.2-0.1-0.2-0.1c-0.1,0-0.2-0.1-0.3-0.1c-0.1,0-0.2,0-0.2-0.1l0,0
					c-0.7-0.1-1.4-0.2-1.9-0.2c-0.5,0-0.8-0.1-1.1-0.1c0.2,0,0.4,0,0.7,0c1.2-0.1,3.1-0.3,6.2,1.3c0.9,0.5,1.7,1.1,2.6,1.9l0,0
					c1.2,1.2,1.9,2.4,2.8,3.8c-0.1-0.3,0.1-0.2,0-0.4c-0.8-1.2-1.7-2.5-2.7-3.5l0,0c-0.8-0.8-1.7-1.5-2.6-1.9
					c-3.1-1.6-5.2-1.4-6.3-1.3c-0.5,0-0.8,0.1-0.9,0l-0.3-0.2L20.4,43z"/>
			</g>
			<g>
				<path class="st1" d="M28.5,45.7c1.9,1.9,2.6,4.1,2.6,4.2l-0.2,0.1c0,0-1-3.1-3.8-5.1c-2.7-1.9-4.3-1.7-4.3-1.7l0-0.2
					c0.1,0,1.7-0.3,4.5,1.7C27.7,44.9,28.1,45.3,28.5,45.7z"/>
			</g>
			<g>
				<path class="st1" d="M29.1,45.4c2.8,2.8,4.2,7.5,4.3,7.8l-0.2,0.1c0-0.1-2.1-6.8-5.8-8.9l0.1-0.2C28.1,44.4,28.6,44.9,29.1,45.4
					z"/>
			</g>
			<g>
				<path class="st1" d="M31.7,47.7c3.1,4,4.7,8.4,4.7,8.5l-0.2,0.1c0-0.1-2.1-5.1-4.6-8.4L31.7,47.7z"/>
			</g>
			<path class="st1" d="M37.8,59.4c-1.2-1.2-2-2.4-2.6-3.9c-0.6-1.6-1.3-3.1-2-4.7c-0.5-1.1-1.2-2.3-1.9-3.3
				c-0.3-0.5-0.7-0.9-1.1-1.3c-0.4-0.4-1.4-1.3-1.9-1.5c1,0.7,2.1,2,2.9,3.4c0.7,1.2,1.2,2.3,1.7,3.6c0.4,1.2,0.8,2.5,1.4,3.7
				c0.6,1.1,1.4,1.9,2.2,2.9C36.6,58.6,37.4,59.1,37.8,59.4z"/>
			<path class="st1" d="M34,56.5c0,0-1,0.1-3.4-7.7c0,0-1.5-2.9-3.2-4c0,0,3.5,1.7,5.1,7.8C32.5,52.7,33.1,54.9,34,56.5z"/>
			<path class="st1" d="M31.5,52.9c0,0-1.1-5.2-4.1-7.5c-3-2.3-4.7-1.9-4.7-1.9S28,44.1,31.5,52.9z"/>
		</g>
		<g>
			<g>
				<path class="st1" d="M15.8,38.4c-0.1,0-0.2-0.1-0.3-0.1c-0.2-0.2-0.3-0.7-0.3-1.4c0-0.5-0.1-1.1-0.2-1.8c0-0.1,0-0.2-0.1-0.2
					c0-0.1-0.1-0.3-0.1-0.3c0-0.1-0.1-0.2-0.1-0.2c-0.1-0.3-0.3-0.6-0.4-0.9c-0.2-0.4-0.6-0.9-1.3-1.6c-1.6-1.6-4-3-7.2-4.4
					l-0.6-0.2l0.6,0c0.3,0,0.9,0,1.4,0.1c-0.1,0-0.3-0.1-0.4-0.1c-0.4-0.1-0.8-0.2-1.3-0.4c-1.2-0.4-2.5-0.9-3.2-1.7
					c-0.1-0.1-0.1-0.1-0.2-0.2L2,24.7l0.4,0.1c0.2,0,0.4,0.1,0.5,0.1c0.5,0.1,1,0.3,1.6,0.4c-0.8-0.3-1.6-0.7-2.3-1.2
					c-0.4-0.3-0.9-0.7-1.4-1.2c-0.4-0.4-1-1-1.4-1.7l-0.2-0.4l0.4,0.2c0.3,0.1,0.6,0.3,0.9,0.5c0.5,0.3,2,0.9,2.1,0.9
					c0.1,0,0.4,0.2,0.5,0.2l0.1,0.3l-0.6-0.2c-0.1,0-1.6-0.7-2.3-1c-0.2-0.1-0.3-0.2-0.5-0.3c0.4,0.5,0.8,1,1.1,1.3
					c0.5,0.5,1,0.9,1.4,1.2c1,0.7,2.3,1.2,3.4,1.6l-0.1,0.2c-0.2,0-0.4-0.1-0.7-0.1c-0.1,0-0.3,0-0.5-0.1c-0.6-0.1-1.1-0.2-1.7-0.4
					c0,0-0.1,0-0.1,0c0.7,0.7,1.9,1.1,3,1.5C6.2,26.7,6.6,26.9,7,27c0.7,0.2,1.4,0.4,2,0.7L8.9,28c-0.7-0.3-1.7-0.4-2.4-0.4
					c2.9,1.3,5.2,2.7,6.7,4.2c0.7,0.7,1.1,1.2,1.3,1.6c0.2,0.3,0.3,0.6,0.4,0.9c0,0.1,0.1,0.2,0.1,0.2c0,0.1,0.1,0.2,0.1,0.3
					c0,0.1,0,0.2,0.1,0.2l0,0c0.1,0.7,0.2,1.4,0.2,1.9c0,0.5,0.1,0.8,0.1,1.1c0-0.2,0-0.4,0-0.7c0.1-1.2,0.3-3.1-1.3-6.2
					c-0.5-0.9-1.1-1.7-1.9-2.6l0,0c-1.2-1.2-2.4-1.9-3.8-2.8c0.3,0.1,0.2-0.1,0.4,0c1.2,0.8,2.5,1.7,3.5,2.7l0,0
					c0.8,0.8,1.5,1.7,1.9,2.6c1.6,3.1,1.4,5.2,1.3,6.3c0,0.5-0.1,0.8,0,0.9l0.2,0.3L15.8,38.4z"/>
			</g>
			<g>
				<path class="st1" d="M13.2,30.4C11.3,28.5,9,27.7,9,27.7L8.9,28c0,0,3.1,1,5.1,3.8c1.9,2.7,1.7,4.3,1.7,4.3l0.2,0
					c0-0.1,0.3-1.7-1.7-4.5C13.9,31.1,13.5,30.7,13.2,30.4z"/>
			</g>
			<g>
				<path class="st1" d="M13.5,29.7c-2.8-2.8-7.5-4.2-7.8-4.3l-0.1,0.2c0.1,0,6.8,2.1,8.9,5.8l0.2-0.1C14.4,30.8,14,30.2,13.5,29.7z
					"/>
			</g>
			<g>
				<path class="st1" d="M11.1,27.1c-4-3.1-8.4-4.7-8.5-4.7l-0.1,0.2c0.1,0,5.1,2.1,8.4,4.6L11.1,27.1z"/>
			</g>
			<path class="st1" d="M-0.6,21c1.2,1.2,2.4,2,3.9,2.6c1.6,0.6,3.1,1.3,4.7,2c1.1,0.5,2.3,1.2,3.3,1.9c0.5,0.3,0.9,0.7,1.3,1.1
				c0.4,0.4,1.3,1.4,1.5,1.9c-0.7-1-2-2.1-3.4-2.9C9.5,27,8.4,26.5,7,26c-1.2-0.4-2.5-0.8-3.7-1.4c-1.1-0.6-1.9-1.4-2.9-2.2
				C0.3,22.2-0.3,21.5-0.6,21z"/>
			<path class="st1" d="M2.3,24.9c0,0-0.1,1,7.7,3.4c0,0,2.9,1.5,4,3.2c0,0-1.7-3.5-7.8-5.1C6.2,26.4,3.9,25.7,2.3,24.9z"/>
			<path class="st1" d="M5.9,27.4c0,0,5.2,1.1,7.5,4.1c2.3,3,1.9,4.7,1.9,4.7S14.8,30.8,5.9,27.4z"/>
		</g>
		<path class="st1" d="M15.7,37.2c0,0.1-0.2,2,1,2.9c0,0.1-0.1,0.4-0.3,0.5c-0.2,0.1-0.5,0.1-0.8-0.1c-0.2-0.1-0.3-0.1-0.5,0
			c-0.3,0.1-0.4,0.5-0.5,1.2c-0.1,1.1,0,2.6,0,2.7l0,0.1l0.1,0c0.6,0,3.8,0.2,4-0.8c0-0.1,0-0.2-0.1-0.4c-0.2-0.3-0.2-0.5-0.2-0.7
			c0-0.4,0.4-0.5,0.5-0.5c0.9,1.1,2.8,0.9,2.9,0.9l0.4,0l-0.3-0.2c-0.8-0.5-1.2-1.3-1-2.4c0.2-1.8,1.7-3.9,1.7-3.9l0.5-0.7l-0.6,0.5
			c0,0-2.9,2.2-5,1.8c-0.6-0.1-1-0.4-1.4-1l-0.2-0.3L15.7,37.2z M20.4,40.3c-0.1,0.9,0.1,1.7,0.6,2.2c-0.7-0.3-1.1-0.7-1.3-1.2
			c-0.3-1.3,0.9-3,1.8-4C21.1,38.1,20.6,39.2,20.4,40.3z M20.3,38.4c0,0-0.1,0.1-0.3,0.3c-0.1,0.1-0.2,0.3-0.4,0.5
			c-1,1.4-2.8,4.1-1.4,4.2c0,0-1.4,0.6-0.8-0.9c0.4-0.9,1.4-2.4,2.1-3.3c0.1-0.2,0.2-0.3,0.3-0.4c-0.1,0.2-0.3,0.3-0.5,0.6
			c-0.2,0.3-0.5,0.6-0.9,1c-0.2,0.2-0.3,0.4-0.5,0.5c-0.2,0.2-0.3,0.4-0.5,0.6c-0.2,0.2-0.4,0.4-0.5,0.5c-0.2,0.2-0.4,0.3-0.5,0.5
			c-0.2,0.2-0.3,0.3-0.5,0.5c-0.2,0.2-0.3,0.3-0.5,0.4c-0.6,0.5-1,0.8-1,0.8s0.3-0.4,0.8-1c0.1-0.1,0.3-0.3,0.4-0.5
			c0.1-0.2,0.3-0.3,0.5-0.5c0.2-0.2,0.3-0.4,0.5-0.5c0.2-0.2,0.3-0.4,0.5-0.6c0.2-0.2,0.4-0.4,0.5-0.5c0.2-0.2,0.4-0.4,0.5-0.5
			c0.3-0.3,0.7-0.6,0.9-0.9C19.9,38.8,20.2,38.5,20.3,38.4c-0.1,0-0.4,0.3-0.9,0.7c-0.9,0.7-2.4,1.7-3.3,2.1
			c-1.5,0.6-0.9-0.8-0.9-0.8c0.1,1.4,2.8-0.3,4.2-1.4C19.9,38.7,20.3,38.4,20.3,38.4z M17.2,38.3c1.3,0.2,2.9-0.5,4-1.1
			c-1,0.9-2.6,2-3.8,1.7c-0.5-0.1-0.9-0.5-1.2-1.1C16.4,38.1,16.8,38.2,17.2,38.3z"/>
		<g>
			<path class="st1" d="M54.4,48l0.3,0.3l-0.5-0.1c-3.2-1-7.8,1.2-9.5,2.1c0.8-0.1,1.3,0.2,1.5,0.4c0.1,0.1,0.2,0.3,0.2,0.3l0.1,0.1
				l-0.1,0c-6.4,1.8-8.6,8-8.6,8l-0.1,0.3l-0.1-0.3c0,0-0.3-0.7-0.6-1.4c-0.7-1.5-0.7-1.5-0.6-1.5l0.1-0.1l0.1,0.1c0,0,0,0,0.1,0.1
				c0,0,0,0,0,0c0.1,0,0.5-0.5,0.9-1.1c1-1.4,3-4,6.6-6.9C50.1,43.8,54.2,47.8,54.4,48z M43.2,51l0.8-0.5c0.2-0.1,5.8-3.5,9.8-2.7
				c-1.1-0.9-4.7-2.9-9.5,1c-3.6,2.9-5.5,5.4-6.6,6.8c-0.6,0.7-0.8,1.1-1.1,1.2c0.2,0.5,0.6,1.4,1,2.1c0.5-1.2,2.9-6.2,8.5-7.9
				c-0.2-0.2-0.7-0.7-2.1-0.3L43.2,51z"/>
		</g>
		<path class="st1" d="M46.4,51.1c0,0-3.4-0.3-6.6,3.4c-2.3,2.7-2.5,3.7-2.4,4c0,0.1,0.1,0.1,0.1,0.2l0,0l0.2,0.5
			C37.7,59.2,39.9,52.9,46.4,51.1z"/>
		<path class="st1" d="M44.3,48.7c-6,4.8-7.3,8.7-7.7,7.9c-0.2-0.4,0.1,0.2,0.4,1c2.1-3.9,7.4-8.5,10.8-9.8c3.9-1.5,6.6,0.3,6.6,0.3
			S50.2,43.9,44.3,48.7z"/>
		<g>
			<path class="st1" d="M10.5,14.9c-2.9,3.6-5.5,5.6-6.9,6.6c-0.6,0.4-1.1,0.8-1.1,0.9c0,0,0,0,0,0c0.1,0.1,0.1,0.1,0.1,0.1l0.1,0.1
				l-0.1,0.1c-0.1,0.1-0.1,0.1-1.5-0.6c-0.7-0.3-1.4-0.6-1.4-0.6l-0.3-0.1l0.3-0.1c0.1,0,6.2-2.2,8-8.6l0-0.1l0.1,0.1
				c0,0,0.1,0.1,0.3,0.2c0.2,0.2,0.5,0.7,0.4,1.5c0.9-1.7,3.1-6.3,2.1-9.5l-0.1-0.5l0.3,0.3C11.3,4.9,15.3,9,10.5,14.9z M8.4,15
				c0.4-1.4,0-1.9-0.3-2.1c-1.7,5.6-6.7,8-7.9,8.5c0.7,0.3,1.6,0.8,2.1,1c0.1-0.2,0.4-0.5,1.2-1.1c1.4-1,3.9-3,6.8-6.6
				c3.9-4.8,1.8-8.4,1-9.5c0.8,4-2.5,9.6-2.7,9.8l-0.5,0.8L8.4,15z"/>
		</g>
		<path class="st1" d="M8,12.7c0,0,0.3,3.4-3.4,6.6c-2.7,2.3-3.7,2.5-4,2.4c-0.1,0-0.1-0.1-0.2-0.1l0,0l-0.5-0.2
			C-0.1,21.4,6.2,19.2,8,12.7z"/>
		<path class="st1" d="M10.4,14.9c-4.8,6-8.7,7.3-7.9,7.7c0.4,0.2-0.2-0.1-1-0.4c3.9-2.1,8.5-7.4,9.8-10.8C12.9,7.4,11,4.8,11,4.8
			S15.2,8.9,10.4,14.9z"/>
		<path class="st1" d="M44.3,48.7c0,0,0,0-0.1,0.1c-0.1,0.1-0.2,0.1-0.3,0.2c-0.2,0.1-0.3,0.2-0.6,0.4c-0.1,0.1-0.2,0.1-0.4,0.2
			c-0.1,0.1-0.3,0.1-0.4,0.2c-0.3,0.1-0.6,0.3-0.9,0.5c-0.3,0.2-0.7,0.3-1.1,0.4c-0.4,0.1-0.8,0.3-1.2,0.4c-0.2,0.1-0.4,0.1-0.6,0.1
			c-0.1,0-0.2,0-0.3,0.1l-0.3,0.1c-0.1,0-0.2,0-0.3,0l-0.3,0c-0.1,0-0.2,0-0.3,0c-0.1,0-0.2,0-0.3,0c-0.2,0-0.4,0-0.6,0
			c-0.1,0-0.2,0-0.3,0c-0.1,0-0.2,0-0.3-0.1c-0.1,0-0.2,0-0.3-0.1c-0.1,0-0.2-0.1-0.3-0.1c-0.2-0.1-0.4-0.1-0.5-0.2
			c-0.2-0.1-0.3-0.2-0.5-0.3c-0.1-0.1-0.3-0.2-0.4-0.3c-0.1-0.1-0.2-0.2-0.3-0.3c-0.1-0.1-0.2-0.2-0.3-0.3c-0.1-0.1-0.1-0.2-0.2-0.3
			c-0.1-0.1-0.1-0.2-0.2-0.3c-0.2-0.3-0.2-0.5-0.2-0.5s0.1,0.2,0.3,0.5c0.1,0.1,0.1,0.1,0.2,0.2c0.1,0.1,0.1,0.2,0.2,0.3
			c0.1,0.1,0.2,0.2,0.3,0.3c0.1,0.1,0.2,0.2,0.3,0.3c0.1,0.1,0.3,0.2,0.4,0.2c0.1,0.1,0.3,0.1,0.5,0.2c0.2,0.1,0.3,0.1,0.5,0.2
			c0.2,0,0.4,0.1,0.5,0.1c0.1,0,0.2,0,0.3,0c0.1,0,0.2,0,0.3,0c0.2,0,0.4,0,0.6,0c0.2,0,0.4,0,0.6,0c0.2,0,0.4,0,0.6-0.1l0.3,0
			c0.1,0,0.2,0,0.3-0.1c0.2,0,0.4-0.1,0.6-0.1c0.2,0,0.4-0.1,0.6-0.1c0.2-0.1,0.4-0.1,0.6-0.2c0.4-0.1,0.7-0.2,1.1-0.4
			c0.3-0.1,0.7-0.2,0.9-0.4c0.3-0.1,0.6-0.2,0.8-0.3c0.2-0.1,0.4-0.2,0.6-0.3C44.1,48.8,44.3,48.7,44.3,48.7z"/>
		<path class="st1" d="M43.6,49.5C43.6,49.5,43.6,49.6,43.6,49.5c-0.2,0.2-0.2,0.3-0.4,0.4c-0.1,0.1-0.3,0.2-0.5,0.4
			c-0.2,0.1-0.4,0.3-0.6,0.5c-0.2,0.2-0.5,0.4-0.8,0.5c-0.1,0.1-0.3,0.2-0.4,0.3c-0.2,0.1-0.3,0.2-0.5,0.3c-0.2,0.1-0.3,0.2-0.5,0.2
			c-0.1,0-0.2,0.1-0.3,0.1c-0.1,0-0.2,0.1-0.3,0.1c-0.2,0.1-0.4,0.1-0.5,0.2l-0.3,0.1c-0.1,0-0.2,0.1-0.3,0.1l-0.3,0.1
			c-0.1,0-0.2,0-0.3,0c-0.2,0-0.4,0-0.6,0c-0.1,0-0.2,0-0.3,0c-0.1,0-0.2,0-0.3,0c-0.2,0-0.4,0-0.6-0.1c-0.1,0-0.2,0-0.3-0.1
			c-0.1,0-0.2-0.1-0.3-0.1c-0.1,0-0.2-0.1-0.2-0.1c-0.1,0-0.2-0.1-0.2-0.1c-0.2-0.1-0.3-0.2-0.4-0.3c-0.1-0.1-0.2-0.2-0.4-0.3
			c-0.1,0-0.1-0.1-0.2-0.1c0-0.1-0.1-0.1-0.1-0.2c-0.1-0.1-0.2-0.2-0.2-0.3c-0.1-0.2-0.3-0.4-0.4-0.5c-0.2-0.3-0.3-0.5-0.3-0.5
			s0.1,0.2,0.3,0.4c0,0.1,0.1,0.1,0.2,0.2c0.1,0.1,0.1,0.2,0.2,0.2c0.1,0.1,0.2,0.2,0.3,0.2c0,0,0.1,0.1,0.1,0.1
			c0.1,0,0.1,0.1,0.2,0.1c0.1,0.1,0.2,0.2,0.4,0.2c0.1,0.1,0.3,0.2,0.4,0.2c0.1,0,0.1,0.1,0.2,0.1c0.1,0,0.2,0.1,0.2,0.1
			c0.1,0,0.2,0.1,0.2,0.1c0.1,0,0.2,0,0.2,0.1c0.2,0,0.3,0.1,0.5,0.1c0.1,0,0.2,0,0.3,0c0.1,0,0.2,0,0.3,0c0.2,0,0.4,0,0.5,0
			c0.1,0,0.2,0,0.3,0l0.3-0.1c0.1,0,0.2,0,0.3-0.1l0.3-0.1c0.2-0.1,0.4-0.1,0.5-0.2c0.3-0.1,0.7-0.3,1-0.4c0.3-0.2,0.6-0.3,0.9-0.5
			c0.1-0.1,0.3-0.2,0.4-0.2c0.1-0.1,0.3-0.2,0.4-0.2c0.5-0.3,0.9-0.6,1.1-0.8C43.5,49.6,43.6,49.5,43.6,49.5z"/>
		<path class="st1" d="M10.4,14.8c0,0,0,0-0.1,0.1c-0.1,0.1-0.1,0.2-0.2,0.3c-0.1,0.2-0.2,0.3-0.4,0.6c-0.1,0.1-0.1,0.2-0.2,0.4
			c-0.1,0.1-0.1,0.3-0.2,0.4c-0.1,0.3-0.3,0.6-0.5,0.9c-0.2,0.3-0.3,0.7-0.4,1.1C8.2,19,8.1,19.4,8,19.8c-0.1,0.2-0.1,0.4-0.1,0.6
			c0,0.1,0,0.2-0.1,0.3l0,0.3c0,0.1,0,0.2,0,0.3l0,0.3c0,0.1,0,0.2,0,0.3c0,0.1,0,0.2,0,0.3c0,0.2,0,0.4,0,0.6c0,0.1,0,0.2,0,0.3
			c0,0.1,0,0.2,0.1,0.3c0,0.1,0,0.2,0.1,0.3c0,0.1,0.1,0.2,0.1,0.3c0.1,0.2,0.1,0.4,0.2,0.5c0.1,0.2,0.2,0.3,0.3,0.5
			c0.1,0.1,0.2,0.3,0.3,0.4c0.1,0.1,0.2,0.2,0.3,0.3c0.1,0.1,0.2,0.2,0.3,0.3c0.1,0.1,0.2,0.1,0.3,0.2c0.1,0.1,0.2,0.1,0.3,0.2
			c0.3,0.2,0.5,0.2,0.5,0.2s-0.2-0.1-0.5-0.3c-0.1-0.1-0.1-0.1-0.2-0.2c-0.1-0.1-0.2-0.1-0.3-0.2c-0.1-0.1-0.2-0.2-0.3-0.3
			c-0.1-0.1-0.2-0.2-0.3-0.3c-0.1-0.1-0.2-0.3-0.2-0.4c-0.1-0.1-0.1-0.3-0.2-0.5c-0.1-0.2-0.1-0.3-0.2-0.5c0-0.2-0.1-0.4-0.1-0.5
			c0-0.1,0-0.2,0-0.3c0-0.1,0-0.2,0-0.3c0-0.2,0-0.4,0-0.6c0-0.2,0-0.4,0-0.6c0-0.2,0-0.4,0.1-0.6l0-0.3c0-0.1,0-0.2,0.1-0.3
			c0-0.2,0.1-0.4,0.1-0.6c0-0.2,0.1-0.4,0.1-0.6c0.1-0.2,0.1-0.4,0.2-0.6C9,18.4,9.1,18,9.2,17.7c0.1-0.3,0.2-0.7,0.4-0.9
			c0.1-0.3,0.2-0.6,0.3-0.8c0.1-0.2,0.2-0.4,0.3-0.6C10.3,15,10.4,14.8,10.4,14.8z"/>
		<path class="st1" d="M9.6,15.5C9.6,15.5,9.5,15.5,9.6,15.5c-0.2,0.2-0.3,0.3-0.4,0.4c-0.1,0.1-0.2,0.3-0.4,0.5
			c-0.1,0.2-0.3,0.4-0.5,0.6c-0.2,0.2-0.4,0.5-0.5,0.8c-0.1,0.1-0.2,0.3-0.3,0.4c-0.1,0.1-0.2,0.3-0.3,0.5c-0.1,0.2-0.2,0.3-0.2,0.5
			c0,0.1-0.1,0.2-0.1,0.3c0,0.1-0.1,0.2-0.1,0.3c-0.1,0.2-0.1,0.4-0.2,0.5l-0.1,0.3c0,0.1-0.1,0.2-0.1,0.3L6.4,21c0,0.1,0,0.2,0,0.3
			c0,0.2,0,0.4,0,0.6c0,0.1,0,0.2,0,0.3c0,0.1,0,0.2,0,0.3c0,0.2,0,0.4,0.1,0.6c0,0.1,0,0.2,0.1,0.3c0,0.1,0.1,0.2,0.1,0.3
			c0,0.1,0.1,0.2,0.1,0.2c0,0.1,0.1,0.2,0.1,0.2c0.1,0.2,0.2,0.3,0.3,0.4c0.1,0.1,0.2,0.2,0.3,0.4c0,0.1,0.1,0.1,0.1,0.2
			c0.1,0,0.1,0.1,0.1,0.1c0.1,0.1,0.2,0.2,0.3,0.2c0.2,0.1,0.3,0.3,0.5,0.4c0.3,0.2,0.5,0.3,0.5,0.3s-0.2-0.1-0.4-0.3
			c-0.1,0-0.1-0.1-0.2-0.2c-0.1-0.1-0.2-0.1-0.2-0.2C8,25.1,7.9,25,7.8,24.9c0,0-0.1-0.1-0.1-0.1c0-0.1-0.1-0.1-0.1-0.2
			c-0.1-0.1-0.2-0.2-0.2-0.4c-0.1-0.1-0.2-0.3-0.2-0.4c0-0.1-0.1-0.1-0.1-0.2c0-0.1-0.1-0.2-0.1-0.2c0-0.1-0.1-0.2-0.1-0.2
			c0-0.1,0-0.2-0.1-0.2c0-0.2-0.1-0.3-0.1-0.5c0-0.1,0-0.2,0-0.3c0-0.1,0-0.2,0-0.3c0-0.2,0-0.4,0-0.5c0-0.1,0-0.2,0-0.3l0.1-0.3
			c0-0.1,0-0.2,0.1-0.3L7,20.2c0.1-0.2,0.1-0.4,0.2-0.5c0.1-0.3,0.3-0.7,0.4-1c0.2-0.3,0.3-0.6,0.5-0.9c0.1-0.1,0.2-0.3,0.2-0.4
			c0.1-0.1,0.2-0.3,0.2-0.4c0.3-0.5,0.6-0.9,0.8-1.1C9.4,15.6,9.6,15.5,9.6,15.5z"/>
	</g>
	<g>
		<path class="st1" d="M19.7,39.8c-5.9-5.9-8.9-14.1-8.3-23.1C12,7.8,16-0.9,22.7-7.6c6.7-6.7,15.4-10.8,24.3-11.3
			c9-0.6,17.2,2.4,23.1,8.3c5.9,5.9,8.9,14.1,8.3,23.1c-0.6,8.9-4.6,17.6-11.3,24.3c-6.7,6.7-15.4,10.8-24.3,11.3
			C33.8,48.7,25.6,45.8,19.7,39.8z M69.6-10.1c-11.9-11.9-32.7-10.6-46.3,3c-13.6,13.6-15,34.4-3,46.3c11.9,11.9,32.7,10.6,46.3-3
			C80.2,22.6,81.6,1.8,69.6-10.1z"/>
	</g>
	<g>
		<path class="st1" d="M21.3,38.2C9.8,26.8,11.1,6.8,24.1-6.2c13.1-13.1,33-14.3,44.5-2.9c11.5,11.5,10.2,31.4-2.9,44.5
			C52.7,48.4,32.7,49.7,21.3,38.2z M68.4-8.9C57-20.2,37.3-18.9,24.4-6C11.4,6.9,10.1,26.7,21.5,38c11.3,11.3,31.1,10.1,44-2.9
			C78.4,22.2,79.7,2.5,68.4-8.9z"/>
	</g>
</g>
<path class="st1" d="M27,38.3c0.5-0.4,1.1-0.8,1.6-1.1c4.4-2.4,8.4-2.9,12.2-2.6c3.8,0.2,5.2,1.3,9,1.7c3.8,0.4,4.6,0.2,6.3-0.2
	c1.7-0.5,1.9-0.7,3.1-1.5c-0.3,0.4-0.9,1-1.7,1.4c-1.3,0.6-2.8,1.1-5,1.3s-4.2-0.2-6-0.6s-5-1-8.2-1.1c-3.4,0-5.9,0.1-9,1.6
	C28.9,37.5,27.9,37.9,27,38.3z"/>
<g>
	<path class="st1" d="M46.4,6c-0.3-0.8-1-2.2-1-2.2s-1.1,1.4-1.5,1.7c-0.8,0.7-1.4,1.6-2.1,2.4c-1.4,1.6-2.6,3.3-4,5.3
		c0.1-0.6,0.4-1.7,0.3-2.3c-3.2,4.5-6.1,9.5-8.4,14.6c-0.3-0.2-0.3-1.5-0.3-1.5s-0.6,1.7-0.7,2.1c-0.3,1.8-0.7,3.6-0.9,5.3
		c-0.2,1.8,0.1,2.9-0.7,4.5c-0.2,0.5-1,1.7-1.1,2.3c1.2-1.9,2.3-3.8,3.5-5.7l4.3-6.8c2.9-4.5,5.7-9.1,8.8-13.5
		c-2.5,4.8-5.3,9.4-8.1,13.9c-2.6,4.1-8.2,12.1-8.2,12.1s0.9-0.9,1.2-1.1c1.6-1.8,2.2-2.8,4.2-3.5c1.2-0.4,2.1-1.1,2.9-2
		c0.2-0.3,1.3-1.7,1.3-1.7s-1.1,0.6-1.7,0.5c1.8-1.3,3.5-2.5,5.1-3.8c0.4-0.3,1.6-1.6,1.6-1.6s-1.5,0.7-2,0.5
		c0.2-0.3,0.3-0.5,0.5-0.8c1.1-1.4,2.1-2.8,3.2-4.2c0.7-1,1.4-2,2.1-3.1c0.1-0.2,0.7-1,0.7-1s-0.8,0.3-1.2,0.3
		c0.9-1.4,1.6-2.8,2.2-4.2C47.2,10.3,47.3,8.2,46.4,6z"/>
</g>
</svg>
