<?xml version="1.0" encoding="utf-8"?>
<!-- Generator: Adobe Illustrator 25.0.0, SVG Export Plug-In . SVG Version: 6.00 Build 0)  -->
<svg version="1.1" id="Layer_1" xmlns="http://www.w3.org/2000/svg" xmlns:xlink="http://www.w3.org/1999/xlink" x="0px" y="0px"
	 viewBox="0 0 320 320" style="enable-background:new 0 0 320 320;" xml:space="preserve">
<style type="text/css">
	.st0{fill:#5F5F59;}
	.st1{fill:#161615;}
</style>
<g>
	<g>
		<path class="st0" d="M0,0v320h320V0H0z M306.5,192.6c0,17.4-6.8,33.9-19.1,46.2l-48.7,48.7c-12.3,12.3-28.7,19.1-46.2,19.1h-68.9
			c-17.4,0-33.9-6.8-46.2-19.1l-48.7-48.7C16.2,226.4,9.4,210,9.4,192.6v-68.9c0-17.4,6.8-33.9,19.1-46.2l48.7-48.7
			C89.6,16.3,106,9.6,123.4,9.6h68.9c17.4,0,33.9,6.8,46.2,19.1l48.7,48.7c12.3,12.3,19.1,28.7,19.1,46.2V192.6z"/>
	</g>
	<g>
		<g>
			<g>
				<path class="st1" d="M237.2,19.8c-1.5-0.7-2.6-1.8-3.1-3.3c-0.7-2.3-0.5-4.3,0.7-6.2c1.4-2.4,4.3-3.4,6-3.8
					c2.8-0.7,6.2-0.1,10,1.5c0.3,0.2,0.7,0.3,1.1,0.5c-0.7-0.8-1.6-1.6-2.5-2.4c-0.5-0.4-1-0.8-1.4-1.2l-0.6-0.5l0.8,0.2
					c1.4,0.3,2.8,0.8,3.8,1.3c1.2,0.5,2.3,1.1,3,1.6c1.3,0.9,2.4,2,3.5,3.1c-0.5-0.9-1.1-1.7-1.7-2.5c-0.2-0.3-0.4-0.5-0.6-0.8
					l-0.4-0.6l0.6,0.2c0.1,0,0.3,0.1,0.4,0.2c1.8,0.8,3.4,2.6,5,4.3c0.6,0.7,1.1,1.3,1.5,2c0.2,0.2,0.3,0.4,0.4,0.6
					c-0.5-0.9-0.9-1.8-1.1-2.4l-0.4-1l0.8,0.8c4.4,4.5,8.4,7.7,12.1,9.3c1.6,0.7,2.7,1,3.5,1.1c0.6,0.1,1.2,0.1,1.7,0.2
					c0.2,0,0.3,0,0.5,0c0.1,0,0.3,0,0.6,0c0.1,0,0.3,0,0.4,0c1.3-0.2,2.4-0.6,3.2-0.9c1.2-0.4,2-0.6,2.6-0.4
					c0.2,0.1,0.3,0.2,0.4,0.4l0.3,0.5l-0.6-0.2c-0.3-0.1-0.9,0.2-1.6,0.5c-1.8,0.9-5.2,2.5-11.5,1.9c-1.9-0.2-3.8-0.7-5.7-1.6h0
					c-2.8-1.2-5.4-3-7.9-4.8c-2.4-1.6-4.9-3.4-7.5-4.6c-0.2-0.1-0.4-0.2-0.6-0.3c-3.4-1.5-9.6-3.4-12.6,0.5c-0.5,0.7-1.3,2.2-0.8,3
					c0.2,0.3,0.6,0.6,1,0.8c0.1,0.1,0.3,0.1,0.5,0c0.1,0,0.1-0.1,0.2-0.2c-0.6-0.5-0.5-1-0.4-1.2c0.3-0.7,1.5-1.2,2.3-1.1
					c1,0.2,1.7,0.9,1.9,1.8c0.2,0.8,0,1.7-0.6,2.3C242.9,20.4,239.8,21,237.2,19.8z M250.6,8.5c-3.8-1.6-7-2.2-9.7-1.5
					c-1.5,0.4-4.3,1.3-5.7,3.6c-1.1,1.9-1.3,3.7-0.6,5.9c0.4,1.3,1.4,2.4,2.8,3c2.4,1,5.2,0.6,6.8-1.2c0.5-0.5,0.6-1.2,0.5-1.9
					c-0.2-0.8-0.8-1.3-1.5-1.5c-0.7-0.1-1.6,0.3-1.9,0.8c-0.1,0.3,0,0.6,0.4,0.8l0.1,0.1l0,0.2c-0.1,0.3-0.3,0.5-0.5,0.6
					c-0.2,0.1-0.5,0.1-0.8,0c-0.5-0.2-0.9-0.6-1.1-1c-0.8-1.1,0.3-3,0.8-3.5c3.2-4.1,9.6-2.2,13.2-0.6c0.2,0.1,0.4,0.2,0.6,0.3
					c2.7,1.3,5.2,3,7.6,4.6c2.5,1.7,5.1,3.5,7.9,4.7h0c1.9,0.8,3.7,1.3,5.6,1.5c6.2,0.6,9.4-0.9,11.3-1.9c0.4-0.2,0.8-0.4,1.1-0.5
					c-0.4,0-1.1,0.2-1.9,0.5c-0.9,0.3-2,0.6-3.3,0.9l0,0c-0.2,0-0.3,0-0.4,0c-0.3,0-0.5,0-0.6,0c-0.2,0-0.3,0-0.5,0
					c-0.6,0-1.2-0.1-1.8-0.2c-0.8-0.1-2-0.4-3.6-1.1c-3.5-1.5-7.3-4.4-11.4-8.5c0.5,1.2,1.4,2.7,2.3,3.7l-0.3,0.3
					c-1.1-0.9-1.8-1.9-2.6-3c-0.5-0.6-0.9-1.2-1.5-1.9c-1.4-1.6-2.9-3.3-4.5-4.1c0,0.1,0.1,0.1,0.1,0.2c0.6,0.8,1.1,1.6,1.7,2.6
					c0.2,0.3,0.3,0.5,0.4,0.8c0.3,0.4,0.5,0.8,0.7,1.1l-0.4,0.3c-1.4-1.6-3.1-3.4-4.9-4.7c-0.7-0.5-1.8-1.1-2.9-1.6
					c-0.7-0.3-1.8-0.7-2.9-1c0.2,0.2,0.5,0.4,0.8,0.7c1.1,0.9,2.1,1.8,2.9,2.8c0.1,0.1,0.2,0.3,0.4,0.4l0.7,0.8l-1-0.5
					C251.9,9.1,251.3,8.8,250.6,8.5z"/>
			</g>
			<g>
				<path class="st1" d="M272.9,21.9c-4.5-2-7.2-5.3-7.2-5.3l0.3-0.3c0,0,3.8,4.6,9.7,6.1c5.9,1.5,8.3,0,8.4,0l0.2,0.4
					c-0.1,0.1-2.6,1.6-8.7,0C274.7,22.6,273.8,22.3,272.9,21.9z"/>
			</g>
			<g>
				<path class="st1" d="M272,22.8c-6.5-2.8-12.1-10-12.4-10.3l0.4-0.3c0.1,0.1,8.1,10.2,15.7,11.2l-0.1,0.4
					C274.4,23.8,273.2,23.4,272,22.8z"/>
			</g>
			<g>
				<path class="st1" d="M265.9,20.6c-6.3-3.9-13.3-11.1-13.4-11.2l0.3-0.3c0.1,0.1,7,7.3,13.3,11.1L265.9,20.6z"/>
			</g>
			<path class="st1" d="M248.1,4.8c2.7,1.2,5,2.7,6.9,5c2,2.4,4.2,4.5,6.5,6.6c1.6,1.6,3.5,3.1,5.4,4.3c0.9,0.5,1.8,1,2.8,1.4
				c0.9,0.4,3.2,1.2,4.2,1.2c-2.1-0.6-4.8-2-7.2-3.9c-2-1.6-3.6-3.1-5.2-5c-1.5-1.8-3-3.8-4.7-5.3c-1.7-1.5-3.6-2.3-5.7-3.4
				C250.6,5.5,249,5,248.1,4.8z"/>
			<path class="st1" d="M256.4,7.2c0,0,1.5-0.8,10.9,10.8c0,0,4.4,3.9,8,4.6c0,0-7-0.7-13.8-9.9C261.5,12.7,258.9,9.4,256.4,7.2z"/>
			<path class="st1" d="M263,11.6c0,0,5.2,8.1,11.9,10c6.7,1.9,9.2,0.1,9.2,0.1S274.7,24.3,263,11.6z"/>
			<g>
				<path class="st1" d="M241.9,7.5c5.2-1.1,8.8,0.8,10.3,1.6l-0.7-0.5c-3-1.4-7-2.7-10.6-1.9c-2.2,0.5-4.6,1.6-5.8,3.7
					c-1.2,1.9-1.3,3.9-0.7,6c0.1,0.2,0.1,0.4,0.2,0.5C234.8,16.1,232.5,9.6,241.9,7.5z"/>
				<path class="st1" d="M252.2,9.1l1.2,0.8C253.4,10,253,9.6,252.2,9.1z"/>
			</g>
			<g>
				<path class="st1" d="M291.6,65.7c0.6-0.6,1.5-0.8,2.3-0.6c0.9,0.2,1.7,0.9,1.8,1.9c0.2,0.9-0.4,2.1-1.1,2.3
					c-0.2,0.1-0.7,0.2-1.2-0.4c-0.1,0-0.2,0.1-0.2,0.2c-0.1,0.1,0,0.3,0.1,0.5c0.2,0.4,0.5,0.8,0.8,1c0.7,0.5,2.3-0.2,3-0.8
					c3.9-3.1,2-9.2,0.5-12.6c-0.1-0.2-0.2-0.4-0.3-0.6c-1.2-2.7-2.9-5.1-4.6-7.5c-1.7-2.5-3.5-5.1-4.8-7.9l0,0
					c-0.9-2-1.4-3.8-1.6-5.7c-0.7-6.3,1-9.7,1.9-11.5c0.4-0.8,0.6-1.3,0.5-1.6l-0.2-0.6l0.5,0.3c0.2,0.1,0.3,0.2,0.4,0.4
					c0.2,0.6,0,1.4-0.4,2.6c-0.3,0.9-0.6,1.9-0.9,3.2c0,0.1,0,0.3,0,0.4c0,0.2,0,0.5,0,0.6c0,0.2,0,0.3,0,0.5c0,0.6,0.1,1.2,0.2,1.7
					c0.1,0.8,0.4,1.9,1.1,3.5c1.6,3.7,4.7,7.8,9.3,12.1l0.8,0.8l-1-0.4c-0.6-0.2-1.4-0.6-2.4-1.1c0.2,0.1,0.4,0.3,0.6,0.4
					c0.6,0.5,1.3,1,2,1.6c1.8,1.5,3.6,3.2,4.3,5c0.1,0.1,0.1,0.3,0.2,0.4l0.2,0.6l-0.6-0.4c-0.3-0.2-0.5-0.4-0.8-0.6
					c-0.8-0.6-1.6-1.1-2.5-1.7c1.1,1.1,2.3,2.3,3.1,3.5c0.5,0.8,1.1,1.9,1.6,3c0.4,0.9,1,2.4,1.3,3.8l0.1,0.8l-0.5-0.6
					c-0.4-0.4-0.8-0.9-1.2-1.4c-0.8-0.9-1.6-1.8-2.4-2.5c0.2,0.4,0.3,0.7,0.5,1.1c1.7,3.8,2.2,7.2,1.5,10c-0.4,1.6-1.4,4.5-3.8,6
					c-2,1.2-4,1.4-6.2,0.7c-1.4-0.5-2.6-1.5-3.3-3.1C289.2,70.4,289.8,67.3,291.6,65.7z M300.7,57.6l-0.5-1l0.8,0.7
					c0.1,0.1,0.3,0.2,0.4,0.4c1,0.8,1.9,1.9,2.8,2.9c0.2,0.3,0.4,0.5,0.7,0.8c-0.3-1.1-0.7-2.1-1-2.9c-0.5-1.1-1.1-2.2-1.6-2.9
					c-1.3-1.8-3.1-3.5-4.7-4.9l0.3-0.4c0.3,0.2,0.6,0.4,1.1,0.7c0.2,0.1,0.5,0.3,0.8,0.4c0.9,0.6,1.7,1.1,2.6,1.7
					c0.1,0,0.1,0.1,0.2,0.1c-0.8-1.6-2.4-3.1-4.1-4.5c-0.7-0.6-1.3-1.1-1.9-1.5c-1-0.8-2-1.5-3-2.6l0.3-0.3c1,0.9,2.6,1.8,3.7,2.3
					c-4.1-4.1-7-7.9-8.5-11.4c-0.7-1.6-1-2.8-1.1-3.6c-0.1-0.6-0.1-1.2-0.2-1.8c0-0.2,0-0.3,0-0.5c0-0.1,0-0.3,0-0.6
					c0-0.1,0-0.3,0-0.4l0,0c0.2-1.3,0.6-2.4,0.9-3.3c0.3-0.8,0.5-1.4,0.5-1.9c-0.1,0.3-0.3,0.7-0.5,1.1c-0.9,1.9-2.5,5.1-1.9,11.3
					c0.2,1.8,0.7,3.7,1.5,5.6v0c1.2,2.8,3,5.4,4.7,7.9c1.7,2.4,3.4,4.9,4.6,7.6c0.1,0.2,0.2,0.4,0.3,0.6c1.6,3.5,3.5,9.9-0.6,13.2
					c-0.6,0.4-2.4,1.5-3.5,0.8c-0.3-0.2-0.7-0.7-1-1.1c-0.1-0.3-0.2-0.6,0-0.8c0.1-0.2,0.3-0.4,0.6-0.5l0.2,0l0.1,0.1
					c0.3,0.4,0.5,0.5,0.8,0.4c0.5-0.2,0.9-1.2,0.8-1.8c-0.2-0.8-0.7-1.4-1.5-1.6c-0.7-0.1-1.4,0-1.9,0.5c-1.7,1.6-2.2,4.4-1.2,6.8
					c0.6,1.4,1.7,2.4,3,2.8c2.1,0.7,4,0.5,5.9-0.6c2.3-1.4,3.2-4.1,3.6-5.7c0.6-2.7,0.1-6-1.5-9.7C301.4,58.9,301.1,58.2,300.7,57.6
					z"/>
			</g>
			<g>
				<path class="st1" d="M288.3,37.3c2,4.5,5.3,7.2,5.3,7.2l0.3-0.3c0,0-4.6-3.8-6.1-9.7c-1.5-5.9,0-8.3,0-8.4l-0.4-0.2
					c-0.1,0.1-1.6,2.6,0,8.7C287.6,35.5,287.9,36.4,288.3,37.3z"/>
			</g>
			<g>
				<path class="st1" d="M287.4,38.2c2.8,6.5,10,12.1,10.3,12.4l0.3-0.4c-0.1-0.1-10.2-8-11.2-15.7l-0.4,0.1
					C286.4,35.8,286.8,37,287.4,38.2z"/>
			</g>
			<g>
				<path class="st1" d="M289.6,44.3c3.9,6.3,11.1,13.3,11.2,13.4l0.3-0.3c-0.1-0.1-7.3-7-11.1-13.3L289.6,44.3z"/>
			</g>
			<path class="st1" d="M305.4,62.1c-1.2-2.7-2.7-5-5-6.9c-2.4-2-4.5-4.2-6.6-6.5c-1.6-1.6-3.1-3.5-4.3-5.4c-0.5-0.9-1-1.8-1.4-2.8
				c-0.4-0.9-1.2-3.2-1.2-4.2c0.6,2.1,2,4.8,3.9,7.2c1.6,2,3.1,3.6,5,5.2c1.8,1.5,3.8,3,5.3,4.7c1.5,1.7,2.3,3.6,3.4,5.7
				C304.7,59.6,305.2,61.2,305.4,62.1z"/>
			<path class="st1" d="M303,53.8c0,0,0.9-1.5-10.8-10.9c0,0-3.9-4.4-4.6-8c0,0,0.7,7,9.9,13.8C297.5,48.7,300.8,51.3,303,53.8z"/>
			<path class="st1" d="M298.6,47.2c0,0-8.1-5.2-10-11.9c-1.9-6.7-0.2-9.2-0.2-9.2S285.9,35.5,298.6,47.2z"/>
			<g>
				<path class="st1" d="M302.7,68.3c1.1-5.2-0.8-8.8-1.6-10.3l0.5,0.7c1.4,3.1,2.7,7.1,1.9,10.6c-0.5,2.2-1.6,4.6-3.7,5.8
					c-1.9,1.2-3.9,1.3-6,0.7c-0.2-0.1-0.4-0.1-0.5-0.2C294.1,75.4,300.6,77.7,302.7,68.3z"/>
				<path class="st1" d="M301.1,58l-0.8-1.2C300.2,56.8,300.6,57.1,301.1,58z"/>
			</g>
			<path class="st1" d="M282,21.4c-0.3-2.2-4-6.6,0-7.8c3.9-1.2,3.6,4.8,3.1,6.8c-0.7,2.9-4.5,8.4-4.5,8.4S282.4,23.7,282,21.4z"/>
			<path class="st1" d="M280.9,27.6c0,0,8.4-6.9,6.5-11.1c-1.7-3.9,5.9-1.4,9-2.5L280,30.4L280.9,27.6z"/>
			<path class="st1" d="M288.7,28.9c2.2,0.5,6.3,4.4,7.8,0.5c1.4-3.8-4.6-3.9-6.7-3.5c-2.9,0.5-8.6,4.1-8.6,4.1
				S286.4,28.4,288.7,28.9z"/>
			<path class="st1" d="M282.8,29.5c0,0,6.9-8.4,11.1-6.5c3.9,1.7,1.4-5.9,2.5-9L280,30.4L282.8,29.5z"/>
		</g>
		<g>
			<g>
				<path class="st1" d="M71.3,18.6c-0.6-0.6-0.8-1.5-0.6-2.3c0.2-0.9,0.9-1.7,1.9-1.8c0.9-0.2,2.1,0.4,2.4,1.1
					c0.1,0.2,0.2,0.7-0.4,1.2c0,0.1,0.1,0.2,0.2,0.2c0.1,0.1,0.3,0,0.5,0c0.4-0.2,0.8-0.5,1-0.8c0.5-0.7-0.2-2.3-0.8-3
					c-3.1-3.9-9.2-2-12.6-0.5c-0.2,0.1-0.4,0.2-0.6,0.3c-2.7,1.2-5.1,2.9-7.5,4.6c-2.5,1.7-5.1,3.5-7.9,4.8h0
					c-1.9,0.9-3.8,1.4-5.7,1.6c-6.3,0.7-9.7-1-11.5-1.9c-0.8-0.4-1.3-0.6-1.6-0.5l-0.6,0.2l0.3-0.5c0.1-0.2,0.2-0.3,0.4-0.4
					c0.6-0.2,1.4,0,2.6,0.4c0.9,0.3,1.9,0.6,3.2,0.9c0.1,0,0.3,0,0.4,0c0.2,0,0.5,0,0.6,0c0.2,0,0.3,0,0.5,0c0.6,0,1.2-0.1,1.7-0.2
					c0.8-0.1,1.9-0.4,3.5-1.1c3.7-1.6,7.8-4.7,12.1-9.3l0.8-0.8l-0.4,1c-0.2,0.6-0.6,1.4-1.1,2.4c0.1-0.2,0.3-0.4,0.4-0.6
					c0.5-0.6,1-1.3,1.6-2c1.5-1.8,3.2-3.6,5-4.3C59,7.1,59.2,7,59.3,7L60,6.7l-0.4,0.6c-0.2,0.3-0.4,0.5-0.6,0.8
					c-0.6,0.8-1.1,1.6-1.6,2.5c1.1-1.1,2.3-2.3,3.5-3.1c0.8-0.5,1.9-1.1,3-1.6c1-0.4,2.4-1,3.8-1.3l0.8-0.2L67.9,5
					c-0.4,0.4-0.9,0.8-1.4,1.2C65.6,7,64.7,7.8,64,8.6c0.4-0.2,0.7-0.3,1.1-0.5c3.8-1.7,7.2-2.2,10-1.5c1.6,0.4,4.5,1.4,6,3.8
					c1.2,2,1.4,4,0.7,6.2c-0.5,1.4-1.5,2.6-3.1,3.3C76,21,73,20.4,71.3,18.6z M63.2,9.5l-1,0.5l0.7-0.8c0.1-0.1,0.2-0.3,0.4-0.4
					c0.8-1,1.9-1.9,2.9-2.8c0.3-0.2,0.5-0.4,0.8-0.7c-1.1,0.3-2.1,0.7-2.9,1c-1.1,0.5-2.2,1.1-2.9,1.6c-1.8,1.3-3.5,3.1-4.9,4.7
					l-0.4-0.3c0.2-0.3,0.4-0.7,0.7-1.1c0.1-0.2,0.3-0.5,0.4-0.8c0.6-0.9,1.1-1.7,1.7-2.6c0-0.1,0.1-0.1,0.1-0.2
					c-1.6,0.8-3.1,2.4-4.5,4.1c-0.6,0.7-1.1,1.3-1.5,1.9c-0.8,1-1.6,2-2.6,3l-0.3-0.3c0.9-1,1.8-2.6,2.3-3.7
					c-4.1,4.1-7.9,7-11.4,8.5c-1.6,0.7-2.8,1-3.6,1.1c-0.6,0.1-1.2,0.1-1.8,0.2c-0.2,0-0.3,0-0.5,0c-0.1,0-0.3,0-0.6,0
					c-0.1,0-0.3,0-0.4,0l0,0c-1.3-0.2-2.4-0.6-3.3-0.9c-0.8-0.3-1.4-0.5-1.9-0.5c0.3,0.1,0.7,0.3,1.1,0.5c1.9,0.9,5.1,2.5,11.3,1.9
					c1.8-0.2,3.7-0.7,5.6-1.5l0,0c2.8-1.2,5.4-3,7.9-4.7c2.4-1.7,4.9-3.4,7.6-4.6c0.2-0.1,0.4-0.2,0.6-0.3c3.5-1.5,9.9-3.5,13.2,0.6
					c0.4,0.6,1.5,2.4,0.8,3.5c-0.2,0.3-0.7,0.7-1.1,1c-0.3,0.1-0.6,0.2-0.9,0c-0.2-0.1-0.4-0.3-0.5-0.6l0-0.2l0.1-0.1
					c0.4-0.3,0.5-0.5,0.4-0.8c-0.2-0.5-1.2-0.9-1.9-0.8c-0.8,0.2-1.4,0.7-1.6,1.5c-0.1,0.7,0,1.4,0.5,1.9c1.5,1.7,4.4,2.2,6.8,1.2
					c1.4-0.6,2.4-1.7,2.8-3c0.7-2.1,0.5-4-0.6-5.9c-1.4-2.3-4.1-3.2-5.7-3.6c-2.7-0.6-6-0.1-9.7,1.5C64.5,8.8,63.9,9.1,63.2,9.5z"/>
			</g>
			<g>
				<path class="st1" d="M42.9,21.9c4.5-2,7.2-5.3,7.2-5.3l-0.3-0.3c0,0-3.8,4.6-9.7,6.1c-5.9,1.5-8.3,0-8.4,0l-0.2,0.4
					c0.1,0.1,2.6,1.6,8.7,0C41.1,22.6,42.1,22.3,42.9,21.9z"/>
			</g>
			<g>
				<path class="st1" d="M43.8,22.8c6.5-2.8,12.1-10,12.4-10.3l-0.4-0.3c-0.1,0.1-8.1,10.2-15.7,11.2l0.1,0.4
					C41.4,23.8,42.6,23.4,43.8,22.8z"/>
			</g>
			<g>
				<path class="st1" d="M49.9,20.6c6.3-3.9,13.3-11.1,13.4-11.2L63,9.1c-0.1,0.1-7,7.3-13.3,11.1L49.9,20.6z"/>
			</g>
			<path class="st1" d="M67.7,4.8c-2.7,1.2-5,2.7-6.9,5c-2,2.4-4.2,4.5-6.5,6.6c-1.6,1.6-3.5,3.1-5.4,4.3c-0.9,0.5-1.8,1-2.8,1.4
				c-0.9,0.4-3.2,1.2-4.3,1.2c2.1-0.6,4.8-2,7.2-3.9c2-1.6,3.6-3.1,5.2-5c1.5-1.8,3-3.8,4.7-5.3c1.7-1.5,3.6-2.3,5.7-3.4
				C65.2,5.5,66.8,5,67.7,4.8z"/>
			<path class="st1" d="M59.4,7.2c0,0-1.5-0.8-10.9,10.8c0,0-4.4,3.9-8,4.6c0,0,7-0.7,13.8-9.9C54.3,12.7,56.9,9.4,59.4,7.2z"/>
			<path class="st1" d="M52.8,11.6c0,0-5.2,8.1-11.9,10c-6.7,1.9-9.2,0.1-9.2,0.1S41.1,24.3,52.8,11.6z"/>
			<g>
				<path class="st1" d="M73.9,7.5c-5.2-1.1-8.8,0.8-10.3,1.6l0.7-0.5c3.1-1.4,7.1-2.7,10.6-1.9c2.2,0.5,4.6,1.6,5.8,3.7
					c1.2,1.9,1.3,3.9,0.7,6c-0.1,0.2-0.1,0.4-0.2,0.5C81,16.1,83.4,9.6,73.9,7.5z"/>
				<path class="st1" d="M63.6,9.1L62.4,10C62.4,10,62.8,9.6,63.6,9.1z"/>
			</g>
			<g>
				<path class="st1" d="M25.5,72.9c-0.7,1.5-1.8,2.6-3.3,3.1c-2.3,0.7-4.3,0.5-6.2-0.7c-2.4-1.4-3.4-4.4-3.8-6
					c-0.7-2.8-0.1-6.2,1.5-10c0.2-0.4,0.3-0.7,0.5-1.1c-0.8,0.7-1.6,1.6-2.4,2.5c-0.4,0.5-0.8,1-1.2,1.4l-0.5,0.6l0.2-0.8
					c0.3-1.4,0.8-2.8,1.2-3.8c0.5-1.2,1.1-2.3,1.6-3c0.9-1.3,2-2.4,3.1-3.5c-0.9,0.5-1.7,1.1-2.5,1.7c-0.3,0.2-0.5,0.4-0.8,0.6
					l-0.6,0.4l0.2-0.6c0-0.1,0.1-0.3,0.2-0.4c0.8-1.8,2.6-3.4,4.3-5c0.7-0.6,1.3-1.1,2-1.6c0.2-0.2,0.4-0.3,0.6-0.4
					c-0.9,0.5-1.8,0.9-2.4,1.1l-1,0.4l0.8-0.8c4.5-4.4,7.7-8.4,9.3-12.1c0.7-1.6,1-2.7,1.1-3.5c0.1-0.6,0.1-1.2,0.2-1.7
					c0-0.2,0-0.3,0-0.5c0-0.1,0-0.3,0-0.6c0-0.1,0-0.3,0-0.4c-0.2-1.3-0.6-2.4-0.9-3.2c-0.4-1.2-0.6-2-0.4-2.6
					c0.1-0.2,0.2-0.3,0.4-0.4l0.5-0.3L27,22.2c-0.1,0.3,0.2,0.9,0.5,1.6c0.9,1.8,2.5,5.2,1.9,11.5c-0.2,1.9-0.7,3.8-1.6,5.7l0,0
					c-1.2,2.8-3,5.4-4.8,7.9c-1.7,2.4-3.4,4.9-4.6,7.5c-0.1,0.2-0.2,0.4-0.3,0.6c-1.5,3.4-3.4,9.6,0.5,12.6c0.7,0.5,2.2,1.3,3,0.8
					c0.3-0.2,0.6-0.6,0.8-1c0.1-0.1,0.1-0.3,0.1-0.5c0-0.1-0.1-0.1-0.2-0.2c-0.5,0.6-1,0.5-1.2,0.4c-0.7-0.3-1.2-1.5-1.1-2.3
					c0.2-1,0.9-1.7,1.8-1.9c0.8-0.2,1.7,0,2.3,0.6C26.1,67.3,26.6,70.4,25.5,72.9z M14.1,59.6c-1.7,3.8-2.2,7-1.5,9.7
					c0.4,1.5,1.3,4.3,3.6,5.7c1.9,1.1,3.7,1.3,5.9,0.6c1.3-0.4,2.4-1.4,3-2.8c1-2.4,0.6-5.2-1.2-6.8c-0.5-0.5-1.2-0.6-1.9-0.5
					c-0.8,0.2-1.3,0.8-1.5,1.6c-0.1,0.7,0.3,1.6,0.8,1.8c0.3,0.1,0.5,0,0.8-0.4l0.1-0.1l0.2,0c0.3,0.1,0.5,0.3,0.6,0.5
					c0.1,0.2,0.1,0.5,0,0.8c-0.2,0.5-0.7,0.9-1,1.1c-1.1,0.8-3-0.3-3.5-0.8c-4.1-3.2-2.2-9.6-0.6-13.2c0.1-0.2,0.2-0.4,0.3-0.6
					c1.3-2.7,3-5.2,4.6-7.6c1.7-2.5,3.5-5.1,4.7-7.9v0c0.8-1.9,1.3-3.7,1.5-5.6c0.6-6.2-0.9-9.4-1.9-11.3c-0.2-0.4-0.4-0.8-0.5-1.1
					c0,0.4,0.2,1.1,0.5,1.9c0.3,0.9,0.6,2,0.9,3.3l0,0c0,0.2,0,0.3,0,0.4c0,0.3,0,0.5,0,0.6c0,0.2,0,0.3,0,0.5
					c0,0.6-0.1,1.2-0.2,1.8c-0.1,0.8-0.4,2-1.1,3.6c-1.5,3.5-4.4,7.3-8.5,11.4c1.2-0.5,2.7-1.4,3.7-2.3l0.3,0.3
					c-0.9,1.1-1.9,1.8-3,2.6c-0.6,0.5-1.2,1-1.9,1.5c-1.6,1.4-3.3,2.9-4.1,4.5c0.1,0,0.1-0.1,0.2-0.1c0.8-0.6,1.6-1.1,2.6-1.7
					c0.3-0.2,0.5-0.3,0.8-0.4c0.4-0.3,0.8-0.5,1.1-0.7l0.3,0.4c-1.6,1.4-3.4,3.1-4.7,4.9c-0.5,0.7-1.1,1.8-1.6,2.9
					c-0.3,0.7-0.7,1.8-1,2.9c0.2-0.2,0.4-0.5,0.7-0.8c0.9-1.1,1.8-2.1,2.8-2.9c0.1-0.1,0.3-0.2,0.4-0.4l0.8-0.7l-0.5,1
					C14.7,58.2,14.4,58.9,14.1,59.6z"/>
			</g>
			<g>
				<path class="st1" d="M27.6,37.3c-2,4.5-5.3,7.2-5.3,7.2L22,44.2c0,0,4.6-3.8,6.1-9.7c1.5-5.9,0-8.3,0-8.4l0.4-0.2
					c0.1,0.1,1.6,2.6,0,8.7C28.3,35.5,27.9,36.4,27.6,37.3z"/>
			</g>
			<g>
				<path class="st1" d="M28.5,38.2c-2.8,6.5-10,12.1-10.3,12.4l-0.3-0.4c0.1-0.1,10.2-8,11.2-15.7l0.4,0.1
					C29.4,35.8,29,37,28.5,38.2z"/>
			</g>
			<g>
				<path class="st1" d="M26.2,44.3C22.3,50.6,15.1,57.6,15,57.6l-0.3-0.3c0.1-0.1,7.3-7,11.1-13.3L26.2,44.3z"/>
			</g>
			<path class="st1" d="M10.4,62.1c1.2-2.7,2.7-5,5-6.9c2.4-2,4.5-4.2,6.6-6.5c1.6-1.6,3.1-3.5,4.3-5.4c0.6-0.9,1-1.8,1.4-2.8
				c0.4-0.9,1.2-3.2,1.2-4.2c-0.6,2.1-2,4.8-3.9,7.2c-1.6,2-3.1,3.6-5,5.2c-1.8,1.5-3.8,3-5.3,4.7c-1.5,1.7-2.3,3.6-3.4,5.7
				C11.1,59.6,10.7,61.2,10.4,62.1z"/>
			<path class="st1" d="M12.8,53.8c0,0-0.9-1.5,10.8-10.9c0,0,3.9-4.4,4.6-8c0,0-0.7,7-9.9,13.8C18.3,48.7,15,51.3,12.8,53.8z"/>
			<path class="st1" d="M17.2,47.2c0,0,8.1-5.2,10-11.9c1.9-6.7,0.2-9.2,0.2-9.2S30,35.5,17.2,47.2z"/>
			<g>
				<path class="st1" d="M13.1,68.3C12,63.1,14,59.5,14.8,58l-0.5,0.7c-1.4,3.1-2.7,7.1-1.9,10.6c0.5,2.2,1.6,4.6,3.7,5.8
					c1.9,1.2,3.9,1.3,6,0.7c0.2-0.1,0.4-0.1,0.5-0.2C21.7,75.4,15.2,77.7,13.1,68.3z"/>
				<path class="st1" d="M14.8,58l0.8-1.2C15.6,56.8,15.2,57.1,14.8,58z"/>
			</g>
			<path class="st1" d="M33.8,21.4c0.3-2.2,4-6.6,0-7.8c-3.9-1.2-3.6,4.8-3.1,6.8c0.7,2.9,4.5,8.4,4.5,8.4S33.4,23.7,33.8,21.4z"/>
			<path class="st1" d="M35,27.6c0,0-8.4-6.9-6.5-11.1c1.7-3.9-5.9-1.4-9-2.5l16.3,16.3L35,27.6z"/>
			<path class="st1" d="M27.1,28.9c-2.2,0.5-6.3,4.4-7.8,0.5c-1.5-3.8,4.6-3.9,6.7-3.5c2.9,0.5,8.6,4.1,8.6,4.1S29.5,28.4,27.1,28.9
				z"/>
			<path class="st1" d="M33,29.5c0,0-6.9-8.4-11.1-6.5c-3.9,1.7-1.4-5.9-2.5-9l16.3,16.3L33,29.5z"/>
		</g>
		<g>
			<g>
				<path class="st1" d="M78.6,296.3c1.5,0.7,2.6,1.8,3.1,3.3c0.7,2.3,0.5,4.3-0.7,6.2c-1.4,2.4-4.3,3.4-6,3.8
					c-2.8,0.7-6.2,0.1-10-1.5c-0.4-0.2-0.7-0.3-1.1-0.5c0.7,0.8,1.6,1.6,2.5,2.4c0.5,0.4,1,0.8,1.4,1.2l0.6,0.5l-0.8-0.1
					c-1.4-0.3-2.8-0.8-3.8-1.3c-1.2-0.5-2.3-1.1-3-1.6c-1.3-0.9-2.4-2-3.5-3.1c0.5,0.9,1.1,1.7,1.6,2.5c0.2,0.3,0.4,0.5,0.6,0.8
					l0.4,0.6l-0.6-0.2c-0.1,0-0.3-0.1-0.4-0.2c-1.8-0.8-3.4-2.6-5-4.3c-0.6-0.7-1.1-1.3-1.6-2c-0.2-0.2-0.3-0.4-0.4-0.6
					c0.5,0.9,0.9,1.8,1.1,2.4l0.4,1l-0.8-0.8c-4.4-4.5-8.4-7.7-12.1-9.3c-1.6-0.7-2.7-1-3.5-1.1c-0.6-0.1-1.2-0.1-1.7-0.2
					c-0.2,0-0.3,0-0.5,0c-0.1,0-0.3,0-0.6,0c-0.1,0-0.3,0-0.4,0c-1.3,0.2-2.4,0.6-3.2,0.9c-1.2,0.4-2,0.6-2.6,0.4
					c-0.2-0.1-0.3-0.2-0.4-0.4l-0.3-0.5l0.6,0.2c0.3,0.1,0.9-0.2,1.6-0.5c1.8-0.9,5.2-2.5,11.5-1.9c1.9,0.2,3.8,0.7,5.7,1.6h0
					c2.8,1.2,5.4,3,7.9,4.8c2.4,1.7,4.9,3.4,7.5,4.6c0.2,0.1,0.4,0.2,0.6,0.3c3.4,1.5,9.6,3.4,12.6-0.5c0.5-0.7,1.3-2.2,0.8-3
					c-0.2-0.3-0.6-0.6-1-0.8c-0.1-0.1-0.3-0.1-0.5-0.1c-0.1,0-0.1,0.1-0.2,0.2c0.6,0.5,0.5,1,0.4,1.2c-0.3,0.7-1.5,1.2-2.4,1.1
					c-1-0.2-1.7-0.9-1.9-1.8c-0.2-0.8,0-1.7,0.6-2.3C73,295.8,76,295.2,78.6,296.3z M65.2,307.7c3.8,1.6,7,2.2,9.7,1.5
					c1.5-0.4,4.3-1.3,5.7-3.6c1.1-1.9,1.3-3.7,0.6-5.9c-0.4-1.3-1.4-2.4-2.8-3c-2.4-1-5.2-0.6-6.8,1.2c-0.5,0.5-0.6,1.2-0.5,1.9
					c0.2,0.8,0.8,1.3,1.6,1.5c0.7,0.1,1.6-0.3,1.9-0.8c0.1-0.3,0-0.5-0.4-0.8l-0.1-0.1l0-0.2c0.1-0.3,0.3-0.5,0.5-0.6
					c0.2-0.1,0.5-0.1,0.9,0c0.5,0.2,0.9,0.7,1.1,1c0.8,1.1-0.3,3-0.8,3.5c-3.2,4.1-9.6,2.2-13.2,0.6c-0.2-0.1-0.4-0.2-0.6-0.3
					c-2.7-1.3-5.2-3-7.6-4.6c-2.5-1.7-5.1-3.5-7.9-4.7l0,0c-1.9-0.8-3.7-1.3-5.6-1.5c-6.2-0.6-9.4,0.9-11.3,1.9
					c-0.4,0.2-0.8,0.4-1.1,0.5c0.4,0,1.1-0.2,1.9-0.5c0.9-0.3,2-0.6,3.3-0.9l0,0c0.1,0,0.3,0,0.4,0c0.3,0,0.5,0,0.6,0
					c0.1,0,0.3,0,0.5,0c0.6,0,1.2,0.1,1.8,0.2c0.8,0.1,2,0.4,3.6,1.1c3.5,1.5,7.3,4.4,11.4,8.5c-0.5-1.2-1.4-2.7-2.3-3.7l0.3-0.3
					c1.1,0.9,1.8,1.9,2.6,3c0.5,0.6,0.9,1.2,1.5,1.9c1.4,1.6,2.9,3.3,4.5,4.1c0-0.1-0.1-0.1-0.1-0.2c-0.6-0.8-1.1-1.6-1.7-2.6
					c-0.2-0.3-0.3-0.5-0.4-0.8c-0.3-0.4-0.5-0.8-0.7-1.1l0.4-0.3c1.4,1.6,3.1,3.4,4.9,4.7c0.7,0.5,1.8,1.1,2.9,1.6
					c0.7,0.3,1.8,0.7,2.9,1c-0.2-0.2-0.5-0.4-0.8-0.7c-1.1-0.9-2.1-1.8-2.9-2.8c-0.1-0.1-0.2-0.3-0.4-0.4l-0.7-0.8l1,0.5
					C63.9,307.1,64.5,307.4,65.2,307.7z"/>
			</g>
			<g>
				<path class="st1" d="M42.9,294.2c4.5,2,7.2,5.3,7.2,5.3l-0.3,0.3c0,0-3.8-4.6-9.7-6.1c-5.9-1.5-8.3,0-8.4,0l-0.2-0.4
					c0.1-0.1,2.6-1.6,8.7,0C41.1,293.5,42.1,293.9,42.9,294.2z"/>
			</g>
			<g>
				<path class="st1" d="M43.8,293.3c6.5,2.8,12.1,10,12.4,10.3l-0.4,0.3c-0.1-0.1-8.1-10.2-15.7-11.2l0.1-0.4
					C41.4,292.4,42.6,292.8,43.8,293.3z"/>
			</g>
			<g>
				<path class="st1" d="M49.9,295.6c6.3,3.9,13.3,11.1,13.4,11.2l-0.3,0.3c-0.1-0.1-7-7.3-13.3-11.1L49.9,295.6z"/>
			</g>
			<path class="st1" d="M67.7,311.4c-2.7-1.2-5-2.7-6.9-5c-2-2.4-4.2-4.5-6.5-6.6c-1.6-1.6-3.5-3.1-5.4-4.3c-0.9-0.5-1.8-1-2.8-1.4
				c-0.9-0.4-3.2-1.2-4.3-1.2c2.1,0.6,4.8,2,7.2,3.9c2,1.6,3.6,3.1,5.2,5c1.5,1.8,3,3.8,4.7,5.3c1.7,1.5,3.6,2.3,5.7,3.4
				C65.2,310.7,66.8,311.2,67.7,311.4z"/>
			<path class="st1" d="M59.4,309c0,0-1.5,0.9-10.9-10.8c0,0-4.4-3.9-8-4.6c0,0,7,0.7,13.8,9.9C54.3,303.5,56.9,306.8,59.4,309z"/>
			<path class="st1" d="M52.8,304.6c0,0-5.2-8.1-11.9-10c-6.7-1.9-9.2-0.2-9.2-0.2S41.1,291.9,52.8,304.6z"/>
			<g>
				<path class="st1" d="M73.9,308.7c-5.2,1.1-8.8-0.8-10.3-1.6l0.7,0.5c3.1,1.4,7.1,2.7,10.6,1.9c2.2-0.5,4.6-1.7,5.8-3.7
					c1.2-2,1.3-3.9,0.7-6.1c-0.1-0.2-0.1-0.4-0.2-0.5C81,300.1,83.4,306.6,73.9,308.7z"/>
				<path class="st1" d="M63.6,307l-1.2-0.8C62.4,306.2,62.8,306.6,63.6,307z"/>
			</g>
			<g>
				<path class="st1" d="M24.2,250.5c-0.6,0.5-1.5,0.8-2.3,0.6c-0.9-0.2-1.7-0.9-1.8-1.9c-0.2-0.9,0.4-2.1,1.1-2.4
					c0.2-0.1,0.7-0.2,1.2,0.4c0.1-0.1,0.2-0.1,0.2-0.2c0.1-0.1,0-0.3-0.1-0.5c-0.2-0.4-0.5-0.8-0.8-1c-0.7-0.5-2.3,0.2-3,0.8
					c-3.9,3.1-2,9.2-0.5,12.6c0.1,0.2,0.2,0.4,0.3,0.6c1.2,2.6,2.9,5.1,4.6,7.5c1.7,2.5,3.5,5.1,4.8,8l0,0c0.9,2,1.4,3.8,1.6,5.7
					c0.6,6.3-1,9.7-1.9,11.5c-0.4,0.8-0.6,1.3-0.5,1.6l0.2,0.6l-0.5-0.3c-0.2-0.1-0.3-0.2-0.4-0.4c-0.2-0.6,0-1.4,0.4-2.6
					c0.3-0.9,0.6-1.9,0.9-3.2c0-0.1,0-0.3,0-0.4c0-0.2,0-0.5,0-0.6c0-0.2,0-0.3,0-0.5c0-0.6-0.1-1.2-0.2-1.7
					c-0.1-0.8-0.4-1.9-1.1-3.5c-1.6-3.7-4.7-7.8-9.3-12.1l-0.8-0.8l1,0.4c0.6,0.2,1.4,0.6,2.4,1.1c-0.2-0.1-0.4-0.3-0.6-0.4
					c-0.6-0.5-1.3-1-2-1.6c-1.8-1.5-3.6-3.2-4.3-5c-0.1-0.1-0.1-0.3-0.2-0.4l-0.2-0.6l0.6,0.4c0.3,0.2,0.5,0.4,0.8,0.6
					c0.8,0.6,1.6,1.1,2.5,1.7c-1.1-1.1-2.3-2.3-3.1-3.5c-0.5-0.8-1.1-1.8-1.6-3c-0.4-1-1-2.4-1.2-3.8l-0.2-0.8l0.5,0.6
					c0.4,0.4,0.8,0.9,1.2,1.4c0.8,0.9,1.6,1.8,2.4,2.5c-0.2-0.4-0.3-0.7-0.5-1.1c-1.7-3.8-2.2-7.2-1.5-10c0.4-1.6,1.4-4.5,3.8-6
					c2-1.2,4-1.4,6.2-0.7c1.4,0.5,2.6,1.5,3.3,3.1C26.6,245.8,26.1,248.9,24.2,250.5z M15.1,258.6l0.5,1l-0.8-0.7
					c-0.2-0.1-0.3-0.2-0.4-0.4c-1-0.8-1.9-1.9-2.8-2.9c-0.2-0.3-0.4-0.5-0.7-0.8c0.3,1.1,0.7,2.1,1,2.9c0.5,1.1,1.1,2.2,1.6,2.9
					c1.3,1.8,3.1,3.5,4.7,5l-0.3,0.4c-0.3-0.2-0.7-0.4-1.1-0.7c-0.2-0.1-0.5-0.3-0.8-0.4c-0.9-0.6-1.7-1.1-2.6-1.7
					c-0.1,0-0.1-0.1-0.2-0.1c0.8,1.6,2.4,3.1,4.1,4.5c0.7,0.6,1.3,1.1,1.9,1.5c1.1,0.8,2,1.6,3,2.6L22,272c-1-0.9-2.6-1.8-3.7-2.3
					c4.1,4.1,7,7.9,8.5,11.4c0.7,1.6,1,2.8,1.1,3.6c0.1,0.6,0.1,1.2,0.2,1.8c0,0.2,0,0.3,0,0.5c0,0.1,0,0.3,0,0.6c0,0.1,0,0.3,0,0.4
					l0,0c-0.2,1.3-0.6,2.4-0.9,3.3c-0.3,0.8-0.5,1.4-0.5,1.9c0.1-0.3,0.3-0.7,0.5-1.1c0.9-1.9,2.5-5.1,1.9-11.3
					c-0.2-1.8-0.7-3.7-1.5-5.6l0,0c-1.2-2.8-3-5.4-4.7-7.9c-1.7-2.4-3.4-4.9-4.6-7.6c-0.1-0.2-0.2-0.4-0.3-0.6
					c-1.6-3.5-3.5-9.9,0.6-13.2c0.6-0.4,2.4-1.5,3.5-0.8c0.3,0.2,0.7,0.7,1,1.1c0.1,0.3,0.2,0.6,0,0.8c-0.1,0.2-0.3,0.4-0.6,0.5
					l-0.2,0l-0.1-0.1c-0.3-0.4-0.5-0.5-0.8-0.4c-0.5,0.2-0.9,1.2-0.8,1.9c0.2,0.8,0.7,1.4,1.5,1.5c0.7,0.1,1.4,0,1.9-0.5
					c1.7-1.5,2.2-4.4,1.2-6.8c-0.6-1.4-1.7-2.4-3-2.8c-2.1-0.7-4-0.5-5.9,0.6c-2.3,1.4-3.2,4.1-3.6,5.7c-0.6,2.7-0.1,6,1.5,9.7
					C14.4,257.3,14.7,257.9,15.1,258.6z"/>
			</g>
			<g>
				<path class="st1" d="M27.6,278.9c-2-4.5-5.3-7.2-5.3-7.2L22,272c0,0,4.6,3.8,6.1,9.7c1.5,5.9,0,8.3,0,8.4l0.4,0.2
					c0.1-0.1,1.6-2.6,0-8.7C28.3,280.7,27.9,279.8,27.6,278.9z"/>
			</g>
			<g>
				<path class="st1" d="M28.5,278c-2.8-6.5-10-12.1-10.3-12.4l-0.3,0.3c0.1,0.1,10.2,8.1,11.2,15.7l0.4-0.1
					C29.4,280.4,29,279.2,28.5,278z"/>
			</g>
			<g>
				<path class="st1" d="M26.2,271.9c-3.9-6.3-11.1-13.3-11.2-13.3l-0.3,0.3c0.1,0.1,7.3,7,11.1,13.3L26.2,271.9z"/>
			</g>
			<path class="st1" d="M10.4,254.1c1.2,2.7,2.7,5,5,6.9c2.4,2,4.5,4.2,6.6,6.5c1.6,1.6,3.1,3.5,4.3,5.4c0.6,0.9,1,1.8,1.4,2.8
				c0.4,0.9,1.2,3.2,1.2,4.2c-0.6-2.1-2-4.8-3.9-7.2c-1.6-2-3.1-3.6-5-5.2c-1.8-1.4-3.8-3-5.3-4.7c-1.5-1.7-2.3-3.6-3.4-5.7
				C11.1,256.6,10.7,255,10.4,254.1z"/>
			<path class="st1" d="M12.8,262.4c0,0-0.9,1.5,10.8,10.9c0,0,3.9,4.4,4.6,8c0,0-0.7-7-9.9-13.8C18.3,267.5,15,264.9,12.8,262.4z"
				/>
			<path class="st1" d="M17.2,269c0,0,8.1,5.2,10,11.9c1.9,6.7,0.2,9.2,0.2,9.2S30,280.7,17.2,269z"/>
			<g>
				<path class="st1" d="M13.1,247.9c-1.1,5.2,0.8,8.8,1.6,10.3l-0.5-0.7c-1.4-3-2.7-7-1.9-10.6c0.5-2.2,1.6-4.6,3.7-5.8
					c1.9-1.2,3.9-1.3,6-0.7c0.2,0.1,0.4,0.1,0.5,0.2C21.7,240.8,15.2,238.5,13.1,247.9z"/>
				<path class="st1" d="M14.8,258.2l0.8,1.2C15.6,259.4,15.2,259,14.8,258.2z"/>
			</g>
			<path class="st1" d="M33.8,294.8c0.3,2.2,4,6.6,0,7.8c-3.9,1.2-3.6-4.8-3.1-6.8c0.7-2.9,4.5-8.4,4.5-8.4S33.4,292.4,33.8,294.8z"
				/>
			<path class="st1" d="M35,288.6c0,0-8.4,6.9-6.5,11.1c1.7,3.9-5.9,1.4-9,2.5l16.3-16.3L35,288.6z"/>
			<path class="st1" d="M27.1,287.3c-2.2-0.5-6.3-4.4-7.8-0.5c-1.5,3.8,4.6,3.9,6.7,3.5c2.9-0.5,8.6-4.1,8.6-4.1
				S29.5,287.8,27.1,287.3z"/>
			<path class="st1" d="M33,286.6c0,0-6.9,8.3-11.1,6.5c-3.9-1.7-1.4,5.9-2.5,9l16.3-16.3L33,286.6z"/>
		</g>
		<g>
			<g>
				<path class="st1" d="M244.5,297.6c0.6,0.6,0.8,1.5,0.6,2.3c-0.2,0.9-0.9,1.7-1.9,1.8c-0.9,0.2-2.1-0.4-2.3-1.1
					c-0.1-0.2-0.2-0.7,0.4-1.2c-0.1-0.1-0.1-0.2-0.2-0.2c-0.1-0.1-0.3,0-0.5,0.1c-0.4,0.2-0.8,0.5-1,0.8c-0.5,0.7,0.2,2.3,0.8,3
					c3.1,3.9,9.2,2,12.6,0.5c0.2-0.1,0.4-0.2,0.6-0.3c2.7-1.2,5.1-2.9,7.5-4.6c2.5-1.7,5.1-3.5,7.9-4.8l0,0c2-0.9,3.8-1.4,5.7-1.6
					c6.3-0.6,9.7,1,11.5,1.9c0.8,0.4,1.3,0.6,1.6,0.5l0.6-0.2l-0.3,0.5c-0.1,0.2-0.2,0.3-0.4,0.4c-0.6,0.2-1.4,0-2.6-0.4
					c-0.9-0.3-1.9-0.6-3.2-0.9c-0.1,0-0.3,0-0.4,0c-0.2,0-0.5,0-0.6,0c-0.2,0-0.3,0-0.5,0c-0.6,0-1.2,0.1-1.7,0.2
					c-0.8,0.1-1.9,0.4-3.5,1.1c-3.7,1.6-7.8,4.7-12.1,9.3l-0.8,0.8l0.4-1c0.2-0.6,0.6-1.4,1.1-2.4c-0.1,0.2-0.3,0.4-0.4,0.6
					c-0.5,0.6-1,1.3-1.5,2c-1.5,1.8-3.2,3.6-5,4.3c-0.1,0.1-0.3,0.1-0.4,0.2l-0.6,0.2l0.4-0.6c0.2-0.3,0.4-0.5,0.6-0.8
					c0.6-0.8,1.1-1.6,1.7-2.5c-1.1,1.1-2.3,2.3-3.5,3.1c-0.7,0.5-1.9,1.1-3,1.6c-1,0.4-2.4,1-3.8,1.3l-0.8,0.1l0.6-0.5
					c0.4-0.4,0.9-0.8,1.4-1.2c0.9-0.8,1.8-1.6,2.5-2.4c-0.4,0.2-0.7,0.3-1.1,0.5c-3.8,1.7-7.2,2.2-10,1.5c-1.6-0.4-4.5-1.4-6-3.8
					c-1.2-2-1.4-4-0.7-6.2c0.5-1.4,1.5-2.6,3.1-3.3C239.8,295.2,242.9,295.8,244.5,297.6z M252.6,306.7l1-0.5l-0.7,0.8
					c-0.1,0.2-0.2,0.3-0.4,0.4c-0.8,1-1.9,1.9-2.9,2.8c-0.3,0.2-0.5,0.4-0.8,0.7c1.1-0.3,2.1-0.7,2.9-1c1.1-0.5,2.2-1.1,2.9-1.6
					c1.8-1.3,3.5-3.1,4.9-4.7l0.4,0.3c-0.2,0.3-0.4,0.7-0.7,1.1c-0.1,0.2-0.3,0.5-0.4,0.8c-0.6,0.9-1.1,1.7-1.7,2.6
					c0,0.1-0.1,0.1-0.1,0.2c1.6-0.8,3.1-2.4,4.5-4.1c0.6-0.7,1.1-1.3,1.5-1.9c0.8-1,1.6-2,2.6-3l0.3,0.3c-0.9,1-1.8,2.6-2.3,3.7
					c4.1-4.1,7.9-7,11.4-8.5c1.6-0.7,2.8-1,3.6-1.1c0.6-0.1,1.2-0.1,1.8-0.2c0.2,0,0.3,0,0.5,0c0.1,0,0.3,0,0.6,0c0.1,0,0.3,0,0.4,0
					l0,0c1.3,0.2,2.4,0.6,3.3,0.9c0.8,0.3,1.4,0.5,1.9,0.5c-0.3-0.1-0.7-0.3-1.1-0.5c-1.9-0.9-5.1-2.5-11.3-1.9
					c-1.8,0.2-3.7,0.7-5.6,1.5h0c-2.8,1.2-5.4,3-7.9,4.7c-2.4,1.7-4.9,3.4-7.6,4.6c-0.2,0.1-0.4,0.2-0.6,0.3
					c-3.5,1.6-9.9,3.5-13.2-0.6c-0.4-0.6-1.5-2.4-0.8-3.5c0.2-0.3,0.7-0.7,1.1-1c0.3-0.1,0.6-0.2,0.8,0c0.2,0.1,0.4,0.3,0.5,0.6
					l0,0.2l-0.1,0.1c-0.4,0.3-0.5,0.5-0.4,0.8c0.2,0.5,1.2,0.9,1.9,0.8c0.8-0.2,1.4-0.7,1.5-1.5c0.1-0.7,0-1.4-0.5-1.9
					c-1.5-1.7-4.4-2.2-6.8-1.2c-1.4,0.6-2.4,1.7-2.8,3c-0.7,2.1-0.5,4,0.6,5.9c1.4,2.3,4.1,3.2,5.7,3.6c2.7,0.6,6,0.1,9.7-1.5
					C251.3,307.4,251.9,307.1,252.6,306.7z"/>
			</g>
			<g>
				<path class="st1" d="M272.9,294.2c-4.5,2-7.2,5.3-7.2,5.3l0.3,0.3c0,0,3.8-4.6,9.7-6.1c5.9-1.5,8.3,0,8.4,0l0.2-0.4
					c-0.1-0.1-2.6-1.6-8.7,0C274.7,293.5,273.8,293.9,272.9,294.2z"/>
			</g>
			<g>
				<path class="st1" d="M272,293.3c-6.5,2.8-12.1,10-12.4,10.3l0.4,0.3c0.1-0.1,8.1-10.2,15.7-11.2l-0.1-0.4
					C274.4,292.4,273.2,292.8,272,293.3z"/>
			</g>
			<g>
				<path class="st1" d="M265.9,295.6c-6.3,3.9-13.3,11.1-13.4,11.2l0.3,0.3c0.1-0.1,7-7.3,13.3-11.1L265.9,295.6z"/>
			</g>
			<path class="st1" d="M248.1,311.4c2.7-1.2,5-2.7,6.9-5c2-2.4,4.2-4.5,6.5-6.6c1.6-1.6,3.5-3.1,5.4-4.3c0.9-0.5,1.8-1,2.8-1.4
				c0.9-0.4,3.2-1.2,4.2-1.2c-2.1,0.6-4.8,2-7.2,3.9c-2,1.6-3.6,3.1-5.2,5c-1.5,1.8-3,3.8-4.7,5.3c-1.7,1.5-3.6,2.3-5.7,3.4
				C250.6,310.7,249,311.2,248.1,311.4z"/>
			<path class="st1" d="M256.4,309c0,0,1.5,0.9,10.9-10.8c0,0,4.4-3.9,8-4.6c0,0-7,0.7-13.8,9.9C261.5,303.5,258.9,306.8,256.4,309z
				"/>
			<path class="st1" d="M263,304.6c0,0,5.2-8.1,11.9-10c6.7-1.9,9.2-0.2,9.2-0.2S274.7,291.9,263,304.6z"/>
			<g>
				<path class="st1" d="M241.9,308.7c5.2,1.1,8.8-0.8,10.3-1.6l-0.7,0.5c-3,1.4-7,2.7-10.6,1.9c-2.2-0.5-4.6-1.7-5.8-3.7
					c-1.2-2-1.3-3.9-0.7-6.1c0.1-0.2,0.1-0.4,0.2-0.5C234.8,300.1,232.5,306.6,241.9,308.7z"/>
				<path class="st1" d="M252.2,307l1.2-0.8C253.4,306.2,253,306.6,252.2,307z"/>
			</g>
			<g>
				<path class="st1" d="M290.4,243.2c0.7-1.5,1.8-2.6,3.3-3.1c2.3-0.7,4.3-0.5,6.2,0.7c2.4,1.4,3.4,4.4,3.8,6
					c0.7,2.8,0.1,6.2-1.5,10c-0.2,0.3-0.3,0.7-0.5,1.1c0.8-0.7,1.6-1.6,2.4-2.5c0.4-0.5,0.8-1,1.2-1.4l0.5-0.6l-0.1,0.8
					c-0.3,1.4-0.8,2.8-1.3,3.8c-0.5,1.2-1.1,2.3-1.6,3c-0.9,1.3-2,2.4-3.1,3.5c0.9-0.5,1.7-1.1,2.5-1.7c0.3-0.2,0.5-0.4,0.8-0.6
					l0.6-0.4l-0.2,0.6c0,0.1-0.1,0.3-0.2,0.4c-0.8,1.8-2.6,3.4-4.3,5c-0.7,0.6-1.3,1.1-2,1.6c-0.2,0.1-0.4,0.3-0.6,0.4
					c0.9-0.5,1.8-0.9,2.4-1.1l1-0.4l-0.8,0.8c-4.5,4.4-7.7,8.4-9.3,12.1c-0.7,1.6-1,2.7-1.1,3.5c-0.1,0.6-0.1,1.2-0.2,1.7
					c0,0.2,0,0.3,0,0.5c0,0.1,0,0.3,0,0.6c0,0.1,0,0.3,0,0.4c0.2,1.3,0.6,2.4,0.9,3.2c0.4,1.2,0.6,2,0.4,2.6
					c-0.1,0.2-0.2,0.3-0.4,0.4l-0.5,0.3l0.2-0.6c0.1-0.3-0.2-0.9-0.5-1.6c-0.9-1.8-2.5-5.2-1.9-11.5c0.2-1.9,0.7-3.8,1.6-5.7l0,0
					c1.2-2.8,3-5.4,4.8-8c1.6-2.4,3.4-4.9,4.6-7.5c0.1-0.2,0.2-0.4,0.3-0.6c1.5-3.4,3.4-9.6-0.5-12.6c-0.7-0.5-2.2-1.3-3-0.8
					c-0.3,0.2-0.6,0.6-0.8,1c-0.1,0.1-0.1,0.3-0.1,0.5c0,0.1,0.1,0.1,0.2,0.2c0.5-0.6,1-0.5,1.2-0.4c0.7,0.3,1.3,1.5,1.1,2.4
					c-0.2,1-0.9,1.7-1.8,1.9c-0.8,0.2-1.7-0.1-2.3-0.6C289.8,248.9,289.2,245.8,290.4,243.2z M301.7,256.6c1.7-3.8,2.2-7,1.5-9.7
					c-0.4-1.5-1.3-4.3-3.6-5.7c-1.9-1.1-3.7-1.3-5.9-0.6c-1.3,0.4-2.4,1.4-3,2.8c-1,2.4-0.6,5.2,1.2,6.8c0.5,0.5,1.2,0.6,1.9,0.5
					c0.8-0.2,1.3-0.7,1.5-1.5c0.1-0.7-0.3-1.6-0.8-1.9c-0.3-0.1-0.6,0-0.8,0.4l-0.1,0.1l-0.2,0c-0.3-0.1-0.5-0.3-0.6-0.5
					c-0.1-0.2-0.1-0.5,0-0.8c0.2-0.5,0.6-0.9,1-1.1c1.1-0.8,3,0.3,3.5,0.8c4.1,3.3,2.2,9.6,0.6,13.2c-0.1,0.2-0.2,0.4-0.3,0.6
					c-1.3,2.7-3,5.2-4.6,7.6c-1.7,2.5-3.5,5.1-4.7,7.9l0,0c-0.8,1.9-1.3,3.7-1.5,5.6c-0.6,6.2,0.9,9.4,1.9,11.3
					c0.2,0.4,0.4,0.8,0.5,1.1c0-0.4-0.2-1.1-0.5-1.9c-0.3-0.9-0.6-2-0.9-3.3l0,0c0-0.1,0-0.3,0-0.4c0-0.3,0-0.5,0-0.6
					c0-0.2,0-0.3,0-0.5c0-0.6,0.1-1.2,0.2-1.8c0.1-0.8,0.4-2,1.1-3.6c1.5-3.5,4.4-7.3,8.5-11.4c-1.2,0.5-2.7,1.4-3.7,2.3l-0.3-0.3
					c0.9-1.1,1.9-1.8,3-2.6c0.6-0.5,1.2-0.9,1.9-1.5c1.6-1.4,3.3-2.9,4.1-4.5c-0.1,0-0.1,0.1-0.2,0.1c-0.8,0.6-1.6,1.1-2.6,1.7
					c-0.3,0.2-0.5,0.3-0.8,0.4c-0.4,0.3-0.8,0.5-1.1,0.7l-0.3-0.4c1.6-1.4,3.4-3.1,4.7-5c0.5-0.7,1.1-1.8,1.6-2.9
					c0.3-0.7,0.7-1.8,1-2.9c-0.2,0.2-0.4,0.5-0.7,0.8c-0.9,1.1-1.8,2.1-2.8,2.9c-0.1,0.1-0.3,0.2-0.4,0.4l-0.8,0.7l0.5-1
					C301.1,257.9,301.4,257.3,301.7,256.6z"/>
			</g>
			<g>
				<path class="st1" d="M288.3,278.9c2-4.5,5.3-7.2,5.3-7.2l0.3,0.3c0,0-4.6,3.8-6.1,9.7c-1.5,5.9,0,8.3,0,8.4l-0.4,0.2
					c-0.1-0.1-1.6-2.6,0-8.7C287.6,280.7,287.9,279.8,288.3,278.9z"/>
			</g>
			<g>
				<path class="st1" d="M287.4,278c2.8-6.5,10-12.1,10.3-12.4l0.3,0.3c-0.1,0.1-10.2,8.1-11.2,15.7l-0.4-0.1
					C286.4,280.4,286.8,279.2,287.4,278z"/>
			</g>
			<g>
				<path class="st1" d="M289.6,271.9c3.9-6.3,11.1-13.3,11.2-13.3l0.3,0.3c-0.1,0.1-7.3,7-11.1,13.3L289.6,271.9z"/>
			</g>
			<path class="st1" d="M305.4,254.1c-1.2,2.7-2.7,5-5,6.9c-2.4,2-4.5,4.2-6.6,6.5c-1.6,1.6-3.1,3.5-4.3,5.4c-0.5,0.9-1,1.8-1.4,2.8
				c-0.4,0.9-1.2,3.2-1.2,4.2c0.6-2.1,2-4.8,3.9-7.2c1.6-2,3.1-3.6,5-5.2c1.8-1.4,3.8-3,5.3-4.7c1.5-1.7,2.3-3.6,3.4-5.7
				C304.7,256.6,305.2,255,305.4,254.1z"/>
			<path class="st1" d="M303,262.4c0,0,0.9,1.5-10.8,10.9c0,0-3.9,4.4-4.6,8c0,0,0.7-7,9.9-13.8C297.5,267.5,300.8,264.9,303,262.4z
				"/>
			<path class="st1" d="M298.6,269c0,0-8.1,5.2-10,11.9c-1.9,6.7-0.2,9.2-0.2,9.2S285.9,280.7,298.6,269z"/>
			<g>
				<path class="st1" d="M302.7,247.9c1.1,5.2-0.8,8.8-1.6,10.3l0.5-0.7c1.4-3,2.7-7,1.9-10.6c-0.5-2.2-1.6-4.6-3.7-5.8
					c-1.9-1.2-3.9-1.3-6-0.7c-0.2,0.1-0.4,0.1-0.5,0.2C294.1,240.8,300.6,238.5,302.7,247.9z"/>
				<path class="st1" d="M301.1,258.2l-0.8,1.2C300.2,259.4,300.6,259,301.1,258.2z"/>
			</g>
			<path class="st1" d="M282,294.8c-0.3,2.2-4,6.6,0,7.8c3.9,1.2,3.6-4.8,3.1-6.8c-0.7-2.9-4.5-8.4-4.5-8.4S282.4,292.4,282,294.8z"
				/>
			<path class="st1" d="M280.9,288.6c0,0,8.4,6.9,6.5,11.1c-1.7,3.9,5.9,1.4,9,2.5L280,285.8L280.9,288.6z"/>
			<path class="st1" d="M288.7,287.3c2.2-0.5,6.3-4.4,7.8-0.5c1.4,3.8-4.6,3.9-6.7,3.5c-2.9-0.5-8.6-4.1-8.6-4.1
				S286.4,287.8,288.7,287.3z"/>
			<path class="st1" d="M282.8,286.6c0,0,6.9,8.3,11.1,6.5c3.9-1.7,1.4,5.9,2.5,9L280,285.8L282.8,286.6z"/>
		</g>
	</g>
	<g>
		<path class="st1" d="M193.5,312.3h-71.1c-18.2,0-35.4-7.1-48.3-20l-50.3-50.3c-12.9-12.9-20-30.1-20-48.3v-71.1
			c0-18.2,7.1-35.4,20-48.3l50.3-50.3c12.9-12.9,30.1-20,48.3-20h71.1c18.2,0,35.4,7.1,48.3,20l50.3,50.3c12.9,12.9,20,30.1,20,48.3
			v71.1c0,18.2-7.1,35.4-20,48.3l-50.3,50.3C228.9,305.1,211.7,312.3,193.5,312.3z M122,5.6c-17.6,0-34.1,6.8-46.5,19.3L24.7,75.6
			c-12.4,12.4-19.3,29-19.3,46.5V194c0,17.6,6.8,34.1,19.3,46.5l50.8,50.8c12.4,12.4,29,19.3,46.5,19.3h71.8
			c17.6,0,34.1-6.8,46.5-19.3l50.8-50.8c12.4-12.4,19.3-29,19.3-46.5v-71.8c0-17.6-6.8-34.1-19.3-46.5l-50.8-50.8
			c-12.4-12.4-29-19.3-46.5-19.3H122z"/>
	</g>
</g>
</svg>
