<?xml version="1.0" encoding="utf-8"?>
<!-- Generator: Adobe Illustrator 25.2.1, SVG Export Plug-In . SVG Version: 6.00 Build 0)  -->
<svg version="1.1" id="Layer_1" xmlns="http://www.w3.org/2000/svg" xmlns:xlink="http://www.w3.org/1999/xlink" x="0px" y="0px"
	 viewBox="0 0 749.3 377.5" style="enable-background:new 0 0 749.3 377.5;" xml:space="preserve">
<style type="text/css">
	.st0{opacity:0.5;}
	.st1{fill:#FFFFFF;}
	.st2{opacity:0.5;fill:#FFFFFF;}
</style>
<g class="st0">
	<path class="st1" d="M330.3,71.1c0.4-1.8-2.2-6.6,2.3-5.2c3.1-1.5,18.7,1.9,10.5-3.5c-8.2-8.4-21.4-0.1-31.2,0.7
		c-4.6,0.8-11.2,1-14.5,3.9c2.7,1.4,7.3-0.2,9.3,3.9c-14.9-1.4-8.6,9.9-20.3,7c-4.7,9.2,7.2,2.2,7.6,6.6c-2.5,0.7-4.6,0.5-3.8,4.2
		c1.5,1.7,4.5-2.5,3.8,1.9c2.2-3,6.6-1.2,7.3-4.7c2.3-0.4,7.2,0.9,9-2.9c0.5-0.4,1.8-0.4,1.2-1.4c-0.6-0.9-2.3,1.7-3.6-1.1
		c0-1.5,3-0.4,1.7-3c-1.8-2-1.9-4.8-3-6.7C314.1,69.2,323.3,71,330.3,71.1z M61.4,196.5c2.3-6.8-4.6,1.5-7.1,3.5
		c2.7-1.3,3.9,1.4,3.6,3.8c3.9-2.1,7.4-4,11.7-4c0.5-1.4-1.4-2.3-2.7-2.5c-1.8,0-1-3.7,0.6-1.7c1.1,1,1.1,0,1.1-0.9
		c-1.1-5.7,6-3.2,1.6,0.2c2.3-1.1,28.5-1,21.2,1.4c-3.9-0.7-7,2.1-9.5,4.2c2.1,2.8-4.3,1.6-0.8,3.1c7.5,0.1,14.3-2.4,21.8-4.8
		c4.5,0.2,5.9-6.6,10-4.6c-0.3-1.4-2.8-0.6-2-1.5c1-1.2-0.5-4.1,2.6-3.7c1.8,0.3,1.9-2.9,0.2-3c-2.4,0.4-2.4-6.2-4.3-2.2
		c-0.6,7.5-8.7,0.7-13,2.9c-2,1.8-3.1-1.8-0.8-1.8c3.1,0.3,3-2.5,4.1-4.1c0.4-1-1.8-0.6-1-1.8c9.9-5.7-5.3,0.7-6.7-2.9
		c-1.1,0.5-0.5,1.8-1.2,2.5c-4.1,0.3-3.8,6.2-7.5,3.9c-1.4,0.1-4.3,0-5.9,1.6c-1.2,3-6.5,1.2-6.2,5
		C62.3,189.3,64.2,197.5,61.4,196.5z M311,117.8c-6.3,6.4-22.1-1.2-32.3,2.6c-2,1.3-3.9,1.3-5.8-0.9c1.4,2.4,0.6,3.5-1.6,3.9
		c6,3.1-1.5,4.1-5,3.3c-4.3-0.2-9.8,2.8-13.3-1.5c0.8,3.2-21.7-2.3-23.3-5.6c-9.6-3.1-4.7,2.7-7.5,6.6c-1.2-0.3-0.7-1.6-1.3-2.4
		c-1.2,0.5,0.2,1.7-0.7,2.4c-2.1,1.4,2,0.4,0.4,1.7c-1.3,1.7-3.7-2.5-3.6,0.7c-1.9,2.2-4.3-4.2-7-2.6c3.2,3.1,2.1,3.4-1.8,1.6
		c-1.7-1.3-3.1,0.6-4.3,0.5c-1.1-1.4-2.6-0.8-3.6-0.3c-12,1-5.1,3.3,1.7,3.8c3.1,3.8,9.2,3.6,13.7,2.5c3.5-0.1,4.6-5.2,7.5-2.7
		c3,2.1-3.9,1.4-2.9,3.8c1.4,14.7,14.3-3.9,21.7,2.9c6-2.8,12,0.6,17.5,0.1c3,0.4-2.3,3.5-0.3,4.4c1.3,1,1.2-1.9,1.7-1.8
		c1.6,2,7.1,1.2,5.9,4.6c7.1-1.4,15.5-3.2,22.8-8.1c0.7-0.2,1.7-0.9,1.1-2.3c-1.4-4.8,7.4-2.4,6.1-7.5
		C303.5,130.5,329.2,119.9,311,117.8z M592.5,132.9c5.1-1.2,9.2,6.9,12-0.8c0.4-1.2-0.7-0.7-1.3-0.8c-0.2-2.7,2.6-2.6,3.1-0.4
		c2.3-1.5-2.7-2.4,0.1-4c-1.7,0.6-2.9,1.9-4.6,1.1c-5.5-4.7,15.9-1,6.7-6.5c-16-9.4-38.7-0.5-57.5,1.5c1.2,5.5-11.8-2.5-17,1.4
		c-2.3-0.3-3.9,0.9-5.7,1.7c-1-2.2-1.2-0.1-1.3,0.3c-0.3,3.5-6.3,0.3-7.6,4c-2.1,3.5-3.6-2.6-4.4,1.4c9.2,7.8,13.7,6,25,4.3
		c6.1-3.3,7.9,6,3.2,3.4c-0.9-0.9-2.1,0.1-2.4,0c1.9-0.1,4.1,7.7,0.5,6.1c-3.3-2.1-7,0.8-10.4-0.1c0.6-2.1-1-0.9-1.6-1.1
		c-0.9-0.2-1.8,0-2.8,0c1.2,3.9-7.4,2.1-10,3c-3.2,0.1-2.5-0.9-2.4,2c-0.9,1-2-0.4-3-0.4c-2.4,2.1-4.1-1.3-6.4-0.7
		c1.1,2.1,3,3,0.7,5.1c-1.6,3-4.1-2.5-5.7,0.2c-0.5,1,7.7,6.4,8.6,5.1c2-1.3,6.4,3.7,4.5-0.9c1.9-1.1,6,4.2,6.3-0.3
		c0-0.5,0.4-1,1-0.7c5.5,2.7,13.8-0.4,18.6,2.2c2-1.2,3.4,1.2,5.1,0.5c3.5-2.6,7.1,2.1,10.1-0.2c1.6-0.2,7.4,4.6,7,0.1
		c-0.5-1,0.4-0.9,0.7-1.2c5.4,1.3,3.1-11.1,10.7-7.3c2.3,5.4,19,4.7,14.4-2.4c-2.6-1.7-7.7-0.5-9.2-3.3c-2-1.7-4.8-1-6.2-2
		c-3.2,4.5-13.7-6.3-2.9-3.3c1.3,0.4,1.3,1.1,0.5,3.5c3.2-5.4,8.9-0.8,12.5-4.1c-1.7,1.5-4.4-0.5-1.8-1c2,0.3,3.8-1.3,5.6-1.4
		c-0.7-4,5.9-0.8,8.5-1.7c-4.5-0.4-8-4.6-11.6-2.7c-1.3-0.1-0.5-2.7-2.5-1.6c-4.5-0.6-8.8-2.6-13.8-2c-3,0.2-1.5-1.9-1.4-3.9
		c1-0.4,2.3,1.7,3,0.7c-0.5-2.9,5.8-1.4,3.5,0.3c5.5,1.3,21.5-2.6,26.3,5C590.2,129.1,596,130.3,592.5,132.9z M499.6,170.7
		c0.2-1,2.1,1,1.6-1.1c-0.3-0.6,4-4.7,0.7-2.3c-2.7,2.2-6.4-1.6-9.8-0.2c-3.4,0.9-4.3-1.9-6.5-3.3c-3.8,1.5-7.4-5-10.2-0.6
		c-0.8,1.3-2-0.7-3.8,0.7c-12.9-5.4,4.5,0.8-4.3-9.8c-1.3-0.1-4.7,1-5.1-1.3c0.4-1.9,3.9-0.3,2.6-3.3c-2.1-2.7,8.6-2.3,4.5-4.2
		c-1,0.3-1.8,0.5-1.7-1.1c-1.8-0.7-5.5-1.9-7.7-0.3c-9.8,1.1-20.1,1.2-26.6,9.9c-2,1.5-14.5,0.9-10.7,4.6c0.7,0.5,0.5,1.9-0.7,1.4
		c-3.1-1.7-2.9,5.4-1.2,4.5c2.5-2.5,4.1,0.2,5.8,1.2c1.3,2.4,6.4,0.6,4.8,4.7c-3.4,4.8-10.8,2.8-14.4,7.2c2.2,4.4-0.6,0.6-1.5,2.3
		c-0.4,1.6,1.1,1.3,1.9,1.6c1.5,3.4,5.1,2.2,7.3,3.6c2.7,0.2,5.4,1.3,7.3,0.2c11.7,3.4,24.3,4.4,36.4,6.7c2.9,0.7,6.7-1.3,8.9-0.6
		c1.3,0.9,2.5,1.4,4.5,0.6c1.5-0.7,3.5-2.4,5.5-0.7c5.8-2.2,13.4-1.5,6.5-9c2.9-3,11.5,0.6,12.9-3.8c-4.4-3.8-5.9-1.3-10.3-7.3
		C498.7,168.8,497.8,168.8,499.6,170.7z M345.8,155.5c1-3.6-13.4-1.2-7.7-4.4c5.2-2.3,10.4-1.4,16-0.3c-2.4-4.4,5.5-3.4,2.2-6.2
		c-2.1,0.4-1.5-3.3-3.3-2c-1.9,0.6-10.1-1.6-6.4-3.3c3.6-1.4,9.2-0.1,10.5-4.2c0.6-1,2.9,0,3-1.6c-3.7-2.4-8.3-6.7-13.7-4.6
		c-0.5,0.1-1.2,0.6-1.4,0.3c-0.8-2.1-2.7,0.5-3.6-0.9c-0.6,3.1-6.8,1.4-6.1,6.2c0.2,1.3-1.9,2.2-3.4,2.3c-2.2-0.5-4.3,1.8-6.1,1.3
		c-1.1-1.4-6.8-2.8-7.4-1.2c0,0.9-0.3,2.5,1.3,2.5c2,0.6,3.3,4.6,1.1,4.6c-2.6-2.7-3,3.5-5.7,1c-1.8-1.5-5.2,4.7-9.1,2.4
		c-4.4-1.1-8.7,3.1-13.3,1.3c-0.6,1.3,2.6,2.6-0.2,3.1c-5.6,1.8,5.4,9.2,8.6,8.3c3.4-1.7,31.6-3.9,25.6,1.4c1.3,6.3-6.4,2.1-7.4,6.2
		c0.9,2.1,6.3,2,7.3-0.7c3.3,0.1,8.4,0.8,11.2,4.3c-0.7-2.6,0.9-2.9,2.2-3.3c3.9-1.2-3.9-3.3,1.3-5.9c1.3-0.9,3-1.3,2.8-3.6
		c-0.2-3.3,10.3-0.4,5.6-2.4c-0.1-0.9,1.3-0.4,1.2-1.7C349.1,154.4,347.5,156.1,345.8,155.5z M637.6,179.5c-0.1,0.5,0.5,0.6,1,0.3
		c1.8,0.2-0.5-3.4,1.9-1.9c1.4,0.2,5.4,2.5,4.2-0.6c-0.9-1-0.1-3.4-1.5-3.2c-4.8,0.7-1-1.5-0.9-2.4c-0.8-0.6-1.1,0.5-1.6,0.6
		c-2.9,2.4-2.2-4.1-5.3-1.5c-2.6,1.7-6.3,0.2-9.2,0.8c-0.7-1.2,1.6-1,0.7-2c-0.6-0.7-1.4-0.1-2,0.2c-1.9,1.5-2.2-1.7-0.2-1.7
		c1.1,0,2.3,0.3,3.5-0.6c-1.2-1.1-4.3-0.3-4-2.5c1.6-0.4,2.9,2.1,5,0.3c2.9-2.6,6.6-0.7,10.1-2.9c5,2.3,13.4,0.8,19.6-0.9
		c2.6-3.6,9.7,1.1,11.1-4.3c-1.3-0.3-12.3-8.3-6-7.9c-6.2-5-4.4,1.4-7.3-1.3c-2.3-2.7-5.6,2.4-6.3-2.4c-2.6,7.4-6.2,2-6.8,5.8
		c0.1,3.2-1.5,0-3.3,1.1c-4.1,0.6-11.5,0.8-14.2-2.3c-8.8-4.2-34.3,1.1-12.8,4c0.9-0.3,2.4-0.1,2.9,0.8c-0.1,1.8-4.4,2-1.7,4.3
		c0.8,0.9-1.6,1.6-2,0.8c-1.8-1.3-2,3.4-4.8,2.2c-3.1,0.8-2.6,5.3-6.3,5.7c-2.6,4.1-10.8,2.1-8.5-3c-2.7-2.2-5.5,1.7-8.6,0
		c-3.8,0,7,4.4,5.6,7c0.3,4,4.4,1,6.5,2.8c5.1,2.3,7.8-4.1,12.4-3.9c4.1-1.7,8.1-1.5,12.2-2.5c2.1,0.7,1.8,7.7-0.9,3
		c-0.1-0.6-0.5-0.6-0.9-0.4c-0.9,0.2-1.2,2.4-0.1,2.5c6.4,6.4,8.7,5.9,17.2,7.4C634.5,178.9,637.6,176.6,637.6,179.5z M462.4,70.8
		c-3.3,0.5-3.3,0.5-2.3,3.2c-1.4-0.6-1.6-1-1.5-2.9c0.4-3.9,4,0.1,3.1-5.1c2.9,1.4,6.9-0.1,10.7,0.1c5.3,0.3,0.6-3.4,4.1-3.7
		c7.4-5.3-12.7-1.1-14.8-0.6c1.6,2.6-0.3,1.4-2.8,2.4c-6.8-4.4-13.2,0.4-20.7,0.5c-3.6,1.7-27.3-1.6-19.8,5.4c3.3-0.2,3.3,3.4,5,5.8
		c1.8,3.3,9.2-1,7.6,3.8c0.6,0.8,1.1,0.3,1.7,0c1.9-0.9,2.4,2.5,0.3,1.7c-2.5-0.4-3.8,1.4-5.3,2.7c-2.8,0.9,12.8,8.5,14.7,6.6
		c2.4-0.4,2.9-3.3,5.4-2.7c0.8-1.4-2.8-5.4,1.6-4.6c3.9-1.4,7.8-0.8,11-2.8C453.7,83.1,462,73.7,462.4,70.8z M501.3,86.4
		c-1.1-1.2,2-1.4,0.9-3.2c-0.4-1.1,1.4-0.1,1.9-0.5c-0.1-2.4-3.2-5.4-5-2.6c-1.9,1-4.5-0.9-6.8,0.3c-1.6,0.6-1.9-1-1.9-2.3
		c0.9-0.4,2,0.7,2.6-0.5c0-2.8-2.8-1-4.1-1.6c-4.2-3.2-10.5,0-15.2,1.2c2.4,5.7,12-0.3,14.3,6.1c-0.7,3.4-8.7,0-10.7,4
		c-0.5,2.8,6.1,1.4,6.7,3.8c-6.2,7.5-22.5-2.9-25.1,7.1c0.5,0.8,0.7,2.4,2.5,1.9c2.9-0.9,1.3,5.3,4.2,3c4-3,7.5,3.2,11.5,0.6
		c1.6-0.9,3.1,1.3,1.1,2.3c-0.5,1.7-3.8,1.3-3.3,3c2.5,1,8.2-3.6,9,2.3c3.3-3.6,9-0.7,12.6-4.5c1.3,0.7-1.1,1.7,0.3,2.3
		c2,0.7,0.6-4.3,2.9-1.3c3.7-4.1-10.9-4.6-13.6-6.5c-0.6-1.6,2.4-0.1,1.7-2.1c-0.7-2.1,0.7-1.7,1.9-1.2c8.1,0.7,16.4-3.1,24-4.8
		C508.4,84.8,508.5,88.6,501.3,86.4z M387.2,142.1c-1.4,0-0.1-2.9-2.3-1.5c-0.1-0.3-0.4-0.6-0.4-0.8c0-3.9-4.8,2.8-7.4-0.5
		c0,1.3,0.4,1.7,1.5,1.9c3.8-0.5,3,5,4.6,3.5c3.2-2.7,3.7,3.7,9.2,3.7c-0.7,1.1-1.2,1.8,0.6,1.5c9.7-0.1,22.8,5.3,30-3.1
		c1,2.8,1.5,1.4,3.1,0c3.2,0.6,6.9-1.8,9-3.8c1.2-2.8,1.3,1.3,2.9,0.1c0.4-2.5,4.1-0.7,4.5-3.3c1.4-0.3,0.9,2.4,2.7,0.9
		c2.8-8,1.8-4.1-4-10.1c-6.5-1.4-16.5-7.2-22.3-0.1c-2.9,3.1,3.6,3.3,1.5,5.3c-2.3,3.3-5.1,4.7-8.5,7c-1.5-0.6-1.9-1.3-3.7-1
		c-3.6-0.3-6.2,0.3-9.7-1.7c-3.5,2.4-4.3-2.3-7.5-3C393.3,140.8,386.6,138.2,387.2,142.1z M255.2,94.8c-1.2-2.7-2.8-0.9-4.2-0.4
		c-3.2,2-4.5-1.6-1.2-3.1c3.5-2-9.9-4.9-13.1-2.8c-11.3,0.8-23.8,2.8-33.8,8.6c-3.7,5.5-2.8-1.5-5.3,6c-1.7,0.5-3.9,0.3-4.4-0.8
		c-2.2,2-2.2-0.6-3.1-1.7c0.9,2.8-3.2,4.8-4.7,1.4c-0.3,1.2,0.5,2.9-1.7,2c-1.2-0.9-11.7,2.2-7.9,3.9c7.8,0.4,13.7,8.9,21.8,5.4
		c2.6-0.6,1.2-4.1,2.8-6c2.6-2.1,2.7,2.9,3.3,4.5c-1.1-8.7,9.3-7.8,15.4-11.2c1.4,0.4,2.2-0.9,0.6-1.3c-0.2-2.6,6-2.6,8.3-3.3
		c3.5,0.1,6,2.3,9.2,1.2c1,0,2.3-0.9,2.1,1.2c-0.1,0.9,0.5,0.1,0.8,0c7.8-1.3,15,3.5,22.7,2.7c3.8-0.8,8.3-0.3,4.6-5.1
		c-2.5-1.5-9.1,1.6-11.2-0.2C258.6,94.7,256.2,95,255.2,94.8z M249.1,162.3c-3.4,0.3-3.7,5.1-4.3,0.6c-5.5-1.2-11.6,1.5-15.8,4.6
		c2.3,2.4,7.3,1.2,9.7,4.1c5.6,0.5,8.4,3,14,3.5c-5.8,3.6,4.2,5.5,6.3,7.6c4.4,2.3,10.8,0.2,14.6-2.7c1.4-0.9,3-0.5,4.6,0.4
		c0.1-1.4,0.9-5.1-1.9-3.7c-4.2,0.2-0.6-2.3,0.7-3.4c1.8-1.3,4.7,4.4,5.1-0.7c-0.4-1,3.7-3.3,0.7-2.5c-3.2,2.1,0.4-4-3-3.7
		c-2.9-1.9-1.9,1.6-4.1,1.8c-1.4-0.8-1.8,1.4-0.3,1.5c9.8,2.5-5.2,1-7.9-0.8c-5-0.8-19.2,9.2-17.4-2.3c4.7-2.1,11.4,0.6,16.4-2.3
		c1.2-1.8,5.5,0.8,5.5-3c-2.5-4.4-11.8,2.4-16.3-1.4C257.5,163,250.9,161.2,249.1,162.3z M394.2,48.9c-1.5,2.3-0.5,2.3,1.1,2.3
		c3.3-0.7,4.5,5,7.1,3c9.8-4.8-5.1-6.5,3.2-7.5c3.5,1,3-2.7,5.2-3.6c0.8,0,1.4,0,1.1-1c-2.4-1.6-7.5,0-10.9-0.8
		c-3.8,0.1-5.1,4.9-8.9,3.1c-1.8-1.4-1.8-4.5-5.4-3.6c-4.5,1.4-6.6-3.8-10.8-2.9c-4.8-2,3.4-0.9,2-4.2c-0.3-2.7,0.3-2.8-2.8-3.3
		c-5-1.9-7.4,2.4-11.6,4c-0.8,0.5-1.5-0.1-1.6-0.6c-0.3-2.1-4.4-1.6-4.4,0.1c5.3,3.3,16.3,4.3,16.5,11.9
		C363.5,49.4,391.3,55,394.2,48.9z M100,118.6c0.5-1-1.6-2.2,0.6-2.7c4-1.1,2.3-2.7-1.2-2.2c-1.7,0.8-1.4-1.8-0.1-1.4
		c1.7,0.9,3.6-1.7,5.2,0.4c0.4,0.3,3.5,0.1,2.8-1.2c-3.2,1.4-3.8-0.3-0.9-2.8c1.7-0.7,0.7-3.9,3.8-3.7c5,0.7,8.9-3.1,13.6-1.4
		c1,0.2,5.7,1,4-1.2c0.2-3.3,4.5,2,5.5-1.9c-6.1,0.8-11.3-5.9-15,1.2c-1.7,0.5-1.9-0.8-0.2-1.2c-4.2-0.1-8.6,1.4-13,1.7
		c-8.2,5.2-22.5-1.6-28.2,8.2c-0.5,1.5-4.2,0.3-1.5,3.1c4.2,5.9,19.2-6.8,19.5,1.3c-1.4,2.2,1.9,1.9,2.8,2.8
		C94.8,120.5,97.9,120.3,100,118.6z M698.3,157.8c-1.3,1,2.1,3.2-2.3,3.8c-6.1-3.9-12.6,0.1-18.5-2.3c0.5,1.6,4.3,1.7,1.2,2.8
		c-8.2-0.4-5.5,1.2-1.5,5.4c2.4,0.9,6.6-0.2,8.2,2.6c7.4,5.9,16.9-0.6,23.2-4.2C707.1,162.8,703,155.3,698.3,157.8z M161.7,190
		c13.2-6.1-24.5,3-26.8,3.9c-5.5,1.1-0.2,6.9,1.2,9.3c0,0.8-2,1.4-0.7,2.1c9.4,1.4,20.8-3.9,24.4-11.2
		C153.4,193.1,162.1,193.4,161.7,190z M232.2,40.5c-1.4-4.9-10.2-0.8-14-0.4c-1.7,0.1-8.1,1.1-6.2-2c-1.3-0.2-2.7,0-3.9-0.8
		c-10.1-0.6-17.5,3.2-2.7,6.1c4,3.4-2.9,2.9-2.9,5.6c1.5,2.5,6.1,3.6,9,3.8c2.3-0.7,7.3-2.2,2-3C218,43.8,227.2,45.7,232.2,40.5z
		 M402.8,79.2c-10.9-5.7-25,0.6-35.9,3.1c-1.4-0.3-1.3,1.7-0.4,2.3c6.3,9.6,7.5,0.5,15.4,1c4-2.8,8.1-0.5,12.5-2.9
		c0.4-0.3,0.8-1.1,1.6-0.2c2.4,2.3,10.8,0.4,8.3-4C403.9,79.6,403.5,80.9,402.8,79.2z M318.5,26.6c0.8,3.7-0.4,6.7,4.4,7.3
		c2.3,0.9,0.4,5,3.3,3.6c3.9,0.1,7.4,2.7,11.6,1.5c3.1-1.1,9.9,1.7,10.3-2.7c-1.9-5.3-20,0.3-14.8-8.8
		C328.7,26.5,322.7,24,318.5,26.6z M276.1,26.1c-1.6,2-5.9,2.5-8.6,3.3c-1.5,0.8-2.7-2.2-3.6-0.5c-1.4,3,3.6,3.7,5.8,3.8
		c9,6,21.9,4.2,32.5,0.8c-1.9-4.5-31.7-2.1-22.9-9.4C276.1,24.2,272.1,23.6,276.1,26.1z M394.8,93.5c-2.1-0.3,1-2.3-2.2-2
		c-14,0.5,3.2,10.1,9.9,7.6c4.2-1.4,9.3,1.5,12.8-1.4c0.5-0.5,2-2.9,3.3-0.2c3.4-0.4-1.7-2.9-3.1-2.9
		C408.6,94.7,401.9,93,394.8,93.5z M248.6,44c3.4,1.3,4.2,3,8.6,1.6c3.3,0.9,4-2.2,7.1-2.4c-1.8-2-8.7,0.6-5.4-3.7
		c0.1-2.8,6.4,0,4-3.1c-0.4-0.1-0.8-1.6-1.3,0c-1.7,0.2-4.1-0.9-6.1,0.2c-4.8,1.9-11.6-2.7-15.3,1.5c-1.1,2.7,4.7,1.6-0.8,3.4
		C243.5,43.1,245.4,39.8,248.6,44z M451.9,26.7c2.8,5.9,29.3,0.4,17.9,0.9C483.5,20,448.6,18,451.9,26.7z M245.3,28.4
		c2.1,4,16.1,2.6,16.8-1.6c-2.6-9.3-35.2-2.8-19.6-0.6C243.7,26.4,245.6,25.4,245.3,28.4z M347.7,85.9c8.5,2.3,14.4-1.9,19.4-8.2
		c1.5-5-11.3,0.9-14.9,0.3c-1.8,1.1-9.9-1.2-6.4,2.5c3.4,0.8,6.1-1.3,7.2,2.8C350.6,80.6,343.3,86.2,347.7,85.9z M715.3,216
		c0.6-0.9,1.2,0.8,2.2,0.8c0.8-2.4-3.7-1.5-1.8-4.3c-1-0.8-6.6-5-6.2-1.8c-2.5-1.2-1.4-2.9-3.3-0.4c-1.8,0-1.2-3.7-3.3-2
		c-8.9,0.7-5-4.1-10,3.9C698.7,213,709.6,219.1,715.3,216z M710.2,173.7c1.2,1.8,2.8,3.6,5.9,3.4c2,0.1,1.9,0.2,2.3,2.2
		c1.9,1.6,4.9-2.4,7.7-0.7c4.6-1.8-2.7-2.7,0.5-5.2c2.1-3-3.8-4.4-6-3.9C718.2,169.2,706.9,171.1,710.2,173.7z M197.7,158
		c5.2-9.2-15.1-2.4-19.7-2.3c-3.8,2.6,13.7,5.2,16.2,6.6C197.8,162.2,200,160.6,197.7,158z M243.4,58.7c8.7-2.9-2.1,2.8,9.1-0.2
		c-0.6-2.7,6.3-2.8,3.1-3.9c-3.1,0.8-0.6-1.3-2-2.2c-4.1-0.8-13.3-1.9-13.6,4C224.8,51.6,233.8,63.7,243.4,58.7z M392.6,164.1
		c0.6-1.8,0-1.8-1.4-1c-4.8-0.8-10.5,1.8-15.1,2.1c-1.9-4.1-3.5,2.9-4,4.3c4.7,4.2,11.3-4.2,16.7,0.2c2.1,1.6,2.7-0.6,4-1.3
		c2.3,2.4,3.7-3,1.6-4.2C394.9,166.3,392.3,166.4,392.6,164.1z M208.2,72.8c5.5-2.1,10.4,0.6,16,0.7c3,2.4,10.6-4.6,6-5.5
		c-9.4,3.4-25.2-2.2-31,6.6C201.6,71.7,205.3,74.8,208.2,72.8z M180.3,198.3c-2.9,4.7,7.1,4,9.6,3.1c0.5,1.4-1.5,4.5,2,3.1
		c1-1,4.4-0.4,4-1.5c-2.1-3.3,1.2-1.8,2.1-2.4c2.9-0.7-4.3,0-2.3-1.6c0.5-0.5,1.6-1,0.7-1.7c-1.4-0.8-1.2,3.3-2.9,1.8
		c-1.8-2.3,4.2-3.2-1.5-3.3c-3.6-3.9-5.6,2.7-9.6-2.2C182.7,196,183.6,201.4,180.3,198.3z M448,119.5c2,0.8,2.2-3.1,4.5-2
		c3.9-4.5-5.1-4.4-8.3-4.8C424.8,112.5,436.3,120.1,448,119.5z M260.7,13.3c-5.2-2-19.7-4.1-20.9,1.9c2.1,0.8,0.6,1.6-0.3,2.8
		C242,17.7,264.8,17,260.7,13.3z M259.1,72.2c3.8,0.5,12.8,0.7,13.9-2.6c-8.9-2.8-20.9,0.5-30.9,1.8C247,75.8,253.8,73.8,259.1,72.2
		z M106.1,203.6c-5.2,3.9,4.4,7.7,7.7,5c0.3-4.7,6.4-1.8,3.7-6.7c-3.2-7-5.4-0.9-9.5-1.6C110.2,203.6,104.8,200.8,106.1,203.6z
		 M455.2,55.3c-1.7,0.6-5.3,1.4-7.6-0.8c-1.3-0.2-3.5,0.7-3.8-1.7c-2.7-3.2-9.7-1.8-13,1.5C434.7,58.1,456,60.2,455.2,55.3z
		 M188.7,28.1c3.4,5.8,15,5.8,16.8-1.5c0.4-4.5,4.4,0.3,6.3-2.2C205.4,20.6,199.5,28.2,188.7,28.1z M324.9,42.9
		c0.3,1.4,1.9,0.5,3,0.4c5.2,2.2-4.2,3-3.9,5.2c0,0.6,0.6,1.1,0.9,0.5c1.7-2.3,5.2,0.2,6.8-2.5c1.3-4.4,15.7-1.9,10.4-6.1
		C336.2,42.2,329.3,38.2,324.9,42.9z M81.4,128.3c1.6,2.2,14.7,2.5,14.8-1.4c-2.6-1.1,1.6-2.5-0.8-3.1c-0.2,1.5-2-0.3-2.3,1.1
		c0,0.2-0.7,0.3-0.8-0.1c-1.8-2.6-8.8-0.6-10.5,1.8C83.1,127.5,82.1,127.7,81.4,128.3z M147,104.1c2.9,2.1,5.4-1.4,8.4-0.7
		c5.1-3.4-8.5-4.6-11.3-3.9c-2.8-0.2-1.9,2.9-2.7,4.3c-3.2,0.7-0.9-1.6-1-3C133.9,104.7,142.8,104.5,147,104.1z M139.9,75
		c-3.6-1-7.2,1.1-10.4,1.9c0.4,1.3,1.7,2.2,1.5,3.9c0.5,1.3,4.9-3.5,3.5,0.3c-2.5,2.7-5.4-0.3-8.4,0.6c-2.2,0,1.5,3.8,2.7,1.5
		c1.1-1.3,5.6,0.6,0.7,1.7c2,0.8,5.1,0,5.4,3.7c-1.9-7.7,1.1-10.5,7.2-12C141.6,75.8,138.5,78.2,139.9,75z M147.5,177.4
		c-2.2,0.5-0.7,1.8-0.5,2.7c1.2,0.7,3.9-3,2.1-4c-3.7-1.8,2.2-3.2-0.6-6.1c-2.6-3.6-3.3,4.8-6.2,2.4c-1.1-1.9-2,0-2.1,0.2
		c-0.9,3.2-2.4-0.1-3.8,0.8c-0.8,1.1,2.8,3.4,3.9,3.7C142.5,177.8,149.6,174.3,147.5,177.4z M145.9,41.2c-1.7,9.1,16.2,0.3,21.1-0.7
		C159.7,42.4,152.9,39.1,145.9,41.2z M426.2,36.1c-3.4,7,9.6,3,13.2,3.5C437.6,32.3,431.2,35.8,426.2,36.1z M157.3,302.5
		c3.4-1.9-1.1-3.1-2.4-0.9c-0.9,2.9-10.6,3.1-6.2,5.5c2.9-1.6,6.5,3.6,6.5-0.6c5.7,5.3,8.5-3.1,0.7-2.5
		C155.8,302.9,156.6,302.8,157.3,302.5z M298.9,13.1c-6-3.7-16.3-1.6-22.8,1.5C283,15.2,292.6,14.7,298.9,13.1z M400.9,182.6
		c-1.3-0.5-0.6,1.9,0.5,2c3.3,1-1.6,4,1.6,5.4c2.2,1,0.9-4.1,3-1.7c1.3,1.7,5.4-0.9,8.3-0.9c-0.5-0.9-1.4-1.1-2.1-0.6
		c-2.4,1.6-2-0.4-2.7-2.1c1.9,1.2,3.1,0.1,4.4-0.3C409,182.2,405,186.2,400.9,182.6z M59.7,152.9c0.2-2.1,0.5-1.8-1.9-2.5
		c-4.9-0.8-9.5-1.1-10,4.2C52,153.1,57.3,157.2,59.7,152.9z M352,32.7c2.3-1.5,0.3,3.3,3,2.4c7.8-7.9-22-7.6-8.8-3
		C348.3,31.4,350.3,34.5,352,32.7z M537.9,90.2c1.1-0.9,0.1-2.2,0-2.2c-2.2,1.1-3.3-2.6-5-1.2C517.9,84.8,532.1,95.6,537.9,90.2z
		 M185.9,182.5c-4.8-1.7-5.4,5.8-0.8,2.3c2.1-2,0.7,1.8,2.3,1.1c0.7-0.3,2-0.3,1.7-1.7c-0.4-1.1,1-1.6,1.6-0.7c1.2,1,7.1,1.7,7-0.7
		c-3.2-1.9-7.8-1-11.3-2.1C185.9,181.5,187.6,183.1,185.9,182.5z M168.5,53c-3.8,0.1-11.5-1.5-11.3,4.4
		C160.2,58.1,171.7,56.9,168.5,53z M127.3,193.3c0.9-1.1,5.8,2.8,3-1.6c12.3-2.5-7.4-6.3-7.4,1.9
		C125.3,192.1,125.7,196.9,127.3,193.3z M192.5,74.4c-0.6,1-2.2-1-2.4,0.8c2.5,5.9,7.9,3.1,12.8,2.8
		C198.2,77.3,196.6,71.3,192.5,74.4z M733.9,191.8c-0.5,0.5-1.7,0.8-0.6,1.6c2.1,1.4-1,3.1,0.3,4.9c1.3,0.9,3.3-0.4,5,0
		c0.6-0.1,1.4,1.3,1.8,0c0.4-1.4-1-1.2-1.7-1.6c0.5-1,1.8-0.1,2.5-1.5C737.8,195.7,736,189.9,733.9,191.8z M320.9,181.2
		c-1.7,0.3-1.8,5-4.9,3c1.7,5,4.6-3.7,6.3,1.2c0.5,1.2,3,0.8,1.7-0.4c1.3-1.9,4.5,0,6.3-2c0.9-0.6-1.7-0.5,0-2.5
		c-2.6-0.5-6.4,6.2-7,0C322.1,180.5,322.6,183.6,320.9,181.2z M283.6,64.9c-1,3.9,5.2,3.1,7.5,3c0.8-0.2-1.1-2.3,0.7-1.7
		c1.6,0.7,2.2-0.4,2.6-1.4c0.6-1.6-1.9-0.5-1.8-1.9c-2.9,2.8-1.5-0.4-3.6-0.6C289.4,67.6,285.7,64.2,283.6,64.9z M247,66.1
		c13.1-3.1-1.2-5.1-6.9-1.8C244.2,64.5,238.7,68.6,247,66.1z M80.4,211.8c-1.6-0.2-3.2,0.3-2.5,2.1c3.8-0.9,4.2-0.6,7.6,1.2
		c0.5,0,0.8,1,1.6,0.2c1.1-1.2-1.2-0.9-0.5-2.2c2.2-4-3.2-0.1-3.1-4.3C82.8,210.4,80,209.4,80.4,211.8z M403.4,30.4
		c-4.8-2.4-18,0.8-5.9,2.9C398.8,32.6,406.1,32.1,403.4,30.4z M325.9,3.6c-0.8,1.8,5.3,2.8,7.1,2.8C343.8,5.8,329.3,0.1,325.9,3.6z
		 M406.2,18.8c-1.2-5.5-20.2,0.9-7.1,0.8C401.2,19.1,405.2,20.8,406.2,18.8z M253.7,113.2c-2.8,1.3-6.9-2.1-9.2,0.2
		c-0.3,3.6,4.5,2.6,6.6,3.1C253.2,117.2,255.8,113.6,253.7,113.2z M404.7,163.2c2-2.2,4.7-3.4,7.7-2.3c5.1-0.7-4-3.5-5.2-1.8
		c-2.3,3.1-6.4,0.3-8.8,3.6C400.6,160.8,402.9,163.5,404.7,163.2z M283.1,109.7c2.8-1.3-1.9-2.6-3.1-2.5c-2.4,2.1-1.5,6.9-5.7,7
		C278.4,118.6,279,110.3,283.1,109.7z M222.1,9.1c-1.2-2.8-6.9-1.6-10.5-0.8C214.3,11.3,219.6,12.3,222.1,9.1z M449.3,6.2
		c-3.6,3,4,3.1,5.7,3.4C462,8.2,452.3,3.9,449.3,6.2z M265.2,79.9c-1.3-2.8-3.6,0.5-5.5-1.5c-0.4,3.9,2,2.7,3.9,2.4
		c0.8,2,2.6,1,3.8,1.4c2.9,1.2,2.2-5.6-1.4-3.3C270.1,79,267.2,82.6,265.2,79.9z M190.8,18.8c2.8,3.1,13.3-0.5,5.2-2.5
		C194.8,17.4,188.5,15.8,190.8,18.8z M600.8,91.5c-2.1,1.8-4.7-0.9-6.9,0.9C595.9,96.9,603.9,97.8,600.8,91.5z M180.8,148.5
		c-3.4,3.3-7.3,3.2,0.5,4.8C186.5,152.8,184,148.4,180.8,148.5z M374.3,70.1c2.7,1.6,7.3-0.4,10.6-0.3
		C382.4,66.8,375.8,66.4,374.3,70.1z M142.5,275.5c6.6,7.8,11-1.1,1.6-2.3C147.1,274.9,145.6,276.9,142.5,275.5z M546.2,25.7
		c-2.1,3.6,6.4,3.4,8.6,2.2C552.3,24.9,549,26.4,546.2,25.7z"/>
	<path class="st1" d="M75.9,1.1c-5.3,3.7,7.3,12.7,4.7,6.3c-1.6-0.8-4.3-2.5-2.8-4.6c2.4-2.4,6.8,3.4,9.2-0.1C95-4.9,110.7,0,120,0
		c0,2-10.1,4.2-2.8,5.8c2.8,0.6,4.8-1.2,7.1-2.3c-1.1-0.9-3.5-0.3-3.3-2.1c0.3-1.9,2.6-0.7,3.9-1.2c3.1-0.6,2.7,0.7,1.7,2.7
		c2.4,1.1,6.2-0.6,8,0.8C134.7,6,139.8,7,137,9c-2.2,1.7,2.4,2.1,1.9,3.6c-1.3,2.7-11.2,1.6-7.5,5c-2,4.7-3.2-2.1-5.6,0.1
		c-18.1,6.7-35.4,3.1-54.1,1c-5.7-3-22.3,1.8-8.1,2.4c-6.7,3.8-16.6-1.5-24.7,0.3c-6,0.6,0.8-2.5,1.3-4.2c-2.3-6.6-9.6,2.2-13.2-1.8
		C34,11,42.3,14,48.3,8.8c5.9,0.6,7.3-4.7,8.8-3.2c0.9,1.1,2.1-0.4,2.1-1.4C56.5,0.8,50.3,7,47.6,5c0.4-3.5-3.2-0.7-5.2-1.8
		c4.1-5.6,15.4,1.4,21.8-4.4C72.8-1.3,99.7-1.5,75.9,1.1z M102.3,15.5c1.1,2.3,13.5,4.1,17.2,1.2c0-1.7-2.9-0.1-3-1.8
		c-0.1-2,3.2-0.7,3.3-2.7c6.3-1.6,19,1.6,10-5.5c-0.1-0.7-1.1-0.2-1.1,0.4c-3.7,3.4-11.7-1.8-17.4,1c2.4,3.1,5.8,0.9,8,3.6
		C113.1,11.6,102.9,10,102.3,15.5z M65.8,10.1c-2-2.7-6.6,0-9.2,0.7C58.7,12.7,65.3,12.9,65.8,10.1z"/>
	<path class="st1" d="M-1.8,9.3c9.5-2.2,25-0.3,6.3,3.8c3.7,5.6,14.8-0.7,19.9-2.1c1.2-0.1,2.1-0.7,2.1-2c0.7-4.7,6.2-2.2,8.8-4.6
		C25.3-0.7,14.8-2-0.3-1.2C-3.7-0.4-0.9,6.3-1.8,9.3z"/>
	<path class="st1" d="M130.2-1.2c-1.4,1.2-1,2.7,0.9,1.8c9.9-1.3,18.3,5.5,26.5,7.1c8.8-2.9,18.8-4.1,26.7-8.9
		C166.2-1.2,148.2-1.2,130.2-1.2z"/>
	<path class="st1" d="M-1.8,95.3c8,1.4,18,5.1,25.3,1.9c7.6-0.6-4.4-1.3-6.6-3.5c3.7-4.9-6.3-1.8-8.5-1.5
		C4.2,92.7-3.4,88.5-1.8,95.3z"/>
	<path class="st1" d="M357.2-1.2c6.7,5.1,13.3,1.6,20,0C370.5-1.2,363.9-1.2,357.2-1.2z"/>
	<path class="st1" d="M232.4,215c9.3,1.2,46.8-7.8,16.7-6.3c-3-2.4-10.3-2.3-12.7,1.7C235.1,213.9,230.2,211.4,232.4,215z"/>
	<path class="st1" d="M386.6,249c1.6,4.1,1.1,2.7-1.4,3.7c0,3.8,5,1.6,6.5,0c2.2-1.1,0.8-3.6-1.2-3.5
		C387.2,250.5,390.7,242.7,386.6,249z"/>
	<path class="st1" d="M277.3,285.9c-1.8-8.4,7.3-4.1,10.8-7.4c0.7-1.3,1.4-1.3,2.3-0.4c1.8,1,2.5-2.8,5-2.2c0.6-5-9.1-4.5-13.1-2.9
		c-5.2,2.8-11.5,1.6-16.4,2.8c-1.6,2.6-3.5,0-0.7-1.2c-1.9-0.5-1.9-0.5-2.9,1.4c-1.8-3.8-5.6,0.1-8.5-0.5c-3.5-0.3-0.6,2.9-1.9,4
		c-2.1,0.7-1.1,1.6-0.4,2.8c3.7,2.7-1.3,6.8,1.7,6.5c5.8-3.6,15.5,3.9,19.6-1.1C273.4,286.7,275.1,284.7,277.3,285.9z"/>
	<path class="st1" d="M244.1,274c-1.1-4.2,6.7-3.3,5.8-8.8c0.4,1.2,1.1,2.8,2.6,1.2c-1.4-5.6-6.5-5.2-11.3-3.5
		c-1.5,0.9-3.4,0.9-3.7,3.6c-2.1,3.4-6,5.3-6.7,10.1c0.3,3.3,10.2-3.3,10.7,1.1c-1.4,3.7,2,2.3,3.6,1.3c-1.6-0.9-2.7-0.4-0.9-2.5
		c1.9,2.6,2.1,1.3,3.4-0.7C250.9,274.1,246.2,270,244.1,274z"/>
	<path class="st1" d="M185.8,235.1c5.1-8.9,0.3-4-0.6-7.4c-1.4-0.9-2.4,2.7-4.2,0.7c-6.3,7.5-7.2,0.2-8.4,10.9
		c2.5,5.6,3.5-6.5,7.7-3.5c1.2,0.6,2.3-1.2,3.5-0.1C184.2,233.5,184.7,230.5,185.8,235.1z"/>
	<path class="st1" d="M272.9,255.2c-1.1,4.3-7,4-9.1,8.4c-0.9,5.8,5.8,1.1,7.8,0.7c5.1,1.2,3.3-0.7,5.5-4.1
		C276.9,258.2,273.6,257.7,272.9,255.2z"/>
	<path class="st1" d="M452.9,233c2.9,1.4,11.4,4.3,13.1,2.3c1.4-2.2-1.3-8.5-3.4-5.4C463,233.9,456.4,223.8,452.9,233z"/>
	<path class="st1" d="M275.9,223.6c-1.4-2.1-3.7-1.4-5.6-1.8c-2.4,0.1,1.4,2.5,0,3.6c-3.5-0.6-17,2.3-12.3,7.8c3-4.5,6.6-2.1,7-4.5
		c2-0.4,4.3-0.3,6.2-1.4C275.1,226.5,271.1,223.9,275.9,223.6z"/>
	<path class="st1" d="M147,347.5c0.8,1.5,4,2.6,3.3,0.1c-3.7-3.1,2.4-6.2,2.2-9.5C146.7,334,139,355.4,147,347.5z"/>
	<path class="st1" d="M314,349.7c2-0.4,16.7-4.4,8.8-4.5c-1.3,3.6-3.3-2.7-5.6-0.3C312.3,344.4,305.9,349.6,314,349.7z"/>
	<path class="st1" d="M182.7,348.5c3.4,2.1,7.3,6.8,9.4,0.3c0.1-2.1-1.5-2.2-3.2-2.6c-1-0.5-2.2-2.7-3-1.3
		C184.9,346.5,183.1,346.6,182.7,348.5z"/>
	<path class="st1" d="M234.2,295.4c-0.6,4.5,0.7,1.2,2.7,2.3c1.2,1.2,2.1,1.4,2.6-0.5c0.4-1.4,2.9-1.2,2.7-3
		c-1.9-2.3-5.1-0.8-7.5-1.9C233.6,292.2,234.5,294.2,234.2,295.4z"/>
	<path class="st1" d="M36.9,73.8c4.1,1.6,3.5-3.9,7.6-1.9c7.6-2.5,16.4-1.2,23.8-0.4c2.4,1,4.3-2.8,0.8-2.3
		c2.5-3.5-8.6-0.3-11.6-2.7c-7.9-2.2-15.5,4.5-23.6,2.7c-0.9-0.2-1.5-0.5-1.4,1c-0.6,1.8-4.4,2.3-6,3c-0.6-3.4-16.7,5.7-16.7,8.1
		c2.1,1.1,5.4,0,8,0.4c3.1-0.9,5.5,4.7,9.1,1C31.7,79.2,46.8,82.9,36.9,73.8z"/>
	<path class="st1" d="M74.5,42.4c7.1-0.8,17.2-0.3,22,3.2c1.6,0,3.5,1.9,5.5,1.3c4-9.7,2.8-1.7,12.6-6.3c-3.4-0.4-6.7-5.1-9.6-2.1
		c-1.4,0.9-2.8,1.7-4.1,0c-1.4-2.2-4.3,0.2-1.5,0.9C95.6,46.6,78.5,35,74.5,42.4z"/>
	<path class="st1" d="M52.4,79.4c9.3-2.3,22.6-1.5,29.4-1.2c-2.2-5.6-12.2-1.6-17.5-1.7c-6.7,1.2-0.2-4.1-8.8-2.2
		c-2.2,0.1-3.6,1.3-4.7,3.1C47.3,77.5,50,80.1,52.4,79.4z"/>
	<path class="st1" d="M111.7,30.1c-2.8-0.4-5.9,3.7-5,5.9c2.5,0.9,3.2-3.5,6.2-1.3C117.4,35.3,116.4,29,111.7,30.1z"/>
	<path class="st1" d="M140.4,23.1c0.3,2.9,9.5,1.4,11.7,0.8c-0.5-1.4-3.4-4.6-5.1-2.2c-0.7,0.6-1.6-2.7-2,0
		C144.4,24.8,140.7,19.2,140.4,23.1z"/>
	<path class="st1" d="M7.3,46.1c3.8,0.6,6.2-3.1,3.5-4.3C6.9,41,0.1,45.4,7.3,46.1z"/>
	<path class="st1" d="M296.9,127.6c-0.2-1.1-0.3-2.4-1.9-1.1c-2.4,0.1-4.8-1.7-6.4,1.3C281.7,129.9,294.8,129.9,296.9,127.6z"/>
</g>
<path class="st2" d="M487.3,0c2.3,4.4,4.5,8.8,6.8,13.3c3.4-1,6.7-1.9,10.1-2.9c-0.9,4.8,4.6,8.7,9.6,8.7c4.9,0,9.5-2.5,14.3-3.5
	c6.8-1.5,14-0.3,20.9,0.9c8.4,1.5,16.7,3,25.1,4.5c1.8,8.5,2.7,19.4-4.7,24c-2.6,1.6-5.8,2.1-8.7,2.9c-10.3,3.1-18.3,12.6-19.7,23.2
	c5.6-3,11.2-6,16.8-8.9c2.1,4,7.8,3.9,12.3,3.2c17.8-2.7,35.7-5.4,53.5-8c1.1,4.3,1.6,8.7,1.5,13.1c19.2-3.4,27.3-30,46.5-33.7
	c-1.3,1.9-1.1,4.8,0.5,6.5c-0.5-1.3,1.3-2.3,2.6-1.8s1.9,1.8,2.4,3.1c2.6,6,5.3,12.4,4.3,18.9c-2.4,16.6-26.3,24.4-26.6,41.2
	c-20.3-2.2-41.2,1-59.9,9.2c4.8,0.8,9.7,1.7,14.5,2.5c4,8.5,13.9,13.7,23.2,12.3c-0.3,2-0.5,4-0.8,5.9c6.7,1.7,13.9,1.2,20.3-1.4
	c5.2-2.1,10.1-5.5,15.7-5.5c5.6,0,11.5,6.1,8.4,10.9c7.9,0.2,15.8-3.7,20.5-10.1c5.8,5.6,11.6,11.2,17.4,16.7
	c2.5,2.4,7.3,4.5,8.7,1.3c0.3,3.8,1.9,7.4,4.6,10.1c3.5-4.1,7.9-7.5,12.7-9.8c-4-4.5-9-8.2-14.4-10.9c6.6-5.1,15.8-6.5,23.6-3.7V0
	H487.3z"/>
</svg>
