<?xml version="1.0" encoding="utf-8"?>
<!-- Generator: Adobe Illustrator 25.2.1, SVG Export Plug-In . SVG Version: 6.00 Build 0)  -->
<svg version="1.1" id="Layer_1" xmlns="http://www.w3.org/2000/svg" xmlns:xlink="http://www.w3.org/1999/xlink" x="0px" y="0px"
	 viewBox="0 0 40 40" style="enable-background:new 0 0 40 40;" xml:space="preserve">
<style type="text/css">
	.st0{fill:#C6C5B9;}
</style>
<g>
	<path class="st0" d="M27.1,8.5c-0.2-0.6-0.7-1.6-0.7-1.6s-0.8,1-1.1,1.2c-0.6,0.5-1,1.2-1.5,1.7c-1,1.2-1.9,2.4-2.9,3.8
		c0.1-0.4,0.3-1.2,0.2-1.7c-2.3,3.2-4.4,6.8-6,10.5c-0.2-0.1-0.2-1.1-0.2-1.1s-0.4,1.2-0.5,1.5c-0.2,1.3-0.5,2.6-0.6,3.8
		c-0.1,1.3,0.1,2.1-0.5,3.2c-0.1,0.4-0.7,1.2-0.8,1.7c0.9-1.4,1.7-2.7,2.5-4.1l3.1-4.9c2.1-3.2,4.1-6.6,6.3-9.7
		c-1.8,3.5-3.8,6.8-5.8,10c-1.9,3-5.9,8.7-5.9,8.7s0.6-0.6,0.9-0.8c1.2-1.3,1.6-2,3-2.5c0.9-0.3,1.5-0.8,2.1-1.4
		c0.1-0.2,0.9-1.2,0.9-1.2S18.8,26,18.4,26c1.3-0.9,2.5-1.8,3.7-2.7c0.3-0.2,1.2-1.2,1.2-1.2s-1.1,0.5-1.4,0.4
		c0.1-0.2,0.2-0.4,0.4-0.6c0.8-1,1.5-2,2.3-3c0.5-0.7,1-1.4,1.5-2.2c0.1-0.1,0.5-0.7,0.5-0.7s-0.6,0.2-0.9,0.2c0.6-1,1.2-2,1.6-3
		C27.7,11.6,27.8,10.1,27.1,8.5z"/>
</g>
<g>
	<g>
		<path class="st0" d="M35.4,20.9c0.2-2.6-0.1-5.3-1.2-7.7c-0.5-1.2-1.2-2.4-2-3.4s-1.8-2-2.8-2.9c-2.1-1.7-4.7-2.8-7.4-3.2
			c-2.7-0.5-5.6-0.2-8.2,0.8c2.6-1.2,5.5-1.7,8.3-1.4s5.7,1.2,8.1,2.8c1.2,0.8,2.3,1.8,3.3,2.9s1.9,2.3,2.5,3.7
			c1.4,2.6,2.1,5.7,2,8.7L35.4,20.9z"/>
		<g>
			<polygon class="st0" points="40,20.7 35.8,25.7 33.6,19.5 			"/>
		</g>
	</g>
	<g>
		<path class="st0" d="M4.6,18.5c-0.3,2.6-0.1,5.3,0.9,7.7c1,2.5,2.5,4.8,4.6,6.5s4.6,3,7.3,3.5c0.3,0.1,0.7,0.1,1,0.2l1,0.1
			c0.7,0.1,1.4,0.1,2.1,0c1.4-0.1,2.8-0.3,4.1-0.8c-1.3,0.5-2.7,0.9-4.1,1.1c-0.7,0.1-1.4,0.2-2.1,0.1h-1.1c-0.4,0-0.7-0.1-1.1-0.1
			c-2.9-0.3-5.6-1.4-8-3.1C6.9,32,5,29.7,3.7,27S1.9,21.3,2,18.2L4.6,18.5z"/>
		<g>
			<polygon class="st0" points="0,18.6 4.5,13.7 6.5,20 			"/>
		</g>
	</g>
</g>
</svg>
