<?xml version="1.0" encoding="utf-8"?>
<!-- Generator: Adobe Illustrator 25.0.0, SVG Export Plug-In . SVG Version: 6.00 Build 0)  -->
<svg version="1.1" id="Layer_1" xmlns="http://www.w3.org/2000/svg" xmlns:xlink="http://www.w3.org/1999/xlink" x="0px" y="0px"
	 viewBox="0 0 40 40" style="enable-background:new 0 0 40 40;" xml:space="preserve">
<style type="text/css">
	.st0{fill:#2F5024;}
</style>
<g>
	<g>
		<path class="st0" d="M35.4,20.9c0.2-2.6-0.1-5.3-1.2-7.7c-0.5-1.2-1.2-2.4-2-3.4s-1.8-2-2.8-2.9c-2.1-1.7-4.7-2.8-7.4-3.2
			c-2.7-0.5-5.6-0.2-8.2,0.8c2.6-1.2,5.5-1.7,8.3-1.4s5.7,1.2,8.1,2.8c1.2,0.8,2.3,1.8,3.3,2.9s1.9,2.3,2.5,3.7
			c1.4,2.6,2.1,5.7,2,8.7L35.4,20.9z"/>
		<g>
			<polygon class="st0" points="40,20.7 35.8,25.7 33.6,19.5 			"/>
		</g>
	</g>
	<g>
		<path class="st0" d="M4.6,18.5c-0.3,2.6-0.1,5.3,0.9,7.7c1,2.5,2.5,4.8,4.6,6.5s4.6,3,7.3,3.5c0.3,0.1,0.7,0.1,1,0.2l1,0.1
			c0.7,0.1,1.4,0.1,2.1,0c1.4-0.1,2.8-0.3,4.1-0.8c-1.3,0.5-2.7,0.9-4.1,1.1c-0.7,0.1-1.4,0.2-2.1,0.1h-1.1c-0.4,0-0.7-0.1-1.1-0.1
			c-2.9-0.3-5.6-1.4-8-3.1C6.9,32,5,29.7,3.7,27S1.9,21.3,2,18.2L4.6,18.5z"/>
		<g>
			<polygon class="st0" points="0,18.6 4.5,13.7 6.5,20 			"/>
		</g>
	</g>
</g>
<g>
	<path class="st0" d="M29.7,12.4h-2l0,15h2.1c0.5,0,0.9-0.4,0.9-0.9V13.3C30.6,12.8,30.2,12.4,29.7,12.4z"/>
	<path class="st0" d="M10.1,12.4c-0.5,0-0.9,0.4-0.9,0.9v13.2c0,0.5,0.4,0.9,0.9,0.9h2.2v-15H10.1z"/>
	<path class="st0" d="M26.6,29c0,0.4-0.3,0.8-0.8,0.8H14.1c-0.4,0-0.8-0.3-0.8-0.8v-1.7h-1V29c0,1,0.8,1.8,1.8,1.8h11.8
		c1,0,1.8-0.8,1.8-1.8l0-1.7h-1V29z"/>
	<path class="st0" d="M13.3,10.7c0-0.4,0.3-0.8,0.8-0.8h11.7c0.4,0,0.8,0.3,0.8,0.8v1.7h1l0-1.7c-0.1-1-0.9-1.7-1.8-1.7H14.1
		c-1,0-1.8,0.8-1.8,1.8v1.7h1V10.7z"/>
	<rect x="26.6" y="12.4" class="st0" width="1" height="15"/>
	<rect x="12.3" y="12.4" class="st0" width="1" height="15"/>
</g>
</svg>
