<?xml version="1.0" encoding="utf-8"?>
<!-- Generator: Adobe Illustrator 25.2.1, SVG Export Plug-In . SVG Version: 6.00 Build 0)  -->
<svg version="1.1" id="Layer_1" xmlns="http://www.w3.org/2000/svg" xmlns:xlink="http://www.w3.org/1999/xlink" x="0px" y="0px"
	 viewBox="0 0 100 100" style="enable-background:new 0 0 100 100;" xml:space="preserve">
<style type="text/css">
	.st0{fill:#2F5024;}
	.st1{fill:none;stroke:#2F5024;stroke-width:2;stroke-linecap:round;stroke-miterlimit:10;}
</style>
<path class="st0" d="M37.7,58.3h-7.5c-0.3,0-0.5-0.2-0.5-0.5V42.2c0-0.3,0.2-0.5,0.5-0.5h7.5V58.3z"/>
<path class="st0" d="M51.8,67.7l-12.1-9.4V41.7l12.1-9.4c0.3-0.3,0.8,0,0.8,0.4v34.7C52.6,67.8,52.1,68,51.8,67.7z"/>
<path class="st1" d="M57.9,43c3.9,0,7,3.1,7,7s-3.1,7-7,7"/>
<path class="st1" d="M58.2,37.6c6.9,0,12.4,5.6,12.4,12.4S65,62.4,58.2,62.4"/>
<path class="st0" d="M24.1,83.5c-1.4-1-2.8-2-4-3.1c-0.3,0.4-0.8,0.8-1.7,0.8c-1.6,0.1-3.9-0.8-3.9-0.8s2.1-1.4,3.7-1.5
	c0.1,0,0.2,0,0.2,0c-1.3-1.3-2.5-2.6-3.6-4c-0.4,0.3-1,0.6-1.9,0.4c-1.6-0.3-3.6-1.8-3.6-1.8s2.4-0.8,4-0.6c0.1,0,0.1,0,0.2,0
	c-1.1-1.6-2-3.2-2.7-4.8c-0.4,0.2-1.1,0.4-2,0c-1.4-0.6-3-2.5-3-2.5l4.7,1.9l-4.7-1.9c0,0,2.4-0.2,3.8,0.3c0.1,0,0.2,0.1,0.3,0.1
	c-0.5-1.2-0.9-2.4-1.2-3.6c-0.4,0.1-1.1,0.2-1.9-0.3c-1.3-0.8-2.6-2.9-2.6-2.9s2.5,0.1,3.8,0.9c0.1,0.1,0.2,0.1,0.3,0.2
	c-0.3-1.3-0.4-2.6-0.6-3.8c-0.5,0.1-1.1,0-1.9-0.5c-1.2-0.9-2.3-3.2-2.3-3.2s2.5,0.4,3.7,1.3c0.1,0.1,0.2,0.2,0.3,0.3
	c0-1.1,0-2.2,0.1-3.3c-0.4,0-1.1-0.1-1.7-0.6c-1.1-1-1.9-3.2-1.9-3.2s2.3,0.6,3.4,1.5c0.2,0.2,0.3,0.3,0.4,0.5
	c0.1-0.6,0.2-1.2,0.3-1.8c-0.3-0.3-0.6-0.9-0.5-1.8c0.2-1.4,1.5-3.2,1.5-3.2s0.8,2.1,0.6,3.5c-0.1,1-0.8,1.5-1.1,1.7
	c-0.1,0.7-0.2,1.4-0.2,2.1c0.1-0.3,0.4-0.6,0.7-0.9c1.1-0.9,3.4-1.3,3.4-1.3s-0.9,2.1-2.1,3c-1,0.8-1.9,0.5-2.1,0.4
	c0,1.3,0,2.6,0.1,3.8c0.1-0.3,0.3-0.5,0.6-0.8c1.1-1.1,3.5-1.7,3.5-1.7s-0.8,2.3-1.9,3.4c-0.8,0.7-1.6,0.7-2,0.7
	c0.2,1.4,0.4,2.7,0.8,4.1c0.1-0.2,0.2-0.5,0.5-0.8c1-1.2,3.3-2.1,3.3-2.1s-0.5,2.4-1.5,3.6c-0.6,0.7-1.3,0.9-1.8,0.9
	c0.4,1.3,0.9,2.6,1.4,3.9c0.1-0.3,0.2-0.6,0.4-0.9c0.8-1.3,2.9-2.5,2.9-2.5s-0.2,2.4-1,3.7c-0.5,0.8-1.2,1.1-1.6,1.1
	c0.8,1.7,1.8,3.4,2.9,4.9c0-0.2,0.1-0.4,0.1-0.6c0.5-1.5,2.4-3.2,2.4-3.2s0.4,2.5-0.1,4c-0.3,0.8-0.8,1.2-1.2,1.4
	c1.1,1.4,2.2,2.6,3.5,3.8c0-0.1,0-0.2,0-0.4c0.1-1.6,1.5-3.7,1.5-3.7s1,2.3,0.9,3.9c-0.1,0.8-0.4,1.3-0.7,1.6
	c1.2,0.9,2.4,1.8,3.7,2.6c0,0,0.8,0.5,0.6,1.2c-0.1,0.4-0.3,0.5-0.5,0.5C24.6,83.8,24.1,83.5,24.1,83.5z M34.9,21
	c0.3-0.1,0.6-0.3,1-0.5c0.4-0.2,0.7-0.3,1.1-0.5c0.4-0.2,0.8-0.3,1.1-0.5c0.2-0.1,0.4-0.1,0.5-0.2c0.2-0.1,0.3-0.1,0.5-0.2
	c0.6-0.2,1-0.3,1-0.3c0,0,1.6-0.5,3.2-0.8c0.8-0.1,1.6-0.3,2.3-0.4c0.3,0,0.6-0.1,0.8-0.1c0.2,0,0.3,0,0.3,0c0,0,0.4,0,1-0.1
	c0.2,0,0.3,0,0.5,0c0.2,0,0.4,0,0.6,0c0.4,0,0.8,0,1.2,0c0.4,0,0.8,0,1.2,0c0.2,0,0.4,0,0.6,0c0.2,0,0.3,0,0.5,0c0.6,0,1,0.1,1,0.1
	v0c0,0,0.1,0,0.3,0c0.2,0,0.4,0.1,0.8,0.1c0.6,0.1,1.4,0.2,2.3,0.4c1.6,0.3,3.2,0.8,3.2,0.8c0,0,0.4,0.1,1,0.3
	c0.1,0.1,0.3,0.1,0.5,0.2c0.2,0.1,0.3,0.1,0.5,0.2c0.4,0.1,0.8,0.3,1.1,0.5c0.4,0.2,0.8,0.3,1.1,0.5c0.4,0.2,0.7,0.3,1,0.5
	c0.3,0.1,0.5,0.3,0.7,0.3c0.2,0.1,0.2,0.1,0.2,0.1s0.4,0.2,0.9,0.5c0.3,0.2,0.6,0.4,0.9,0.6c0.2,0.1,0.3,0.2,0.5,0.3
	c0.2,0.1,0.3,0.2,0.5,0.4c0.3,0.2,0.7,0.5,1,0.7c0.3,0.2,0.6,0.5,0.8,0.7c0.1,0.1,0.2,0.2,0.3,0.3c0.1,0.1,0.2,0.2,0.2,0.2
	c0.1,0.1,0.2,0.2,0.2,0.2v0c0,0,0.1,0.1,0.2,0.2c0.1,0.1,0.3,0.3,0.6,0.5c0.4,0.4,1.1,1,1.6,1.6c0.1,0.2,0.3,0.3,0.4,0.5
	c0.1,0.1,0.3,0.3,0.4,0.5c0.3,0.3,0.5,0.6,0.7,0.8c0.4,0.5,0.6,0.8,0.6,0.8c0,0,0.1,0.1,0.2,0.2c0.1,0.1,0.1,0.2,0.2,0.3
	c0.1,0.1,0.2,0.2,0.2,0.3c0.2,0.3,0.4,0.6,0.6,0.9c0.2,0.3,0.4,0.7,0.7,1c0.2,0.3,0.4,0.7,0.6,1.1c0.2,0.3,0.4,0.7,0.5,0.9
	c0.3,0.6,0.5,0.9,0.5,0.9c0,0,0,0.1,0.1,0.3c0.1,0.2,0.2,0.4,0.3,0.7c0.1,0.1,0.1,0.3,0.2,0.5c0.1,0.2,0.2,0.3,0.2,0.5
	c0.1,0.4,0.3,0.8,0.5,1.1c0.1,0.4,0.3,0.8,0.4,1.2c0.1,0.2,0.1,0.4,0.2,0.5c0,0.2,0.1,0.3,0.1,0.5c0.2,0.6,0.3,1,0.3,1h0
	c0,0,0,0.1,0.1,0.3c0,0.2,0.1,0.4,0.2,0.7c0.2,0.6,0.3,1.4,0.4,2.3c0.1,0.8,0.2,1.7,0.3,2.3c0,0.3,0,0.6,0.1,0.8c0,0.2,0,0.3,0,0.3
	h0c0,0,0,0.4,0,1c0,0.6,0,1.5,0,2.3c0,0.4-0.1,0.8-0.1,1.2c0,0.2,0,0.4,0,0.6c0,0.2,0,0.3-0.1,0.5c-0.1,0.6-0.1,1-0.1,1h0
	c0,0-0.1,0.4-0.2,1c-0.1,0.6-0.3,1.4-0.5,2.2c-0.2,0.8-0.4,1.6-0.7,2.2C81.1,61,81,61.3,81,61.4c-0.1,0.2-0.1,0.3-0.1,0.3
	c0,0-0.2,0.4-0.4,1c-0.1,0.1-0.1,0.3-0.2,0.5c-0.1,0.2-0.2,0.3-0.2,0.5c-0.1,0.2-0.2,0.4-0.2,0.5c-0.1,0.2-0.2,0.4-0.3,0.6
	c-0.2,0.4-0.4,0.7-0.6,1.1c-0.2,0.3-0.4,0.7-0.5,0.9c-0.3,0.5-0.5,0.9-0.5,0.9c0,0-0.2,0.4-0.6,0.9c-0.2,0.3-0.4,0.6-0.6,0.9
	c-0.1,0.2-0.2,0.3-0.3,0.5c-0.1,0.2-0.3,0.3-0.4,0.5c-0.3,0.3-0.5,0.7-0.8,1c-0.3,0.3-0.5,0.6-0.7,0.8c-0.2,0.2-0.4,0.4-0.5,0.6
	c-0.1,0.1-0.2,0.2-0.2,0.2l0,0c0,0-0.1,0.1-0.2,0.2c-0.1,0.1-0.3,0.3-0.5,0.5c-0.2,0.2-0.5,0.5-0.8,0.7c-0.1,0.1-0.1,0.1-0.2,0.2
	c-0.1,0.1-0.2,0.1-0.2,0.2c-0.2,0.1-0.3,0.3-0.5,0.4c-0.2,0.1-0.3,0.3-0.5,0.4c-0.2,0.1-0.3,0.3-0.5,0.4c-0.3,0.2-0.6,0.5-0.8,0.7
	c-0.5,0.4-0.9,0.6-0.9,0.6c0,0-0.1,0.1-0.2,0.2c-0.1,0.1-0.4,0.2-0.6,0.4c-0.3,0.2-0.6,0.4-0.9,0.6c-0.3,0.2-0.7,0.4-1.1,0.6
	l-0.3,0.2c-0.1,0-0.2,0.1-0.3,0.1c-0.2,0.1-0.4,0.2-0.5,0.3c-0.3,0.2-0.7,0.4-1,0.5c-0.6,0.3-1,0.4-1,0.4v0c0,0,0,0-0.1,0
	c0,0-0.1,0.1-0.2,0.1c-0.2,0.1-0.4,0.2-0.7,0.3c-0.1,0.1-0.3,0.1-0.5,0.2c-0.1,0-0.2,0.1-0.3,0.1c-0.1,0-0.2,0.1-0.3,0.1
	c-0.4,0.1-0.8,0.3-1.2,0.4c-0.4,0.1-0.8,0.2-1.2,0.3c-0.2,0.1-0.4,0.1-0.5,0.2c-0.2,0-0.3,0.1-0.5,0.1c-0.6,0.1-1,0.2-1,0.2
	c0,0-0.4,0.1-1,0.2c-0.2,0-0.3,0.1-0.5,0.1c-0.2,0-0.4,0-0.6,0.1c-0.4,0-0.8,0.1-1.2,0.2c-0.8,0.1-1.7,0.1-2.3,0.1c-0.6,0-1,0-1,0h0
	h0c0,0-0.4,0-1,0c-0.6,0-1.5-0.1-2.3-0.1c-0.4-0.1-0.8-0.1-1.2-0.2c-0.2,0-0.4,0-0.6-0.1c-0.2,0-0.3-0.1-0.5-0.1
	c-0.6-0.1-1-0.2-1-0.2v0c0,0-0.4-0.1-1-0.2c-0.2,0-0.3-0.1-0.5-0.1c-0.2,0-0.4-0.1-0.5-0.2c-0.4-0.1-0.8-0.2-1.2-0.3
	c-0.4-0.1-0.8-0.3-1.2-0.4c-0.1,0-0.2-0.1-0.3-0.1c-0.1,0-0.2-0.1-0.3-0.1c-0.2-0.1-0.3-0.1-0.5-0.2c-0.3-0.1-0.5-0.2-0.7-0.3
	c-0.1,0-0.2-0.1-0.2-0.1c0,0-0.1,0-0.1,0v0c0,0-0.4-0.2-1-0.4c-0.3-0.1-0.6-0.3-1-0.5c-0.2-0.1-0.4-0.2-0.5-0.3
	c-0.1,0-0.2-0.1-0.3-0.1L34,79.1c-0.4-0.2-0.7-0.4-1.1-0.6c-0.3-0.2-0.6-0.4-0.9-0.6c-0.3-0.2-0.5-0.3-0.6-0.4
	c-0.1-0.1-0.2-0.2-0.2-0.2h0c0,0-0.3-0.2-0.9-0.6c-0.2-0.2-0.5-0.4-0.8-0.7c-0.2-0.1-0.3-0.2-0.5-0.4c-0.2-0.1-0.3-0.3-0.5-0.4
	c-0.2-0.1-0.3-0.3-0.5-0.4c-0.1-0.1-0.2-0.1-0.2-0.2c-0.1-0.1-0.1-0.1-0.2-0.2c-0.3-0.3-0.5-0.5-0.8-0.7c-0.2-0.2-0.4-0.4-0.5-0.5
	c-0.1-0.1-0.2-0.2-0.2-0.2c0,0-0.1-0.1-0.2-0.2c-0.1-0.1-0.3-0.3-0.5-0.6c-0.2-0.2-0.4-0.5-0.7-0.8c-0.3-0.3-0.5-0.6-0.8-1
	c-0.1-0.2-0.3-0.3-0.4-0.5c-0.1-0.2-0.2-0.3-0.3-0.5c-0.2-0.3-0.4-0.6-0.6-0.9C22.2,68,22,67.7,22,67.7c0,0-0.2-0.3-0.5-0.9
	c-0.2-0.3-0.3-0.6-0.5-0.9c-0.2-0.3-0.4-0.7-0.6-1.1c-0.1-0.2-0.2-0.4-0.3-0.6c-0.1-0.2-0.2-0.4-0.2-0.5c-0.1-0.2-0.2-0.4-0.2-0.5
	c-0.1-0.2-0.1-0.3-0.2-0.5c-0.2-0.6-0.4-1-0.4-1c0,0,0-0.1-0.1-0.3c-0.1-0.2-0.1-0.4-0.2-0.7c-0.2-0.6-0.4-1.4-0.7-2.2
	c-0.2-0.8-0.4-1.6-0.5-2.2c-0.1-0.6-0.2-1-0.2-1v0c0,0-0.1-0.4-0.1-1c0-0.2,0-0.3-0.1-0.5c0-0.2,0-0.4,0-0.6c0-0.4-0.1-0.8-0.1-1.2
	c0-0.8-0.1-1.7,0-2.3c0-0.6,0-1,0-1h0c0,0,0-0.1,0-0.3c0-0.2,0-0.4,0.1-0.8c0-0.6,0.2-1.5,0.3-2.3c0.2-0.8,0.3-1.6,0.4-2.3
	c0.1-0.3,0.1-0.6,0.2-0.7C18,42.1,18,42,18,42c0,0,0.1-0.4,0.3-1c0-0.2,0.1-0.3,0.1-0.5c0.1-0.2,0.1-0.3,0.2-0.5
	c0.1-0.4,0.3-0.8,0.4-1.2c0.2-0.4,0.3-0.8,0.5-1.1c0.1-0.2,0.1-0.4,0.2-0.5c0.1-0.2,0.1-0.3,0.2-0.5c0.1-0.3,0.2-0.5,0.3-0.7
	c0.1-0.2,0.1-0.3,0.1-0.3l0,0c0,0,0.2-0.4,0.5-0.9c0.1-0.3,0.3-0.6,0.5-0.9c0.2-0.3,0.4-0.7,0.6-1.1c0.2-0.4,0.5-0.7,0.7-1
	c0.2-0.3,0.4-0.6,0.6-0.9c0.1-0.1,0.2-0.2,0.2-0.3c0.1-0.1,0.1-0.2,0.2-0.3c0.1-0.1,0.2-0.2,0.2-0.2c0,0,0.3-0.3,0.6-0.8
	c0.2-0.2,0.4-0.5,0.7-0.8c0.1-0.1,0.3-0.3,0.4-0.5c0.1-0.1,0.3-0.3,0.4-0.5c0.6-0.6,1.2-1.2,1.6-1.6c0.2-0.2,0.4-0.4,0.6-0.5
	c0.1-0.1,0.2-0.2,0.2-0.2c0,0,0.1-0.1,0.2-0.2c0.1-0.1,0.2-0.1,0.2-0.2c0.1-0.1,0.2-0.2,0.3-0.3c0.2-0.2,0.5-0.4,0.8-0.7
	c0.3-0.2,0.7-0.5,1-0.7c0.2-0.1,0.3-0.2,0.5-0.4c0.2-0.1,0.3-0.2,0.5-0.3c0.3-0.2,0.6-0.4,0.9-0.6c0.5-0.3,0.9-0.5,0.9-0.5
	c0,0,0.1-0.1,0.2-0.1C34.4,21.2,34.6,21.1,34.9,21z M35.3,21.7c-0.3,0.1-0.5,0.3-0.7,0.3c-0.2,0.1-0.2,0.1-0.2,0.1
	c0,0-0.4,0.2-0.9,0.5c-0.3,0.1-0.6,0.4-0.9,0.6c-0.2,0.1-0.3,0.2-0.5,0.3c-0.2,0.1-0.3,0.2-0.5,0.3c-0.3,0.2-0.7,0.5-1,0.7
	c-0.3,0.2-0.6,0.5-0.8,0.6c-0.1,0.1-0.2,0.2-0.3,0.3c-0.1,0.1-0.2,0.2-0.2,0.2c-0.1,0.1-0.2,0.2-0.2,0.2c0,0-0.1,0.1-0.2,0.2
	c-0.1,0.1-0.3,0.3-0.6,0.5c-0.4,0.4-1,1-1.6,1.6c-0.1,0.1-0.3,0.3-0.4,0.4c-0.1,0.1-0.3,0.3-0.4,0.4c-0.3,0.3-0.5,0.6-0.7,0.8
	c-0.4,0.5-0.6,0.8-0.6,0.8c0,0-0.1,0.1-0.2,0.2c-0.1,0.1-0.1,0.2-0.2,0.3c-0.1,0.1-0.2,0.2-0.2,0.3c-0.2,0.2-0.4,0.5-0.6,0.9
	c-0.2,0.3-0.4,0.7-0.6,1c-0.2,0.3-0.4,0.7-0.6,1c-0.2,0.3-0.4,0.6-0.5,0.9c-0.3,0.5-0.5,0.9-0.5,0.9c0,0,0,0.1-0.1,0.2
	c-0.1,0.2-0.2,0.4-0.3,0.7c-0.1,0.1-0.1,0.3-0.2,0.4c-0.1,0.2-0.1,0.3-0.2,0.5c-0.1,0.4-0.3,0.7-0.4,1.1c-0.1,0.4-0.3,0.8-0.4,1.1
	c-0.1,0.2-0.1,0.4-0.2,0.5c0,0.2-0.1,0.3-0.1,0.5c-0.2,0.6-0.3,1-0.3,1h0c0,0,0,0.1-0.1,0.3c0,0.2-0.1,0.4-0.2,0.7
	c-0.2,0.6-0.3,1.4-0.4,2.2c-0.1,0.8-0.2,1.6-0.3,2.2c0,0.3,0,0.6-0.1,0.7c0,0.2,0,0.3,0,0.3c0,0,0,0.4,0,1c0,0.6,0,1.4,0,2.2
	c0,0.4,0.1,0.8,0.1,1.2c0,0.2,0,0.4,0,0.5c0,0.2,0,0.3,0.1,0.5c0.1,0.6,0.1,1,0.1,1h0c0,0,0.1,0.4,0.2,1c0.1,0.6,0.3,1.4,0.5,2.2
	c0.2,0.8,0.4,1.6,0.6,2.1c0.1,0.3,0.2,0.5,0.2,0.7c0.1,0.2,0.1,0.3,0.1,0.3l0,0v0c0,0,0.1,0.4,0.4,0.9c0.1,0.1,0.1,0.3,0.2,0.5
	c0.1,0.2,0.1,0.3,0.2,0.5c0.1,0.2,0.2,0.4,0.2,0.5c0.1,0.2,0.2,0.4,0.3,0.5c0.2,0.4,0.4,0.7,0.5,1.1c0.2,0.3,0.4,0.6,0.5,0.9
	c0.3,0.5,0.5,0.9,0.5,0.9h0c0,0,0.2,0.3,0.5,0.9c0.2,0.3,0.4,0.5,0.6,0.9c0.1,0.2,0.2,0.3,0.3,0.5c0.1,0.2,0.2,0.3,0.4,0.5
	c0.3,0.3,0.5,0.6,0.7,0.9c0.3,0.3,0.5,0.6,0.7,0.8c0.2,0.2,0.4,0.4,0.5,0.5c0.1,0.1,0.2,0.2,0.2,0.2c0,0,0.1,0.1,0.2,0.2
	c0.1,0.1,0.3,0.3,0.5,0.5c0.2,0.2,0.5,0.5,0.8,0.7c0.1,0.1,0.1,0.1,0.2,0.2c0.1,0.1,0.1,0.1,0.2,0.2c0.2,0.1,0.3,0.3,0.5,0.4
	c0.2,0.1,0.3,0.3,0.5,0.4c0.2,0.1,0.3,0.2,0.5,0.4c0.3,0.2,0.6,0.5,0.8,0.6c0.5,0.4,0.8,0.6,0.8,0.6c0,0,0.1,0.1,0.2,0.2
	c0.1,0.1,0.4,0.2,0.6,0.4c0.3,0.2,0.6,0.4,0.9,0.6c0.3,0.2,0.7,0.4,1,0.6l0.3,0.2c0.1,0,0.2,0.1,0.3,0.1c0.2,0.1,0.4,0.2,0.5,0.3
	c0.3,0.2,0.7,0.3,0.9,0.5c0.6,0.3,0.9,0.4,0.9,0.4c0,0,0,0,0.1,0c0,0,0.1,0.1,0.2,0.1c0.2,0.1,0.4,0.2,0.7,0.3
	c0.1,0.1,0.3,0.1,0.5,0.2c0.1,0,0.2,0.1,0.3,0.1c0.1,0,0.2,0.1,0.3,0.1c0.4,0.1,0.7,0.3,1.1,0.4c0.4,0.1,0.8,0.2,1.1,0.3
	c0.2,0.1,0.4,0.1,0.5,0.1c0.2,0,0.3,0.1,0.5,0.1c0.6,0.1,1,0.2,1,0.2c0,0,0.4,0.1,1,0.2c0.2,0,0.3,0.1,0.5,0.1c0.2,0,0.4,0,0.5,0.1
	c0.4,0,0.8,0.1,1.2,0.2c0.8,0.1,1.6,0.1,2.2,0.1c0.6,0,1,0,1,0c0,0,0.4,0,1,0c0.6,0,1.4-0.1,2.2-0.1c0.4-0.1,0.8-0.1,1.2-0.2
	c0.2,0,0.4,0,0.5-0.1c0.2,0,0.3-0.1,0.5-0.1c0.6-0.1,1-0.2,1-0.2v0c0,0,0.4-0.1,1-0.2c0.1,0,0.3-0.1,0.5-0.1c0.2,0,0.3-0.1,0.5-0.1
	c0.4-0.1,0.8-0.2,1.1-0.3c0.4-0.1,0.8-0.3,1.1-0.4c0.1,0,0.2-0.1,0.3-0.1c0.1,0,0.2-0.1,0.3-0.1c0.2-0.1,0.3-0.1,0.5-0.2
	c0.3-0.1,0.5-0.2,0.7-0.3c0.1,0,0.1-0.1,0.2-0.1c0,0,0.1,0,0.1,0c0,0,0.4-0.2,0.9-0.4c0.3-0.1,0.6-0.3,0.9-0.5
	c0.2-0.1,0.3-0.2,0.5-0.3c0.1,0,0.2-0.1,0.3-0.1l0.3-0.2c0.4-0.2,0.7-0.4,1-0.6c0.3-0.2,0.6-0.4,0.9-0.6c0.3-0.2,0.5-0.3,0.6-0.4
	c0.1-0.1,0.2-0.2,0.2-0.2h0c0,0,0.3-0.2,0.8-0.6c0.2-0.2,0.5-0.4,0.8-0.6c0.1-0.1,0.3-0.2,0.5-0.4c0.2-0.1,0.3-0.3,0.5-0.4
	c0.2-0.1,0.3-0.3,0.5-0.4c0.1-0.1,0.2-0.1,0.2-0.2c0.1-0.1,0.1-0.1,0.2-0.2c0.3-0.3,0.5-0.5,0.8-0.7c0.2-0.2,0.4-0.4,0.5-0.5
	c0.1-0.1,0.2-0.2,0.2-0.2h0c0,0,0.1-0.1,0.2-0.2c0.1-0.1,0.3-0.3,0.5-0.5c0.2-0.2,0.4-0.5,0.7-0.8c0.3-0.3,0.5-0.6,0.7-0.9
	c0.1-0.2,0.3-0.3,0.4-0.5c0.1-0.2,0.2-0.3,0.3-0.5c0.2-0.3,0.4-0.6,0.6-0.9c0.3-0.5,0.5-0.9,0.5-0.9h0c0,0,0.2-0.3,0.5-0.9
	c0.2-0.3,0.3-0.6,0.5-0.9c0.2-0.3,0.4-0.7,0.5-1.1c0.1-0.2,0.2-0.4,0.3-0.5c0.1-0.2,0.2-0.4,0.2-0.5c0.1-0.2,0.2-0.3,0.2-0.5
	c0.1-0.2,0.1-0.3,0.2-0.5c0.2-0.6,0.4-0.9,0.4-0.9c0,0,0-0.1,0.1-0.3c0.1-0.2,0.1-0.4,0.2-0.7c0.2-0.6,0.4-1.4,0.6-2.1
	c0.2-0.8,0.4-1.6,0.5-2.2c0.1-0.6,0.2-1,0.2-1c0,0,0.1-0.4,0.1-1c0-0.2,0-0.3,0.1-0.5c0-0.2,0-0.4,0-0.5c0-0.4,0.1-0.8,0.1-1.2
	c0-0.8,0.1-1.6,0-2.2c0-0.6,0-1,0-1c0,0,0-0.1,0-0.3c0-0.2,0-0.4-0.1-0.7c0-0.6-0.2-1.4-0.3-2.2c-0.1-0.8-0.3-1.6-0.4-2.2
	c-0.1-0.3-0.1-0.5-0.2-0.7c0-0.2-0.1-0.3-0.1-0.3c0,0-0.1-0.4-0.3-1c0-0.1-0.1-0.3-0.1-0.5c-0.1-0.2-0.1-0.3-0.2-0.5
	c-0.1-0.4-0.2-0.7-0.4-1.1c-0.1-0.4-0.3-0.8-0.4-1.1c-0.1-0.2-0.1-0.3-0.2-0.5c-0.1-0.2-0.1-0.3-0.2-0.4c-0.1-0.3-0.2-0.5-0.3-0.7
	c-0.1-0.2-0.1-0.2-0.1-0.2c0,0-0.2-0.4-0.5-0.9c-0.1-0.3-0.3-0.6-0.5-0.9c-0.2-0.3-0.4-0.7-0.6-1c-0.2-0.3-0.4-0.7-0.6-1
	c-0.2-0.3-0.4-0.6-0.6-0.9c-0.1-0.1-0.2-0.2-0.2-0.3c-0.1-0.1-0.1-0.2-0.2-0.3c-0.1-0.1-0.2-0.2-0.2-0.2c0,0-0.3-0.3-0.6-0.8
	c-0.2-0.2-0.4-0.5-0.7-0.8c-0.1-0.1-0.2-0.3-0.4-0.4c-0.1-0.1-0.3-0.3-0.4-0.4c-0.5-0.6-1.2-1.1-1.6-1.6c-0.2-0.2-0.4-0.4-0.6-0.5
	c-0.1-0.1-0.2-0.2-0.2-0.2h0c0,0-0.1-0.1-0.2-0.2c-0.1-0.1-0.1-0.1-0.2-0.2c-0.1-0.1-0.2-0.2-0.3-0.3c-0.2-0.2-0.5-0.4-0.8-0.6
	c-0.3-0.2-0.6-0.5-1-0.7c-0.2-0.1-0.3-0.2-0.5-0.3c-0.2-0.1-0.3-0.2-0.5-0.3c-0.3-0.2-0.6-0.4-0.9-0.6c-0.5-0.3-0.9-0.5-0.9-0.5
	c0,0-0.1-0.1-0.2-0.1c-0.2-0.1-0.4-0.2-0.7-0.3c-0.3-0.1-0.6-0.3-0.9-0.5c-0.3-0.2-0.7-0.3-1.1-0.5c-0.4-0.2-0.8-0.3-1.1-0.4
	c-0.2-0.1-0.3-0.1-0.5-0.2c-0.2-0.1-0.3-0.1-0.5-0.2c-0.6-0.2-1-0.3-1-0.3v0c0,0,0,0-0.1,0c0,0-0.1,0-0.2-0.1
	c-0.2,0-0.4-0.1-0.7-0.2c-0.6-0.2-1.4-0.3-2.2-0.5c-0.8-0.1-1.6-0.3-2.2-0.4c-0.3,0-0.6-0.1-0.7-0.1c-0.2,0-0.3,0-0.3,0v0
	c0,0-0.4,0-1-0.1c-0.2,0-0.3,0-0.5,0c-0.2,0-0.4,0-0.6,0c-0.4,0-0.8,0-1.2,0c-0.4,0-0.8,0-1.2,0c-0.2,0-0.4,0-0.6,0
	c-0.2,0-0.3,0-0.5,0c-0.6,0-1,0.1-1,0.1c0,0-0.1,0-0.3,0c-0.2,0-0.4,0.1-0.7,0.1c-0.6,0.1-1.4,0.2-2.2,0.4c-0.8,0.2-1.6,0.4-2.2,0.5
	c-0.3,0.1-0.5,0.2-0.7,0.2c-0.1,0-0.2,0-0.2,0.1c0,0-0.1,0-0.1,0c0,0-0.4,0.1-1,0.3c-0.1,0-0.3,0.1-0.5,0.2
	c-0.2,0.1-0.3,0.1-0.5,0.2c-0.4,0.1-0.7,0.3-1.1,0.4c-0.4,0.2-0.7,0.3-1.1,0.5C35.8,21.4,35.5,21.5,35.3,21.7z M75.3,86.9
	c0,0,0.3,0.3,0.2,0.7c-0.3,0.2-0.7-0.1-0.7-0.1c-0.1,0.4-0.6,0.5-0.6,0.5c0.3-0.8-0.1-1.4-0.6-1.7c-0.9-0.5-3.3-1.4-7.6,0.4
	c-3.7,1.6-8.7,5.7-12,4.5c-2.3-0.8-2.9-2.8-2.3-4.2c0,0,0,0-0.1,0c-0.5,0-0.9-0.1-1.2-0.3c-0.6,1.3-0.1,5.6,3.5,6.7
	c0,0-1.3,1.1-2.7,0.5c0,0-0.1,1.6-1.3,2.1c-1.3-0.5-1.4-2-1.4-2c-1.4,0.6-2.7-0.6-2.7-0.6c3.6-1.1,4.1-5.4,3.5-6.7
	c-0.3,0.2-0.7,0.3-1.2,0.3c0,0,0,0-0.1,0c0.6,1.4,0,3.4-2.3,4.2c-3.3,1.1-8.2-3-12-4.5c-4.3-1.8-6.7-0.9-7.6-0.4
	c-0.5,0.3-0.9,1-0.6,1.7c0,0-0.5-0.1-0.6-0.5c0,0-0.4,0.3-0.7,0.1c-0.1-0.4,0.2-0.7,0.2-0.7c-0.4-0.2-0.4-0.7-0.4-0.7
	c0.5,0.4,1.1,0.3,1.6,0c0.1-0.1,0.2-0.1,0.3-0.2c0,0,0,0,0,0c3-2,7-0.9,8.6-0.4c1.8,0.6,7.1,3.2,9,3.5c1.9,0.3,2.4-0.8,2.3-1.3
	c-0.1-0.5-0.9-0.3-0.9-0.3l0.1,0.2c0,0.4-0.6,0.6-1,0.5c-0.3-0.1-0.6-0.5-0.6-0.7c0-0.2,0.1-0.6,0.3-0.9c-0.8-0.3-1.2-0.9-1-1.7
	c-0.2,0.9-1,1.3-2,1.1c-0.8-0.2-1.3-0.9-1.2-1.6c0-0.2,0.1-0.4,0.3-0.6c0,0-0.1-0.1-0.2-0.2c0-0.1-0.1-0.1-0.1-0.2
	c0,0-0.1-0.1-0.1-0.1L39,83.3c0,0.3,0,0.5-0.1,0.7c-0.2,0.4-0.4,0.6-0.8,0.7c-0.2,0.1-0.4,0.1-0.5,0.1c-0.2,0-0.4,0-0.6-0.1
	c-1-0.4-1.4-1.2-1-2c-0.2,0.4-0.5,0.7-0.9,0.8c-0.4,0.1-0.8,0.1-1.3-0.2c-0.7-0.4-1.1-1.1-0.8-1.8c0.1-0.2,0.2-0.4,0.5-0.6
	c0,0,0,0,0-0.1c0,0-0.1-0.1-0.1-0.2c-0.1-0.1-0.1-0.3-0.1-0.3l-0.6,0c0,0.3-0.1,0.5-0.2,0.7c-0.2,0.3-0.5,0.5-0.9,0.5
	c-0.2,0-0.4,0-0.6,0c-0.2,0-0.4-0.1-0.5-0.2c-0.4-0.3-0.7-0.6-0.8-1c-0.1-0.4,0-0.8,0.2-1.2c-0.3,0.4-0.6,0.6-1,0.6
	c-0.4,0-0.8-0.1-1.3-0.4c-0.3-0.3-0.5-0.6-0.6-0.9c-0.1-0.3,0-0.7,0.2-1c0.1-0.2,0.3-0.3,0.6-0.5l-0.2-0.6l-0.6-0.1
	c-0.1,0.3-0.2,0.5-0.4,0.6c-0.3,0.3-0.6,0.4-1,0.4c-0.4,0-0.7-0.2-1-0.5c-0.2-0.2-0.3-0.4-0.4-0.6c-0.1-0.2-0.2-0.4-0.2-0.6
	c0-0.4,0.1-0.8,0.5-1.1c-0.6,0.6-1.6,0.5-2.2-0.3c-0.3-0.3-0.4-0.7-0.4-1c0-0.4,0.1-0.7,0.4-1c0.1-0.1,0.4-0.3,0.6-0.3l-0.1-0.6
	l-0.6-0.2c-0.1,0.2-0.3,0.4-0.5,0.5c-0.7,0.4-1.5,0.2-1.9-0.5c-0.3-0.4-0.4-0.9-0.4-1.3c0.1-0.4,0.3-0.7,0.7-1
	c-0.4,0.2-0.8,0.3-1.2,0.2c-0.4-0.1-0.7-0.4-1-0.9c-0.1-0.2-0.2-0.4-0.2-0.6c0-0.2,0-0.4,0-0.6c0.1-0.4,0.3-0.7,0.6-0.9
	c0.2-0.1,0.4-0.2,0.7-0.2l0.1-0.6c0,0-0.1-0.1-0.3-0.2c-0.1-0.1-0.2-0.2-0.2-0.2c-0.2,0.2-0.4,0.4-0.6,0.4c-0.7,0.3-1.4-0.1-1.8-0.9
	c-0.4-1-0.1-1.8,0.8-2.1c-0.8,0.3-1.6-0.1-2-1.1c-0.1-0.4-0.1-0.8,0-1.1c0.1-0.3,0.4-0.6,0.7-0.7c0.2-0.1,0.4-0.1,0.7-0.1l0.2-0.6
	c0,0-0.1-0.1-0.2-0.2c-0.1-0.1-0.2-0.2-0.2-0.2c-0.2,0.2-0.5,0.3-0.7,0.3c-0.8,0.1-1.4-0.4-1.6-1.2c-0.2-1,0.3-1.8,1.2-1.9
	c-0.9,0.1-1.6-0.5-1.7-1.5c-0.1-0.8,0.4-1.5,1.1-1.7c0.2,0,0.4,0,0.7,0.1c0,0,0.1-0.1,0.1-0.3c0-0.1,0.1-0.1,0.1-0.2
	c0,0,0-0.1,0-0.1l-0.3-0.5c-0.3,0.1-0.5,0.2-0.7,0.2c-0.8,0-1.3-0.7-1.3-1.5c0-1,0.6-1.7,1.5-1.7c-0.9,0-1.4-0.8-1.4-1.8
	c0.1-0.8,0.7-1.4,1.4-1.4c0.2,0,0.4,0.1,0.7,0.2l0.4-0.5l-0.2-0.5c-0.3,0.1-0.5,0.1-0.7,0c-0.7-0.2-1.1-0.9-1-1.8
	c0.2-1,1-1.6,1.8-1.3c-0.9-0.2-1.3-1-1-2c0.3-0.8,0.9-1.3,1.7-1.1c0.2,0,0.4,0.2,0.6,0.4c0,0,0.1-0.1,0.2-0.2
	c0.1-0.1,0.2-0.2,0.2-0.2l-0.1-0.6c-0.3,0-0.5,0-0.7-0.1c-0.3-0.2-0.6-0.5-0.7-0.8C16,36.4,16,36,16.2,35.6c0.2-0.5,0.5-0.8,0.9-1
	c0.4-0.2,0.8-0.1,1.2,0c-0.4-0.2-0.7-0.5-0.8-0.9c0-0.2-0.1-0.4,0-0.6c0-0.2,0.1-0.5,0.2-0.7c0.4-0.7,1.2-1.1,1.9-0.7
	c0.2,0.1,0.4,0.2,0.5,0.5c0,0,0,0,0.1,0c0.1,0,0.1-0.1,0.2-0.1c0.1-0.1,0.3-0.1,0.3-0.1l0-0.6c-0.3-0.1-0.5-0.1-0.7-0.3
	c-0.3-0.2-0.5-0.6-0.5-0.9c0-0.2,0-0.4,0.1-0.5c0.1-0.2,0.1-0.4,0.3-0.5c0.3-0.4,0.7-0.7,1.1-0.8c0.4-0.1,0.8,0,1.1,0.3
	c-0.4-0.3-0.5-0.6-0.6-1c0-0.2,0-0.4,0.1-0.6c0.1-0.2,0.2-0.4,0.4-0.6c0.3-0.3,0.6-0.5,1-0.6c0.4-0.1,0.7,0,1,0.3
	c0.2,0.1,0.3,0.3,0.4,0.6l0.6-0.2l0.1-0.6c-0.3-0.1-0.5-0.2-0.6-0.4c-0.3-0.3-0.3-0.6-0.3-1c0-0.4,0.2-0.7,0.5-1
	c0.2-0.2,0.4-0.3,0.6-0.4c0.2-0.1,0.4-0.1,0.6-0.1c0.4,0,0.8,0.2,1.1,0.5c-0.6-0.7-0.5-1.6,0.4-2.2c0.6-0.5,1.5-0.5,2,0.1
	c0.1,0.2,0.2,0.4,0.3,0.7l0.6,0l0.2-0.6c-0.2-0.2-0.4-0.3-0.5-0.5c-0.4-0.7-0.1-1.5,0.6-1.9c0.1-0.1,0.2-0.1,0.3-0.2
	c0.1,0,0.2-0.1,0.3-0.1c0.2,0,0.4,0,0.6,0c0.4,0.1,0.7,0.3,0.9,0.7c-0.2-0.4-0.3-0.8-0.1-1.2c0.1-0.4,0.5-0.7,0.9-0.9
	c0.4-0.2,0.8-0.2,1.1-0.1c0.3,0.1,0.6,0.3,0.8,0.6c0.1,0.2,0.2,0.4,0.2,0.7l0.6,0.1c0,0,0.1-0.1,0.2-0.2c0.1-0.1,0.2-0.2,0.2-0.2
	c-0.2-0.2-0.3-0.4-0.4-0.6c-0.2-0.7,0.2-1.4,1-1.8c1-0.3,1.8,0,2.1,0.9c-0.3-0.9,0.2-1.6,1.2-1.9c0.8-0.2,1.6,0.1,1.8,0.9
	c0.1,0.2,0.1,0.4,0,0.7l0.6,0.2l0.4-0.4c-0.2-0.2-0.2-0.5-0.3-0.7c-0.1-0.7,0.4-1.3,1.2-1.5c-0.6-0.4-0.7-1.1-0.7-1.5
	c0-0.3,0.3-0.7,0.6-0.7c0.4-0.1,1,0.1,1,0.5l-0.1,0.2c0,0,0.8,0.2,0.9-0.3c0.1-0.5-0.4-1.6-2.3-1.3c-1.9,0.3-7.3,3-9,3.5
	c-1.7,0.5-5.6,1.7-8.6-0.4c0,0,0,0,0,0c-0.1-0.1-0.2-0.1-0.3-0.2c-0.4-0.3-1-0.3-1.6,0c0,0,0-0.5,0.4-0.7c0,0-0.3-0.3-0.2-0.7
	c0.3-0.2,0.7,0.1,0.7,0.1c0.1-0.4,0.6-0.5,0.6-0.5c-0.3,0.8,0.1,1.4,0.6,1.7c0.9,0.5,3.3,1.4,7.6-0.4c3.7-1.6,8.7-5.7,12-4.5
	c2.7,0.9,3,3.6,1.8,4.9c0.1,0,0.2,0,0.3,0c0.4,0,0.7,0.1,1,0.2c0.1-0.1,0.2-0.2,0.3-0.3c0.9-0.9,0.6-5.7-3.3-6.9
	c0,0,1.3-1.2,2.7-0.6c0,0,0.1-1.5,1.4-2C51.2,4.3,51.3,6,51.3,6C52.7,5.4,54,6.5,54,6.5c-3.9,1.2-4.2,6.1-3.3,6.9
	c0.1,0.1,0.2,0.2,0.3,0.3c0.3-0.2,0.6-0.2,0.9-0.2c0.1,0,0.2,0,0.3,0c-1.2-1.3-0.9-4,1.8-4.9c3.3-1.1,8.2,3,12,4.5
	c4.3,1.8,6.7,0.9,7.6,0.4c0.5-0.3,0.9-1,0.6-1.7c0,0,0.5,0.1,0.6,0.5c0,0,0.4-0.3,0.7-0.1c0.1,0.4-0.2,0.7-0.2,0.7
	c0.4,0.2,0.4,0.7,0.4,0.7c-0.5-0.4-1.1-0.3-1.6,0c-0.1,0.1-0.2,0.1-0.3,0.2c0,0,0,0,0,0c-3,2-7,0.9-8.6,0.4
	c-1.8-0.6-7.1-3.2-9.1-3.5c-1.9-0.3-2.4,0.8-2.3,1.3c0.1,0.5,0.9,0.3,0.9,0.3l-0.1-0.2c0-0.4,0.6-0.6,1-0.5c0.3,0.1,0.6,0.5,0.6,0.7
	c0,0.4-0.2,1.1-0.7,1.5c0.7,0.2,1.3,0.8,1.2,1.5c0,0.2-0.1,0.4-0.3,0.7l0.4,0.4l0.6-0.2c-0.1-0.3,0-0.5,0-0.7c0.2-0.7,1-1.1,1.8-0.9
	c1,0.3,1.5,1,1.2,1.9c0.3-0.9,1.1-1.2,2.1-0.9c0.8,0.3,1.2,1,1,1.7c-0.1,0.2-0.2,0.4-0.4,0.6c0,0,0.1,0.1,0.2,0.2
	c0.1,0.1,0.2,0.2,0.2,0.2l0.6-0.1c0-0.3,0.1-0.5,0.2-0.7c0.2-0.3,0.5-0.5,0.8-0.6c0.3-0.1,0.8,0,1.1,0.1c0.5,0.2,0.8,0.6,0.9,0.9
	c0.1,0.4,0.1,0.8-0.1,1.2c0.2-0.4,0.5-0.6,0.9-0.7c0.2,0,0.4,0,0.6,0c0.1,0,0.2,0.1,0.3,0.1c0.1,0,0.2,0.1,0.3,0.2
	c0.7,0.5,1,1.2,0.6,1.9c-0.1,0.2-0.3,0.4-0.5,0.5l0.2,0.6l0.6,0c0.1-0.3,0.2-0.5,0.3-0.7c0.5-0.6,1.4-0.6,2-0.1
	c0.8,0.6,1,1.6,0.4,2.2c0.3-0.3,0.7-0.5,1.1-0.5c0.2,0,0.4,0,0.6,0.1c0.2,0.1,0.4,0.2,0.6,0.4c0.3,0.3,0.5,0.6,0.5,1
	c0,0.4-0.1,0.7-0.3,1c-0.1,0.2-0.3,0.3-0.6,0.4l0.1,0.6l0.6,0.1c0.1-0.3,0.3-0.5,0.4-0.6c0.3-0.2,0.7-0.3,1-0.3
	c0.3,0.1,0.7,0.3,1,0.6c0.2,0.2,0.3,0.4,0.4,0.6c0.1,0.2,0.1,0.4,0.1,0.6c0,0.4-0.2,0.8-0.6,1c0.4-0.3,0.7-0.4,1.1-0.3
	c0.4,0.1,0.8,0.4,1.1,0.8c0.1,0.2,0.2,0.3,0.3,0.5c0.1,0.2,0.1,0.4,0.1,0.5c0,0.4-0.2,0.7-0.5,0.9c-0.2,0.1-0.4,0.2-0.7,0.3l0,0.6
	c0,0,0.1,0.1,0.3,0.1c0.1,0,0.1,0.1,0.2,0.1c0,0,0.1,0,0.1,0c0.2-0.2,0.3-0.4,0.5-0.5c0.7-0.3,1.5,0,1.9,0.7
	c0.1,0.2,0.2,0.5,0.2,0.7c0,0.2,0,0.4,0,0.6c-0.1,0.4-0.4,0.7-0.8,0.9c0.4-0.2,0.8-0.2,1.2-0.1c0.4,0.2,0.7,0.5,0.9,1
	c0.2,0.4,0.2,0.8,0.1,1.1c-0.1,0.3-0.3,0.6-0.7,0.8c-0.2,0.1-0.4,0.1-0.7,0.1l-0.1,0.6c0,0,0.1,0.1,0.2,0.2c0.1,0.1,0.2,0.2,0.2,0.2
	c0.2-0.2,0.4-0.3,0.6-0.4c0.7-0.2,1.4,0.3,1.7,1.1c0.3,1-0.1,1.8-1,2.1c0.9-0.2,1.6,0.3,1.8,1.3c0.2,0.8-0.2,1.6-1,1.8
	c-0.2,0.1-0.4,0-0.7,0L84.1,45l0.4,0.5c0.3-0.1,0.5-0.2,0.7-0.2c0.8,0,1.3,0.6,1.5,1.4c0.1,1-0.5,1.8-1.4,1.8
	c0.9-0.1,1.5,0.6,1.5,1.7c0,0.8-0.5,1.5-1.3,1.5c-0.2,0-0.4,0-0.7-0.2L84.4,52c0,0,0,0,0,0.1c0,0,0.1,0.1,0.1,0.2
	c0.1,0.1,0.1,0.3,0.1,0.3c0.3-0.1,0.5-0.1,0.7-0.1c0.8,0.1,1.2,0.8,1.1,1.7c-0.1,1-0.8,1.6-1.7,1.5c0.9,0.1,1.4,0.9,1.2,1.9
	c-0.2,0.8-0.8,1.4-1.6,1.2c-0.2,0-0.4-0.1-0.7-0.3c0,0-0.1,0.1-0.2,0.2c-0.1,0.1-0.2,0.2-0.2,0.2l0.2,0.6c0.3,0,0.5,0,0.7,0.1
	c0.4,0.1,0.6,0.4,0.7,0.7c0.1,0.3,0.2,0.7,0,1.1c-0.3,1-1.1,1.4-2,1.1c0.8,0.3,1.1,1.2,0.7,2.1c-0.3,0.8-1.1,1.2-1.8,0.9
	c-0.2-0.1-0.4-0.2-0.6-0.4c0,0-0.1,0.1-0.2,0.2c-0.1,0.1-0.3,0.2-0.3,0.2L81,66c0.3,0,0.5,0.1,0.7,0.2c0.3,0.2,0.5,0.5,0.6,0.9
	c0,0.2,0,0.4,0,0.6c0,0.2-0.1,0.4-0.2,0.6c-0.3,0.5-0.6,0.8-1,0.9c-0.4,0.1-0.8,0.1-1.2-0.2c0.4,0.2,0.6,0.6,0.7,1
	c0.1,0.4,0,0.9-0.4,1.3c-0.5,0.7-1.3,0.9-1.9,0.5c-0.2-0.1-0.3-0.3-0.5-0.5l-0.6,0.2L77.2,72c0.3,0.1,0.5,0.2,0.6,0.3
	c0.3,0.3,0.4,0.6,0.4,1c0,0.4-0.2,0.7-0.4,1c-0.7,0.8-1.6,0.9-2.3,0.3c0.3,0.3,0.5,0.7,0.5,1.1c0,0.2-0.1,0.4-0.2,0.6
	c-0.1,0.2-0.3,0.4-0.4,0.6c-0.3,0.3-0.7,0.5-1,0.5c-0.4,0-0.7-0.1-1-0.4c-0.2-0.1-0.3-0.3-0.4-0.6l-0.6,0.1L72.2,77
	c0.3,0.1,0.4,0.3,0.6,0.5c0.2,0.3,0.3,0.7,0.2,1c-0.1,0.3-0.3,0.7-0.6,0.9c-0.4,0.3-0.9,0.5-1.3,0.4c-0.4,0-0.8-0.2-1-0.6
	c0.3,0.4,0.3,0.8,0.2,1.2c-0.1,0.4-0.4,0.7-0.8,1c-0.2,0.1-0.4,0.2-0.5,0.2c-0.2,0-0.4,0-0.5,0c-0.4,0-0.7-0.2-0.9-0.5
	c-0.1-0.2-0.2-0.4-0.2-0.7l-0.6,0c0,0-0.1,0.1-0.1,0.3c0,0.1-0.1,0.1-0.1,0.2c0,0,0,0.1,0,0.1c0.2,0.2,0.4,0.4,0.5,0.6
	c0.3,0.7-0.1,1.5-0.8,1.8c-0.5,0.2-0.9,0.3-1.3,0.2c-0.4-0.1-0.7-0.4-0.9-0.8c0.4,0.8,0,1.6-1,2c-0.2,0.1-0.4,0.1-0.6,0.1
	c-0.2,0-0.4,0-0.5-0.1c-0.3-0.1-0.6-0.4-0.8-0.7c-0.1-0.2-0.1-0.4-0.1-0.7l-0.6-0.1c0,0,0,0-0.1,0.1c0,0-0.1,0.1-0.1,0.2
	c-0.1,0.1-0.2,0.2-0.2,0.2c0.2,0.2,0.3,0.4,0.3,0.6c0.2,0.8-0.4,1.4-1.2,1.6c-1,0.2-1.8-0.2-2-1.1c0.2,0.8-0.2,1.4-1,1.7
	c0.2,0.3,0.3,0.7,0.3,0.9c0,0.3-0.3,0.7-0.6,0.7c-0.4,0.1-1-0.1-1-0.5l0.1-0.2c0,0-0.8-0.2-0.9,0.3c-0.1,0.5,0.4,1.6,2.3,1.3
	c1.9-0.3,7.3-3,9.1-3.5c1.7-0.5,5.6-1.7,8.6,0.4c0,0,0,0,0,0c0.1,0.1,0.2,0.1,0.3,0.2c0.4,0.3,1,0.3,1.6,0
	C75.6,86.1,75.7,86.6,75.3,86.9z M60,82.4c0,0-0.8,0.2-1.6,0.5c-0.8,0.2-1.6,0.4-1.6,0.4c0,0-0.8,0.1-1.6,0.3
	c-0.8,0.1-1.7,0.2-1.7,0.2c0.4,0.5,1.2,0.6,1.6,0.7l0,0c-0.4,0.1-0.9,0.4-0.9,0.8c0,0.2,0.1,0.3,0.2,0.4c0.3,0,0.6,0.1,0.8,0.2
	c0.2,0,0.3,0,0.5-0.1c0.6-0.1,1.3-0.3,1.2-1c0-0.1-0.1-0.4-0.3-0.4c-0.1,0-0.1,0.1-0.2,0.2c-0.1,0.1-0.1,0.2-0.3,0.2
	c-0.3,0-0.5-0.1-0.5-0.4c0-0.3,0.2-0.5,0.4-0.6c0.6-0.1,1,0.6,1.1,1.1c-0.1-0.5-0.1-1.3,0.6-1.4c0.3-0.1,0.5,0.1,0.6,0.3
	c0.1,0.2,0,0.5-0.3,0.6c-0.1,0-0.3,0-0.4-0.1c-0.1-0.1-0.2-0.1-0.2-0.1c-0.2,0-0.1,0.3-0.1,0.4c0.1,0.7,1,0.6,1.5,0.4
	c0.5-0.1,1.4-0.4,1.1-1c-0.2-0.4-0.7-0.5-1.1-0.4l0,0C59.1,83.4,59.8,83,60,82.4z M65.3,81.2L65.3,81.2c0.2-0.2,0.4-0.4,0.6-0.6
	c0.1-0.1,0.2-0.3,0.3-0.4c0.1-0.1,0.1-0.3,0.1-0.5c0,0,0,0-0.1,0.1c-0.1,0-0.2,0.1-0.3,0.2c-0.3,0.1-0.7,0.3-1,0.5
	c-0.2,0.1-0.4,0.2-0.6,0.3c-0.2,0.1-0.3,0.2-0.5,0.2c-0.3,0.1-0.5,0.2-0.5,0.2c0,0-0.2,0.1-0.5,0.2c-0.3,0.1-0.7,0.3-1.1,0.4
	c-0.4,0.1-0.8,0.3-1.1,0.4c-0.3,0.1-0.5,0.2-0.5,0.2c0.4,0.4,1.3,0.4,1.7,0.3l0,0c-0.4,0.2-0.8,0.6-0.7,1c0.1,0.3,0.3,0.4,0.7,0.4
	c0.2,0,0.3,0,0.5-0.1c0.2,0,0.3-0.1,0.4-0.2c0.6-0.2,1.2-0.5,1-1.2c0-0.1-0.2-0.4-0.3-0.3c-0.1,0-0.1,0.1-0.1,0.2
	c0,0.1-0.1,0.2-0.3,0.3c-0.3,0.1-0.5,0-0.6-0.3c-0.1-0.3,0.1-0.5,0.3-0.6c0.3-0.1,0.6,0,0.8,0.2c0.2,0.2,0.4,0.4,0.5,0.7
	c-0.2-0.5-0.3-1.2,0.3-1.5c0.2-0.1,0.5,0,0.7,0.2c0.1,0.2,0.1,0.5-0.2,0.6c-0.1,0.1-0.3,0-0.4,0C64.1,82,64.1,82,64,82
	c-0.2,0.1-0.1,0.4,0,0.5c0.3,0.7,1.1,0.4,1.6,0.1c0.4-0.2,1.3-0.6,0.9-1.2C66.2,81,65.6,81,65.3,81.2z M71.2,77.4L71.2,77.4
	c0.1-0.2,0.3-0.4,0.5-0.7c0.1-0.3,0.2-0.6,0.2-0.9c0,0-0.2,0.1-0.4,0.3c-0.2,0.2-0.6,0.5-0.9,0.7c-0.2,0.1-0.3,0.3-0.5,0.4
	c-0.2,0.1-0.3,0.2-0.4,0.3c-0.3,0.2-0.4,0.3-0.4,0.3v0c0,0-0.2,0.1-0.4,0.3c-0.3,0.2-0.6,0.4-1,0.6c-0.3,0.2-0.7,0.4-1,0.6
	c-0.3,0.2-0.5,0.3-0.5,0.3c0.3,0.2,0.6,0.2,0.9,0.2c0.3,0,0.6-0.1,0.8-0.2l0,0c-0.1,0.1-0.2,0.1-0.2,0.2c-0.1,0.1-0.1,0.2-0.2,0.3
	c-0.1,0.2-0.1,0.4,0,0.6c0.2,0.3,0.4,0.4,0.7,0.3c0.3-0.1,0.6-0.3,0.8-0.4c0.3-0.2,0.5-0.4,0.7-0.6c0.2-0.2,0.2-0.5,0-0.8
	c-0.1-0.1-0.2-0.3-0.4-0.2c0,0,0,0.1-0.1,0.2c0,0.1-0.1,0.2-0.2,0.3c-0.2,0.2-0.5,0-0.6-0.2c-0.1-0.2-0.1-0.5,0.2-0.7
	c0.3-0.2,0.5-0.1,0.8,0c0.2,0.1,0.5,0.4,0.6,0.6c-0.3-0.4-0.6-1.2,0-1.5c0.2-0.1,0.5-0.1,0.7,0.1c0.2,0.2,0.2,0.5-0.1,0.6
	c-0.1,0.1-0.3,0.1-0.4,0.1c-0.1,0-0.2,0-0.2,0c-0.1,0.1,0,0.4,0.1,0.5c0.2,0.3,0.5,0.3,0.8,0.3c0.1,0,0.3-0.1,0.4-0.2
	c0.1-0.1,0.3-0.2,0.4-0.3c0.4-0.3,1.1-0.9,0.6-1.4C72.1,77.1,71.5,77.2,71.2,77.4z M76.8,72.3c-0.2,0.1-0.4,0.2-0.6,0.3l0,0
	c0.2-0.4,0.5-1.1,0.3-1.7c0,0-0.1,0.2-0.3,0.4c-0.1,0.1-0.2,0.3-0.3,0.4c-0.1,0.1-0.3,0.3-0.4,0.5c-0.1,0.2-0.3,0.3-0.4,0.5
	c-0.1,0.2-0.2,0.3-0.4,0.4c-0.2,0.2-0.4,0.4-0.4,0.4c0,0-0.1,0.2-0.4,0.4c-0.2,0.2-0.5,0.5-0.8,0.8c-0.3,0.3-0.6,0.6-0.8,0.8
	c-0.2,0.2-0.4,0.3-0.4,0.3c0.3,0.1,0.6,0.1,0.9,0c0.3-0.1,0.6-0.3,0.8-0.4l0,0c-0.1,0.2-0.3,0.4-0.3,0.6c-0.1,0.2-0.1,0.4,0.1,0.6
	c0.2,0.3,0.5,0.3,0.8,0.1c0.3-0.1,0.5-0.4,0.7-0.6c0.5-0.4,0.9-0.9,0.4-1.5c-0.1-0.1-0.3-0.3-0.4-0.1c0,0,0,0.1,0,0.2
	c0,0.1,0,0.2-0.1,0.3c-0.2,0.2-0.5,0.1-0.6,0c-0.2-0.2-0.2-0.5,0-0.7c0.4-0.5,1.1-0.1,1.5,0.3c-0.4-0.4-0.8-1-0.3-1.5
	c0.2-0.2,0.5-0.3,0.7-0.1c0.2,0.2,0.3,0.4,0.1,0.6c-0.1,0.1-0.2,0.1-0.3,0.1c-0.1,0-0.2,0-0.2,0c-0.1,0.1,0.1,0.3,0.2,0.4
	c0.3,0.3,0.6,0.2,0.8,0.1c0.3-0.1,0.5-0.4,0.7-0.6c0.2-0.2,0.4-0.5,0.5-0.7c0.1-0.3,0.1-0.5-0.2-0.7C77.2,72.2,77,72.2,76.8,72.3z
	 M80.2,66.9L80.2,66.9c0.1-0.4,0.3-1.2-0.1-1.8c0,0-0.1,0.2-0.2,0.5c-0.1,0.3-0.3,0.7-0.5,1c-0.2,0.4-0.4,0.7-0.6,1
	c-0.1,0.1-0.2,0.2-0.2,0.3c0,0.1-0.1,0.1-0.1,0.1l0,0c0,0-0.1,0.2-0.3,0.4c-0.2,0.3-0.4,0.6-0.6,1c-0.2,0.3-0.5,0.7-0.7,0.9
	c-0.2,0.2-0.3,0.4-0.3,0.4c0.3,0,0.6-0.1,0.9-0.2c0.3-0.2,0.5-0.4,0.7-0.5l0,0c-0.2,0.4-0.3,0.9,0,1.2c0.5,0.5,1.1-0.3,1.3-0.7
	c0.2-0.3,0.4-0.5,0.4-0.8c0-0.3,0-0.5-0.3-0.7c-0.1-0.1-0.4-0.2-0.5,0c0,0,0,0.1,0,0.2c0,0.1,0,0.2-0.1,0.4
	c-0.1,0.2-0.4,0.2-0.6,0.1c-0.2-0.2-0.3-0.5-0.1-0.7c0.3-0.5,1.1-0.3,1.5,0c-0.2-0.1-0.5-0.3-0.6-0.6c-0.1-0.1-0.1-0.2-0.1-0.4
	c0-0.1,0-0.3,0.1-0.4c0.1-0.2,0.4-0.3,0.7-0.2c0.2,0.1,0.3,0.4,0.2,0.6c-0.1,0.1-0.2,0.2-0.3,0.2c-0.1,0-0.2,0-0.2,0.1
	c-0.1,0.1,0.1,0.3,0.2,0.4c0.6,0.4,1.1-0.3,1.4-0.8c0.3-0.4,0.7-1.2,0.1-1.5C80.8,66.2,80.4,66.5,80.2,66.9z M82.9,60.5L82.9,60.5
	c0-0.4,0-1.3-0.4-1.7c0,0-0.1,0.2-0.1,0.5c-0.1,0.3-0.2,0.7-0.3,1.1c-0.1,0.4-0.3,0.8-0.4,1.1c-0.1,0.1-0.1,0.3-0.1,0.4
	c0,0.1-0.1,0.1-0.1,0.1c0,0-0.1,0.2-0.2,0.5c-0.1,0.3-0.3,0.7-0.4,1.1c-0.2,0.4-0.3,0.8-0.5,1c-0.1,0.3-0.2,0.5-0.2,0.5
	c0.6,0,1.2-0.7,1.4-1l0,0c-0.1,0.4-0.1,1,0.3,1.2c0.6,0.4,1-0.5,1.2-1c0.3-0.6,0.4-1.2-0.2-1.5c-0.1-0.1-0.4-0.1-0.5,0
	c0,0.1,0,0.1,0.1,0.2c0,0.1,0.1,0.2,0,0.4c-0.1,0.3-0.4,0.3-0.6,0.2c-0.2-0.1-0.3-0.4-0.2-0.6c0.2-0.6,1-0.5,1.5-0.3
	c-0.2-0.1-0.5-0.2-0.7-0.5c-0.2-0.2-0.3-0.5-0.2-0.8c0.1-0.2,0.4-0.4,0.6-0.3c0.2,0.1,0.4,0.3,0.3,0.6c0,0.1-0.1,0.2-0.2,0.3
	c-0.1,0-0.2,0.1-0.2,0.1c-0.1,0.2,0.2,0.3,0.3,0.3c0.7,0.3,1-0.5,1.2-1.1c0.1-0.2,0.2-0.6,0.2-0.9c0-0.3-0.1-0.6-0.4-0.6
	C83.4,59.6,83.1,60.1,82.9,60.5z M84.3,53.6L84.3,53.6c-0.1-0.4-0.2-1.2-0.7-1.6c0,0-0.1,0.8-0.1,1.7c-0.1,0.8-0.2,1.7-0.2,1.7
	c0,0-0.1,0.8-0.3,1.6c-0.2,0.8-0.4,1.6-0.4,1.6c0.6-0.2,1-0.9,1.2-1.3l0,0c0,0.4,0.1,1,0.5,1.1c0.3,0.1,0.6-0.1,0.7-0.3
	c0.1-0.3,0.2-0.6,0.3-0.9c0.1-0.6,0.2-1.3-0.5-1.5c-0.1,0-0.4,0-0.4,0.1c0,0.1,0.1,0.1,0.1,0.2c0.1,0.1,0.1,0.2,0.1,0.4
	c0,0.3-0.3,0.4-0.5,0.3c-0.3-0.1-0.4-0.3-0.4-0.6c0.1-0.6,0.9-0.7,1.4-0.6c-0.5-0.1-1.2-0.4-1.1-1c0-0.3,0.3-0.5,0.5-0.5
	c0.3,0,0.5,0.2,0.4,0.5c0,0.2-0.1,0.2-0.2,0.3c-0.1,0.1-0.2,0.1-0.2,0.2c0,0.2,0.3,0.2,0.4,0.3c0.7,0.1,0.9-0.7,0.9-1.3
	c0-0.5,0.1-1.4-0.6-1.4C84.6,52.7,84.4,53.2,84.3,53.6z M83.2,45.2c0,0,0.1,0.8,0.2,1.7c0.1,0.8,0.1,1.7,0.1,1.7h0c0,0,0,0.8,0,1.7
	c0,0.8,0,1.7,0,1.7c0.5-0.3,0.8-1.1,0.9-1.5l0,0c0,0.4,0.2,0.9,0.7,1c0.4,0,0.5-0.2,0.6-0.5c0.1-0.3,0.1-0.7,0.1-0.9
	c0-0.7-0.1-1.3-0.8-1.3c-0.1,0-0.4,0-0.4,0.2c0,0.1,0.1,0.1,0.1,0.2c0.1,0.1,0.1,0.2,0.2,0.3c0,0.3-0.2,0.4-0.5,0.4
	c-0.3,0-0.5-0.2-0.5-0.5c0-0.6,0.7-0.9,1.2-0.9c-0.5,0-1.3-0.1-1.3-0.8c0-0.3,0.2-0.5,0.4-0.5c0.3,0,0.5,0.1,0.5,0.4
	c0,0.2,0,0.3-0.1,0.3c-0.1,0.1-0.1,0.1-0.1,0.2c0,0.2,0.3,0.2,0.4,0.2c0.7,0,0.7-0.9,0.7-1.4c0-0.2-0.1-0.6-0.2-0.9
	c-0.1-0.3-0.3-0.5-0.6-0.4c-0.5,0.1-0.6,0.7-0.6,1.1l0,0C84.1,46.2,83.8,45.5,83.2,45.2z M81.5,38.6c0,0,0,0,0.1,0.1
	c0,0.1,0.1,0.2,0.1,0.4c0.1,0.3,0.2,0.7,0.4,1.1c0.2,0.8,0.5,1.6,0.5,1.6h0c0,0,0,0.1,0,0.1c0,0.1,0.1,0.2,0.1,0.4
	c0.1,0.3,0.2,0.7,0.3,1.1c0.1,0.8,0.3,1.6,0.3,1.6c0.5-0.4,0.6-1.2,0.6-1.7l0,0c0.1,0.4,0.4,0.9,0.9,0.8c0.4,0,0.5-0.3,0.5-0.6
	c0-0.3,0-0.7-0.1-0.9c-0.1-0.6-0.3-1.2-1.1-1.1c-0.1,0-0.4,0.1-0.3,0.3c0,0.1,0.1,0.1,0.2,0.1c0.1,0.1,0.2,0.1,0.2,0.3
	c0.1,0.3-0.1,0.5-0.4,0.5c-0.3,0.1-0.5-0.1-0.6-0.4c-0.1-0.6,0.6-1,1-1.1c-0.5,0.1-1.3,0.1-1.4-0.5c-0.1-0.3,0.1-0.5,0.3-0.6
	c0.2-0.1,0.5,0,0.6,0.3c0,0.1,0,0.3,0,0.4c0,0.1-0.1,0.2-0.1,0.2c0,0.2,0.3,0.1,0.5,0.1c0.7-0.2,0.5-1,0.4-1.5
	c-0.2-0.5-0.4-1.4-1.1-1.1c-0.4,0.2-0.5,0.8-0.4,1.2l0,0C82.6,39.4,82.1,38.7,81.5,38.6z M78.5,32.5c0,0,0,0,0.1,0.1
	c0,0.1,0.1,0.2,0.2,0.3c0.2,0.3,0.4,0.6,0.6,1c0.1,0.1,0.1,0.2,0.2,0.3c0,0.1,0.1,0.2,0.1,0.3c0.1,0.2,0.2,0.3,0.2,0.5
	c0.1,0.3,0.2,0.5,0.2,0.5c0,0,0,0,0.1,0.1c0,0.1,0.1,0.2,0.2,0.3c0.1,0.3,0.3,0.7,0.5,1c0.1,0.2,0.2,0.4,0.2,0.6
	c0.1,0.2,0.1,0.4,0.2,0.5c0.1,0.3,0.2,0.5,0.2,0.5c0.4-0.5,0.3-1.3,0.2-1.7l0,0c0.2,0.4,0.6,0.8,1,0.6c0.3-0.1,0.4-0.4,0.4-0.7
	c0-0.2-0.1-0.3-0.1-0.5c-0.1-0.1-0.1-0.3-0.2-0.4c-0.3-0.6-0.6-1.2-1.3-0.9c-0.1,0-0.4,0.2-0.3,0.4c0,0.1,0.1,0.1,0.2,0.1
	c0.1,0,0.2,0.1,0.3,0.2c0.1,0.3,0,0.5-0.3,0.6c-0.2,0.1-0.5,0-0.6-0.3c-0.3-0.6,0.3-1.1,0.8-1.3c-0.5,0.2-1.2,0.4-1.5-0.2
	c-0.1-0.2-0.1-0.5,0.2-0.7c0.2-0.1,0.5-0.1,0.6,0.2c0.1,0.1,0.1,0.3,0,0.4c0,0.1-0.1,0.2,0,0.2c0.1,0.1,0.4,0.1,0.5,0
	c0.7-0.3,0.3-1.1,0.1-1.6c-0.3-0.4-0.7-1.3-1.3-0.8c-0.4,0.3-0.3,0.8-0.1,1.2l0,0C79.7,33.1,79.1,32.5,78.5,32.5z M74.3,27.1
	c0,0,0.1,0.2,0.4,0.4c0.2,0.2,0.5,0.6,0.8,0.9c0.1,0.2,0.3,0.3,0.4,0.5c0.1,0.2,0.2,0.3,0.3,0.4c0.2,0.2,0.3,0.4,0.3,0.4v0
	c0,0,0.1,0.2,0.3,0.4c0.2,0.3,0.4,0.6,0.7,0.9c0.1,0.2,0.2,0.3,0.4,0.5c0.1,0.2,0.2,0.3,0.3,0.5c0.2,0.3,0.3,0.4,0.3,0.4
	c0.1-0.3,0.2-0.6,0.1-0.9c0-0.2-0.1-0.3-0.1-0.5c0-0.1-0.1-0.3-0.1-0.4l0,0c0.3,0.3,0.7,0.6,1.2,0.4c0.3-0.2,0.3-0.4,0.2-0.7
	c-0.1-0.3-0.3-0.6-0.5-0.8c-0.2-0.3-0.4-0.5-0.6-0.7c-0.2-0.1-0.5-0.1-0.8,0.1c-0.1,0.1-0.3,0.3-0.2,0.4c0,0,0.1,0,0.2,0.1
	c0.1,0,0.2,0.1,0.3,0.2c0.2,0.2,0.1,0.5-0.1,0.6c-0.2,0.2-0.5,0.1-0.7-0.1c-0.2-0.3-0.2-0.5,0-0.8c0.1-0.3,0.3-0.5,0.5-0.6
	c-0.4,0.3-1.1,0.6-1.5,0.1c-0.2-0.2-0.2-0.5,0-0.7c0.2-0.2,0.5-0.2,0.6,0c0.1,0.1,0.1,0.2,0.1,0.4c0,0.1,0,0.2,0,0.2
	c0.1,0.1,0.4,0,0.4-0.1c0.3-0.2,0.3-0.5,0.2-0.8c0-0.1-0.1-0.3-0.2-0.4c-0.1-0.1-0.2-0.3-0.3-0.4c-0.3-0.4-0.9-1.1-1.4-0.6
	c-0.3,0.3-0.1,0.9,0.1,1.2l0,0c-0.2-0.1-0.4-0.3-0.7-0.4C75,27.1,74.6,27.1,74.3,27.1z M69.2,22.7c0,0,0.2,0.1,0.4,0.3
	c0.1,0.1,0.3,0.2,0.4,0.3c0.2,0.1,0.3,0.3,0.5,0.4c0.3,0.3,0.7,0.5,0.9,0.7c0.2,0.2,0.4,0.3,0.4,0.3c0,0,0.2,0.1,0.4,0.3
	c0.1,0.1,0.3,0.2,0.4,0.4c0.1,0.1,0.3,0.3,0.4,0.4c0.3,0.3,0.6,0.6,0.8,0.8c0.2,0.2,0.4,0.4,0.4,0.4c0.1-0.3,0-0.6-0.1-0.9
	c-0.1-0.3-0.3-0.6-0.4-0.7l0,0c0.2,0.1,0.4,0.2,0.6,0.3c0.2,0,0.4,0,0.6-0.1c0.6-0.5-0.2-1.1-0.5-1.4c-0.5-0.5-1-0.8-1.5-0.3
	c-0.1,0.1-0.3,0.3-0.1,0.4c0,0,0.1,0,0.2,0c0.1,0,0.2,0,0.3,0.1c0.2,0.2,0.2,0.5,0,0.6c-0.2,0.2-0.5,0.2-0.7,0
	c-0.5-0.4-0.1-1.1,0.2-1.5c-0.3,0.4-1,0.8-1.5,0.4c-0.2-0.2-0.3-0.5-0.1-0.7c0.2-0.2,0.4-0.3,0.6-0.1c0.1,0.1,0.2,0.2,0.2,0.3
	c0,0.1,0,0.2,0,0.2c0.1,0.1,0.3-0.1,0.4-0.2c0.2-0.3,0.2-0.6,0.1-0.8c-0.1-0.3-0.4-0.5-0.7-0.7c-0.2-0.1-0.5-0.4-0.7-0.5
	c-0.3-0.1-0.6-0.1-0.7,0.2c-0.2,0.4,0.1,0.9,0.4,1.2l0,0C70.5,22.7,69.8,22.5,69.2,22.7z M63.3,19.4c0,0,0.2,0.1,0.5,0.2
	c0.1,0.1,0.3,0.1,0.5,0.2c0.1,0,0.2,0.1,0.3,0.1c0.1,0,0.2,0.1,0.3,0.1c0.4,0.2,0.7,0.4,1,0.5c0.1,0.1,0.3,0.1,0.3,0.2
	c0.1,0,0.1,0.1,0.1,0.1v0c0,0,0.2,0.1,0.5,0.3c0.3,0.2,0.6,0.4,1,0.6c0.4,0.2,0.7,0.5,1,0.6c0.1,0.1,0.2,0.2,0.3,0.2
	c0.1,0.1,0.1,0.1,0.1,0.1c0.1-0.6-0.5-1.3-0.8-1.6l0,0c0.4,0.2,0.9,0.3,1.2-0.1c0.5-0.6-0.4-1-0.8-1.3c-0.5-0.4-1.1-0.6-1.5,0
	c-0.1,0.1-0.2,0.4,0,0.5c0,0,0.1,0,0.2,0c0.1,0,0.2,0,0.4,0c0.2,0.1,0.3,0.4,0.1,0.6c-0.1,0.2-0.5,0.3-0.7,0.1
	c-0.5-0.3-0.3-1.1-0.1-1.5c-0.3,0.4-0.8,1-1.3,0.7c-0.2-0.1-0.4-0.4-0.2-0.7c0.1-0.2,0.4-0.4,0.6-0.2c0.1,0.1,0.2,0.2,0.2,0.3
	c0,0.1,0,0.2,0.1,0.2c0.1,0.1,0.3-0.2,0.4-0.3c0.4-0.7-0.3-1.1-0.9-1.3c-0.4-0.2-1.3-0.6-1.5,0c-0.2,0.4,0.2,0.8,0.6,1.1l0,0
	C64.6,19.1,63.8,19,63.3,19.4z M56.8,17.3c0,0,0.8,0.2,1.6,0.4c0.4,0.1,0.8,0.2,1.1,0.3c0.2,0,0.3,0.1,0.4,0.1c0.1,0,0.1,0,0.1,0v0
	c0,0,0.2,0.1,0.5,0.2c0.3,0.1,0.7,0.2,1.1,0.4c0.4,0.2,0.8,0.3,1.1,0.4c0.1,0.1,0.3,0.1,0.4,0.1c0.1,0,0.1,0.1,0.1,0.1
	c-0.1-0.6-0.8-1.1-1.1-1.4l0,0c0.4,0.1,1,0.1,1.2-0.3c0.3-0.6-0.6-1-1.1-1.1c-0.6-0.2-1.2-0.4-1.5,0.3c-0.1,0.1-0.1,0.4,0.1,0.5
	c0.1,0,0.1,0,0.2-0.1c0.1,0,0.2-0.1,0.4,0c0.3,0.1,0.3,0.3,0.2,0.6c-0.1,0.3-0.4,0.4-0.6,0.3c-0.6-0.2-0.5-1-0.4-1.5
	c-0.2,0.5-0.6,1.1-1.2,1c-0.3-0.1-0.4-0.3-0.4-0.6c0.1-0.2,0.3-0.4,0.5-0.3c0.1,0,0.2,0.1,0.3,0.2c0,0.1,0.1,0.2,0.1,0.2
	c0.2,0,0.3-0.2,0.3-0.3c0.2-0.7-0.6-1-1.1-1.1c-0.2-0.1-0.6-0.1-0.9-0.1c-0.3,0-0.5,0.1-0.6,0.5c-0.1,0.5,0.4,0.8,0.8,0.9l0,0
	C58,16.8,57.2,16.9,56.8,17.3z M53.3,14.1c0.2,0.3,0.3,0.6,0.3,1c0-0.4,0.2-0.7,0.4-0.9c-0.2,0-0.4,0-0.6-0.1
	C53.3,14.2,53.3,14.1,53.3,14.1z M51.3,14.4c0,0.3-0.2,0.6-0.4,0.7c-0.1,0-0.1,0.1-0.2,0.1c0.1,0.3,0.6,0.5,0.9,0.6l0,0
	c-0.4,0.1-1.2,0.3-1.6,0.8c0,0,0.8,0,1.7,0c0.8,0.1,1.7,0.1,1.7,0.1c0,0,0.8,0.1,1.7,0.2c0.8,0.1,1.6,0.3,1.6,0.3
	c-0.2-0.6-1-1-1.4-1.1l0,0c0.4,0,1-0.1,1.1-0.5c0.1-0.3-0.1-0.5-0.4-0.7c-0.3-0.1-0.6-0.2-0.9-0.2c-0.6-0.1-1.3-0.1-1.4,0.6
	c0,0.1,0,0.4,0.2,0.4c0.1,0,0.1-0.1,0.2-0.1c0.1-0.1,0.2-0.1,0.3-0.1c0.3,0,0.4,0.3,0.4,0.5c0,0.3-0.3,0.4-0.6,0.4
	c-0.6-0.1-0.7-0.9-0.7-1.4c-0.1,0.5-0.3,1.2-1,1.2c-0.3,0-0.5-0.2-0.5-0.5c0-0.3,0.2-0.5,0.5-0.4c0.2,0,0.3,0.1,0.3,0.2
	c0.1,0.1,0.1,0.2,0.2,0.2c0.2,0,0.2-0.3,0.2-0.4c0.1-0.7-0.7-0.9-1.3-0.9C51.8,14.4,51.5,14.4,51.3,14.4z M49.4,15.4L49.4,15.4
	C49.5,15.5,49.5,15.4,49.4,15.4C49.4,15.4,49.4,15.4,49.4,15.4z M46,14.2c0.2,0.2,0.4,0.5,0.4,0.9c0-0.4,0.1-0.7,0.3-1
	c0,0-0.1,0-0.1,0C46.3,14.2,46.1,14.2,46,14.2z M43.2,17.3c0,0,0.8-0.1,1.7-0.3c0.8-0.1,1.7-0.2,1.7-0.2v0c0,0,0.8-0.1,1.7-0.1
	c0.8,0,1.7,0,1.7,0c-0.3-0.5-1.1-0.7-1.6-0.8l0,0c0.3-0.1,0.8-0.2,0.9-0.6c-0.1-0.1-0.1-0.1-0.2-0.1c-0.2-0.1-0.4-0.3-0.4-0.7
	c-0.3,0-0.6,0-0.8,0c-0.6,0-1.3,0.1-1.3,0.9c0,0.1,0.1,0.4,0.2,0.4c0.1,0,0.1-0.1,0.2-0.2c0.1-0.1,0.2-0.2,0.3-0.2
	c0.3,0,0.4,0.2,0.5,0.4c0,0.3-0.2,0.5-0.5,0.5c-0.6,0-0.9-0.7-0.9-1.2c0,0.5-0.1,1.3-0.7,1.4c-0.3,0-0.5-0.1-0.6-0.4
	c0-0.3,0.1-0.5,0.4-0.5c0.2,0,0.3,0,0.3,0.1c0.1,0.1,0.1,0.1,0.2,0.1c0.2,0,0.2-0.3,0.2-0.4c-0.1-0.7-0.9-0.7-1.5-0.6
	c-0.2,0-0.6,0.1-0.9,0.2c-0.3,0.1-0.5,0.3-0.4,0.7c0.1,0.4,0.7,0.6,1.1,0.5l0,0C44.2,16.4,43.4,16.7,43.2,17.3z M37.8,18L37.8,18
	c-0.4,0.3-1,0.8-1.1,1.4c0,0,0,0,0.1-0.1c0.1,0,0.2-0.1,0.4-0.1c0.3-0.1,0.7-0.3,1.1-0.4c0.4-0.1,0.8-0.3,1.1-0.4
	c0.3-0.1,0.5-0.2,0.5-0.2c0,0,0,0,0.1,0c0.1,0,0.2-0.1,0.4-0.1c0.3-0.1,0.7-0.2,1.1-0.3c0.8-0.2,1.6-0.4,1.6-0.4
	c-0.4-0.5-1.3-0.5-1.7-0.5l0,0c0.4-0.1,0.8-0.5,0.8-0.9c0-0.4-0.3-0.5-0.6-0.5c-0.3,0-0.7,0.1-0.9,0.2c-0.6,0.2-1.2,0.4-1.1,1.1
	c0,0.1,0.1,0.4,0.3,0.3c0.1,0,0.1-0.1,0.1-0.2c0.1-0.1,0.1-0.2,0.3-0.2c0.3-0.1,0.5,0.1,0.5,0.3c0.1,0.3-0.1,0.5-0.4,0.6
	c-0.6,0.2-1-0.5-1.2-1c0.2,0.5,0.2,1.3-0.4,1.5c-0.2,0.1-0.5,0-0.6-0.3c-0.1-0.2,0-0.5,0.3-0.6c0.1,0,0.3,0,0.4,0
	c0.1,0,0.2,0.1,0.2,0.1c0.2-0.1,0.1-0.3,0.1-0.5c-0.2-0.7-1-0.5-1.6-0.3c-0.5,0.2-1.3,0.5-1,1.1C36.9,18,37.4,18.1,37.8,18z
	 M35.7,20.1c-0.4,0.2-0.7,0.3-1,0.5c-0.3,0.1-0.5,0.3-0.7,0.4c-0.2,0.1-0.3,0.1-0.3,0.1c0,0-0.4,0.2-0.9,0.5
	c-0.3,0.2-0.6,0.4-0.9,0.6c-0.2,0.1-0.3,0.2-0.5,0.3c-0.2,0.1-0.3,0.2-0.5,0.4c-0.3,0.2-0.7,0.5-1,0.7c-0.3,0.2-0.6,0.5-0.9,0.7
	c-0.1,0.1-0.2,0.2-0.3,0.3c-0.1,0.1-0.2,0.2-0.3,0.2c-0.1,0.1-0.2,0.2-0.2,0.2v0c0,0-0.1,0.1-0.2,0.2c-0.1,0.1-0.3,0.3-0.6,0.5
	c-0.5,0.4-1.1,1-1.7,1.6c-0.1,0.2-0.3,0.3-0.4,0.5c-0.1,0.1-0.3,0.3-0.4,0.5c-0.3,0.3-0.5,0.6-0.7,0.8c-0.4,0.5-0.7,0.8-0.7,0.8h0
	c0,0-0.1,0.1-0.2,0.2c-0.1,0.1-0.1,0.2-0.2,0.3c-0.1,0.1-0.2,0.2-0.3,0.4c-0.2,0.3-0.4,0.6-0.6,0.9c-0.2,0.3-0.4,0.7-0.7,1
	c-0.2,0.4-0.4,0.7-0.6,1.1c-0.2,0.3-0.4,0.7-0.5,0.9c-0.3,0.6-0.5,0.9-0.5,0.9c0,0,0,0.1-0.1,0.3c-0.1,0.2-0.2,0.4-0.3,0.7
	c-0.1,0.1-0.1,0.3-0.2,0.5c-0.1,0.2-0.2,0.3-0.2,0.5c-0.1,0.4-0.3,0.8-0.5,1.2c-0.1,0.4-0.3,0.8-0.4,1.2c-0.1,0.2-0.1,0.4-0.2,0.5
	c0,0.2-0.1,0.3-0.1,0.5c-0.2,0.6-0.3,1-0.3,1c0,0,0,0.1-0.1,0.3c0,0.2-0.1,0.4-0.2,0.7c-0.2,0.6-0.3,1.5-0.4,2.3
	c-0.1,0.8-0.2,1.7-0.3,2.3c0,0.3,0,0.6-0.1,0.8c0,0.2,0,0.3,0,0.3c0,0,0,0.4,0,1.1c0,0.6,0,1.5,0,2.3c0,0.4,0.1,0.8,0.1,1.2
	c0,0.2,0,0.4,0,0.6c0,0.2,0,0.4,0.1,0.5c0.1,0.6,0.1,1,0.1,1c0,0,0.1,0.4,0.2,1c0.1,0.6,0.3,1.4,0.5,2.3c0.2,0.8,0.4,1.6,0.7,2.2
	c0.1,0.3,0.2,0.6,0.2,0.7c0.1,0.2,0.1,0.3,0.1,0.3c0,0,0.2,0.4,0.4,1c0.1,0.1,0.1,0.3,0.2,0.5c0.1,0.2,0.2,0.3,0.2,0.5
	c0.1,0.2,0.2,0.4,0.3,0.6c0.1,0.2,0.2,0.4,0.3,0.6c0.2,0.4,0.4,0.8,0.6,1.1c0.2,0.3,0.4,0.7,0.5,0.9c0.3,0.6,0.5,0.9,0.5,0.9
	c0,0,0.2,0.4,0.6,0.9c0.2,0.3,0.4,0.6,0.6,0.9c0.1,0.2,0.2,0.3,0.4,0.5c0.1,0.2,0.3,0.3,0.4,0.5c0.3,0.3,0.5,0.7,0.8,1
	c0.3,0.3,0.5,0.6,0.7,0.8c0.2,0.2,0.4,0.4,0.5,0.6c0.1,0.1,0.2,0.2,0.2,0.2h0c0,0,0.1,0.1,0.2,0.2c0.1,0.1,0.3,0.3,0.5,0.5
	c0.2,0.2,0.5,0.5,0.8,0.7c0.1,0.1,0.1,0.1,0.2,0.2c0.1,0.1,0.2,0.1,0.2,0.2c0.2,0.1,0.3,0.3,0.5,0.4c0.2,0.1,0.3,0.3,0.5,0.4
	c0.2,0.1,0.3,0.3,0.5,0.4c0.3,0.2,0.6,0.5,0.9,0.7c0.5,0.4,0.9,0.6,0.9,0.6c0,0,0.1,0.1,0.2,0.2c0.1,0.1,0.4,0.2,0.6,0.4
	c0.3,0.2,0.6,0.4,0.9,0.6c0.3,0.2,0.7,0.4,1.1,0.6l0.3,0.2c0.1,0,0.2,0.1,0.3,0.1c0.2,0.1,0.4,0.2,0.5,0.3c0.4,0.2,0.7,0.4,1,0.5
	c0.6,0.3,1,0.4,1,0.4s0,0,0.1,0c0,0,0.1,0.1,0.2,0.1c0.2,0.1,0.4,0.2,0.7,0.3c0.1,0.1,0.3,0.1,0.5,0.2c0.1,0,0.2,0.1,0.3,0.1
	c0.1,0,0.2,0.1,0.3,0.1c0.4,0.1,0.8,0.3,1.2,0.4c0.4,0.1,0.8,0.2,1.2,0.3c0.2,0.1,0.4,0.1,0.6,0.2c0.2,0,0.3,0.1,0.5,0.1
	c0.6,0.1,1,0.2,1,0.2c0,0,0.4,0.1,1,0.2c0.2,0,0.3,0.1,0.5,0.1c0.2,0,0.4,0,0.6,0.1c0.4,0,0.8,0.1,1.2,0.2c0.8,0.1,1.7,0.1,2.3,0.1
	c0.6,0,1.1,0,1.1,0c0,0,0.4,0,1.1,0c0.6,0,1.5-0.1,2.3-0.1c0.4-0.1,0.8-0.1,1.2-0.2c0.2,0,0.4,0,0.6-0.1c0.2,0,0.3-0.1,0.5-0.1
	c0.6-0.1,1-0.2,1-0.2v0c0,0,0.4-0.1,1-0.2c0.2,0,0.3-0.1,0.5-0.1c0.2,0,0.4-0.1,0.6-0.2c0.4-0.1,0.8-0.2,1.2-0.3
	c0.4-0.1,0.8-0.3,1.2-0.4c0.1,0,0.2-0.1,0.3-0.1c0.1,0,0.2-0.1,0.3-0.1c0.2-0.1,0.3-0.1,0.5-0.2c0.3-0.1,0.5-0.2,0.7-0.3
	c0.1,0,0.2-0.1,0.2-0.1c0,0,0.1,0,0.1,0c0,0,0.4-0.2,1-0.4c0.3-0.1,0.6-0.3,1-0.5c0.2-0.1,0.4-0.2,0.5-0.3c0.1,0,0.2-0.1,0.3-0.1
	l0.3-0.2c0.4-0.2,0.7-0.4,1.1-0.6c0.3-0.2,0.6-0.4,0.9-0.6c0.3-0.2,0.5-0.3,0.6-0.4c0.2-0.1,0.2-0.2,0.2-0.2h0c0,0,0.3-0.2,0.9-0.6
	c0.2-0.2,0.5-0.4,0.9-0.7c0.2-0.1,0.3-0.2,0.5-0.4c0.2-0.1,0.3-0.3,0.5-0.4c0.2-0.1,0.3-0.3,0.5-0.4c0.1-0.1,0.2-0.1,0.2-0.2
	c0.1-0.1,0.1-0.1,0.2-0.2c0.3-0.3,0.6-0.5,0.8-0.7c0.2-0.2,0.4-0.4,0.5-0.5c0.1-0.1,0.2-0.2,0.2-0.2c0,0,0.1-0.1,0.2-0.2
	c0.1-0.1,0.3-0.3,0.5-0.6c0.2-0.2,0.4-0.5,0.7-0.8c0.3-0.3,0.5-0.6,0.8-1c0.1-0.2,0.3-0.3,0.4-0.5c0.1-0.2,0.2-0.3,0.4-0.5
	c0.2-0.3,0.4-0.6,0.6-0.9c0.3-0.5,0.6-0.9,0.6-0.9h0c0,0,0.2-0.4,0.5-0.9c0.2-0.3,0.3-0.6,0.5-0.9c0.2-0.4,0.4-0.7,0.6-1.1
	c0.1-0.2,0.2-0.4,0.3-0.6c0.1-0.2,0.2-0.4,0.3-0.6c0.1-0.2,0.2-0.4,0.2-0.5c0.1-0.2,0.1-0.3,0.2-0.5c0.2-0.6,0.4-1,0.4-1h0
	c0,0,0-0.1,0.1-0.3c0.1-0.2,0.1-0.4,0.2-0.7c0.2-0.6,0.4-1.4,0.7-2.2c0.2-0.8,0.4-1.6,0.5-2.3c0.1-0.6,0.2-1,0.2-1
	c0,0,0.1-0.4,0.1-1c0-0.2,0-0.3,0.1-0.5c0-0.2,0-0.4,0-0.6c0-0.4,0.1-0.8,0.1-1.2c0-0.8,0.1-1.7,0-2.3c0-0.6,0-1.1,0-1.1
	c0,0,0-0.1,0-0.3c0-0.2,0-0.4-0.1-0.8c0-0.6-0.2-1.5-0.3-2.3c-0.2-0.8-0.3-1.7-0.4-2.3c-0.1-0.3-0.1-0.6-0.2-0.7
	c0-0.2-0.1-0.3-0.1-0.3c0,0-0.1-0.4-0.3-1c0-0.2-0.1-0.3-0.1-0.5c-0.1-0.2-0.1-0.4-0.2-0.5c-0.1-0.4-0.3-0.8-0.4-1.2
	c-0.2-0.4-0.3-0.8-0.5-1.2c-0.1-0.2-0.1-0.4-0.2-0.5c-0.1-0.2-0.1-0.3-0.2-0.5c-0.1-0.3-0.2-0.5-0.3-0.7c-0.1-0.2-0.1-0.3-0.1-0.3
	l0,0c0,0-0.2-0.4-0.5-0.9c-0.1-0.3-0.3-0.6-0.5-0.9c-0.2-0.3-0.4-0.7-0.6-1.1c-0.2-0.4-0.5-0.7-0.7-1c-0.2-0.3-0.4-0.6-0.6-0.9
	c-0.1-0.1-0.2-0.2-0.3-0.4c-0.1-0.1-0.1-0.2-0.2-0.3c-0.1-0.1-0.2-0.2-0.2-0.2c0,0-0.3-0.3-0.7-0.8c-0.2-0.2-0.4-0.5-0.7-0.8
	c-0.1-0.1-0.3-0.3-0.4-0.5c-0.1-0.2-0.3-0.3-0.4-0.5c-0.6-0.6-1.2-1.2-1.7-1.6c-0.2-0.2-0.4-0.4-0.6-0.5C71.7,25,71.7,25,71.7,25v0
	c0,0-0.1-0.1-0.2-0.2c-0.1-0.1-0.2-0.1-0.3-0.2c-0.1-0.1-0.2-0.2-0.3-0.3c-0.2-0.2-0.5-0.4-0.9-0.7c-0.3-0.2-0.7-0.5-1-0.7
	c-0.2-0.1-0.3-0.3-0.5-0.4c-0.2-0.1-0.3-0.2-0.5-0.3c-0.3-0.2-0.6-0.4-0.9-0.6c-0.5-0.3-0.9-0.5-0.9-0.5l0,0c0,0-0.1-0.1-0.3-0.1
	c-0.2-0.1-0.4-0.2-0.7-0.4c-0.3-0.1-0.6-0.3-1-0.5c-0.4-0.2-0.7-0.3-1.1-0.5c-0.4-0.2-0.8-0.3-1.2-0.5c-0.2-0.1-0.4-0.1-0.5-0.2
	c-0.2-0.1-0.3-0.1-0.5-0.2c-0.6-0.2-1-0.3-1-0.3v0c0,0-1.6-0.5-3.3-0.8c-0.8-0.1-1.7-0.3-2.3-0.4c-0.3,0-0.6-0.1-0.8-0.1
	c-0.2,0-0.3,0-0.3,0v0c0,0-0.4,0-1.1-0.1c-0.2,0-0.3,0-0.5,0c-0.2,0-0.4,0-0.6,0c-0.4,0-0.8,0-1.2,0c-0.4,0-0.8,0-1.2,0
	c-0.2,0-0.4,0-0.6,0c-0.2,0-0.4,0-0.5,0c-0.6,0-1.1,0.1-1.1,0.1c0,0-0.1,0-0.3,0c-0.2,0-0.4,0.1-0.8,0.1c-0.6,0.1-1.5,0.2-2.3,0.4
	c-1.7,0.3-3.3,0.8-3.3,0.8v0c0,0-0.4,0.1-1,0.3c-0.2,0.1-0.3,0.1-0.5,0.2c-0.2,0.1-0.3,0.1-0.5,0.2c-0.4,0.1-0.8,0.3-1.2,0.5
	C36.4,19.8,36,19.9,35.7,20.1z M31.6,21.1L31.6,21.1c-0.3,0.3-0.9,0.9-0.8,1.6c0,0,0,0,0.1-0.1c0.1-0.1,0.2-0.1,0.3-0.2
	c0.3-0.2,0.6-0.4,1-0.6c0.3-0.2,0.7-0.4,1-0.6c0.3-0.2,0.5-0.3,0.5-0.3v0c0,0,0,0,0.1-0.1c0.1,0,0.2-0.1,0.3-0.2
	c0.3-0.1,0.7-0.3,1-0.5c0.1,0,0.2-0.1,0.3-0.1c0.1,0,0.2-0.1,0.3-0.1c0.2-0.1,0.3-0.2,0.5-0.2c0.3-0.1,0.5-0.2,0.5-0.2
	c-0.5-0.4-1.3-0.2-1.8-0.1l0,0c0.3-0.2,0.7-0.6,0.6-1.1c-0.2-0.7-1.1-0.2-1.5,0c-0.6,0.3-1.1,0.6-0.8,1.3c0,0.1,0.2,0.3,0.4,0.3
	c0,0,0.1-0.1,0.1-0.2c0-0.1,0.1-0.2,0.2-0.3c0.2-0.1,0.5,0,0.6,0.2c0.1,0.2,0,0.5-0.2,0.6c-0.6,0.3-1.1-0.3-1.3-0.7
	c0.2,0.4,0.4,1.2-0.1,1.5C32.5,21,32.2,21,32,20.8c-0.1-0.2-0.1-0.5,0.1-0.6c0.1-0.1,0.3-0.1,0.4,0c0.1,0,0.2,0.1,0.2,0
	c0.1-0.1,0-0.4,0-0.5c-0.2-0.3-0.5-0.4-0.7-0.3c-0.3,0.1-0.6,0.2-0.8,0.4c-0.4,0.3-1.2,0.8-0.8,1.3C30.7,21.3,31.2,21.2,31.6,21.1z
	 M25.5,25.6c0.2,0,0.4-0.2,0.6-0.3l0,0c-0.1,0.2-0.3,0.4-0.4,0.7c-0.1,0.3-0.2,0.6-0.1,0.9c0,0,0.1-0.2,0.4-0.4
	c0.2-0.2,0.5-0.5,0.8-0.8c0.2-0.1,0.3-0.3,0.4-0.4c0.1-0.1,0.3-0.3,0.4-0.4c0.2-0.2,0.4-0.3,0.4-0.3c0,0,0.2-0.1,0.4-0.3
	c0.2-0.2,0.6-0.5,0.9-0.7c0.2-0.1,0.3-0.3,0.5-0.4c0.2-0.1,0.3-0.2,0.4-0.3c0.3-0.2,0.4-0.3,0.4-0.3c-0.6-0.3-1.4,0-1.7,0.2l0,0
	c0.3-0.3,0.6-0.8,0.3-1.2c-0.2-0.3-0.5-0.3-0.8-0.2c-0.3,0.1-0.6,0.4-0.8,0.5c-0.3,0.2-0.5,0.4-0.6,0.6c-0.1,0.2-0.1,0.5,0.1,0.8
	c0.1,0.1,0.3,0.3,0.4,0.2c0,0,0-0.1,0-0.2c0-0.1,0-0.2,0.2-0.3c0.2-0.2,0.5-0.1,0.6,0.1c0.2,0.2,0.1,0.5-0.1,0.7
	c-0.5,0.4-1.1,0-1.4-0.4c0.3,0.4,0.7,1.1,0.2,1.5c-0.2,0.2-0.5,0.2-0.7,0c-0.2-0.2-0.2-0.5,0-0.7c0.1-0.1,0.2-0.1,0.3-0.1
	c0.1,0,0.2,0,0.2,0c0.1-0.1,0-0.4-0.1-0.4c-0.5-0.6-1.2-0.1-1.6,0.3c-0.2,0.2-0.4,0.4-0.6,0.7c-0.2,0.3-0.2,0.5,0.1,0.8
	C25.1,25.7,25.3,25.7,25.5,25.6z M21.6,30.7L21.6,30.7c0,0.1-0.1,0.2-0.1,0.4c0,0.1-0.1,0.3-0.1,0.5c0,0.3,0,0.7,0.1,0.9
	c0,0,0.1-0.2,0.3-0.4c0.1-0.1,0.2-0.3,0.3-0.5c0.1-0.2,0.2-0.3,0.4-0.5c0.2-0.3,0.5-0.7,0.7-0.9c0.2-0.2,0.3-0.4,0.3-0.4h0
	c0,0,0.1-0.2,0.3-0.4c0.1-0.1,0.2-0.3,0.3-0.4c0.1-0.1,0.3-0.3,0.4-0.5c0.3-0.3,0.5-0.6,0.8-0.9c0.2-0.2,0.4-0.4,0.4-0.4
	c-0.3-0.1-0.6,0-0.9,0.1c-0.3,0.1-0.6,0.3-0.7,0.4l0,0c0.2-0.3,0.4-0.9,0.1-1.2c-0.5-0.5-1.1,0.2-1.4,0.6c-0.1,0.1-0.2,0.2-0.3,0.4
	c-0.1,0.1-0.1,0.3-0.2,0.4c-0.1,0.3,0,0.5,0.2,0.8c0.1,0.1,0.3,0.2,0.4,0.1c0,0,0-0.1,0-0.2c0-0.1,0-0.2,0.1-0.4
	c0.2-0.2,0.4-0.2,0.6,0c0.2,0.2,0.2,0.5,0,0.7c-0.4,0.5-1.1,0.2-1.5-0.1c0.2,0.2,0.4,0.4,0.5,0.6c0.1,0.3,0.1,0.5,0,0.8
	c-0.2,0.2-0.5,0.3-0.7,0.1c-0.2-0.1-0.3-0.4-0.1-0.6c0.1-0.1,0.2-0.2,0.3-0.2c0.1,0,0.2,0,0.2-0.1c0.1-0.1-0.1-0.3-0.2-0.4
	c-0.3-0.2-0.6-0.2-0.8,0c-0.2,0.2-0.5,0.4-0.6,0.7c-0.1,0.2-0.4,0.5-0.4,0.8c-0.1,0.3-0.1,0.6,0.2,0.7C20.8,31.3,21.3,31,21.6,30.7z
	 M18.2,36.8L18.2,36.8c-0.1,0.4-0.1,1.3,0.2,1.8c0,0,0.1-0.2,0.2-0.5c0.1-0.1,0.1-0.3,0.2-0.5c0.1-0.2,0.1-0.4,0.2-0.6
	c0.2-0.4,0.3-0.8,0.5-1c0.1-0.1,0.1-0.3,0.2-0.3c0-0.1,0.1-0.1,0.1-0.1c0,0,0.1-0.2,0.2-0.5c0.1-0.1,0.2-0.3,0.2-0.5
	c0-0.1,0.1-0.2,0.1-0.3c0.1-0.1,0.1-0.2,0.2-0.3c0.2-0.4,0.4-0.7,0.6-1c0.1-0.1,0.1-0.2,0.2-0.3c0-0.1,0.1-0.1,0.1-0.1
	c-0.6,0-1.2,0.6-1.5,0.9l0,0c0.2-0.4,0.2-0.9-0.1-1.2c-0.6-0.4-1,0.4-1.3,0.9c-0.3,0.6-0.6,1.2,0.1,1.5c0.1,0.1,0.4,0.2,0.5,0
	c0,0,0-0.1,0-0.2c0-0.1,0-0.2,0-0.4c0.1-0.2,0.4-0.3,0.6-0.2c0.2,0.1,0.3,0.4,0.2,0.7c-0.3,0.6-1.1,0.4-1.5,0.2
	c0.5,0.2,1,0.7,0.8,1.3c-0.1,0.2-0.4,0.4-0.6,0.3c-0.2-0.1-0.4-0.3-0.3-0.6c0.1-0.1,0.2-0.2,0.3-0.2c0.1,0,0.2-0.1,0.2-0.1
	c0.1-0.2-0.2-0.3-0.3-0.4c-0.7-0.3-1.1,0.4-1.3,0.9c0,0.1-0.1,0.3-0.2,0.4c0,0.1-0.1,0.3-0.1,0.5c0,0.3,0,0.6,0.4,0.7
	C17.6,37.5,18,37.1,18.2,36.8z M16.1,43.4L16.1,43.4c0,0.4,0.1,1.3,0.6,1.7c0,0,0.1-0.8,0.3-1.6c0.1-0.4,0.2-0.8,0.3-1.1
	c0-0.2,0.1-0.3,0.1-0.4c0-0.1,0-0.1,0-0.1h0c0,0,0.2-0.8,0.5-1.6c0.1-0.4,0.3-0.8,0.4-1.1c0.1-0.1,0.1-0.3,0.1-0.4
	c0-0.1,0-0.1,0-0.1c-0.6,0.1-1.1,0.8-1.3,1.2l0,0c0.1-0.4,0-1-0.4-1.2c-0.6-0.3-0.9,0.6-1.1,1.1c-0.2,0.6-0.3,1.3,0.4,1.5
	c0.1,0,0.4,0.1,0.4-0.1c0-0.1,0-0.1-0.1-0.2c-0.1-0.1-0.1-0.2,0-0.4c0.1-0.3,0.3-0.4,0.6-0.3c0.3,0.1,0.4,0.4,0.3,0.6
	c-0.2,0.6-1,0.6-1.4,0.5c0.5,0.1,1.2,0.5,1,1.1c-0.1,0.3-0.3,0.5-0.6,0.4c-0.2-0.1-0.4-0.3-0.4-0.5c0-0.1,0.1-0.2,0.2-0.3
	c0.1-0.1,0.2-0.1,0.2-0.1c0-0.2-0.2-0.3-0.3-0.3c-0.7-0.2-1,0.6-1.1,1.2c-0.1,0.5-0.3,1.4,0.4,1.5C15.7,44.3,16,43.8,16.1,43.4z
	 M16.4,51.9c0,0,0-0.8,0-1.7c0-0.8,0-1.7,0-1.7c0,0,0.1-0.8,0.1-1.7c0.1-0.8,0.2-1.7,0.2-1.7c-0.6,0.2-0.9,1-1,1.4l0,0
	c0-0.4-0.1-1-0.6-1.1c-0.3-0.1-0.5,0.1-0.7,0.4c-0.1,0.3-0.2,0.6-0.2,0.9c-0.1,0.6-0.1,1.3,0.7,1.4c0.1,0,0.4,0,0.4-0.2
	c0-0.1-0.1-0.1-0.1-0.2c-0.1-0.1-0.1-0.2-0.1-0.3c0-0.3,0.3-0.4,0.5-0.4c0.3,0,0.4,0.3,0.4,0.5c0,0.6-0.8,0.8-1.3,0.8
	c0.5,0,1.3,0.3,1.2,0.9c0,0.3-0.2,0.5-0.5,0.5c-0.3,0-0.5-0.2-0.5-0.4c0-0.2,0.1-0.3,0.2-0.3c0.1-0.1,0.1-0.1,0.1-0.2
	c0-0.2-0.3-0.2-0.4-0.2c-0.7,0-0.8,0.8-0.8,1.4c0,0.5,0,1.4,0.7,1.3c0.5-0.1,0.7-0.6,0.7-1l0,0C15.6,50.8,15.8,51.6,16.4,51.9z
	 M17.4,58.6c0,0-0.2-0.8-0.4-1.6c-0.1-0.8-0.3-1.6-0.3-1.7h0c0,0-0.1-0.8-0.2-1.7c-0.1-0.8-0.1-1.7-0.1-1.7
	c-0.5,0.3-0.7,1.2-0.7,1.6l0,0c-0.1-0.4-0.3-0.9-0.8-0.9c-0.7,0-0.6,1-0.6,1.4c0.1,0.6,0.2,1.3,0.9,1.2c0.1,0,0.4-0.1,0.4-0.3
	c0-0.1-0.1-0.1-0.2-0.2c-0.1-0.1-0.2-0.2-0.2-0.3c0-0.3,0.2-0.5,0.4-0.5c0.3,0,0.5,0.2,0.5,0.4c0.1,0.6-0.6,0.9-1.1,1
	c0.5-0.1,1.3,0,1.4,0.6c0,0.3-0.1,0.5-0.4,0.6c-0.3,0-0.5-0.1-0.5-0.3c0-0.2,0-0.3,0.1-0.4c0.1-0.1,0.1-0.1,0.1-0.2
	c0-0.2-0.3-0.2-0.4-0.1c-0.7,0.1-0.6,0.9-0.5,1.5c0.1,0.5,0.3,1.4,0.9,1.2c0.4-0.2,0.5-0.7,0.5-1.1l0,0
	C16.4,57.7,16.8,58.4,17.4,58.6z M19.7,65c0,0-0.1-0.2-0.2-0.5c-0.1-0.3-0.3-0.7-0.5-1c-0.2-0.4-0.3-0.8-0.4-1.1
	c-0.1-0.3-0.2-0.5-0.2-0.5h0c0,0,0,0-0.1-0.1c0-0.1-0.1-0.2-0.1-0.4c-0.1-0.3-0.2-0.7-0.4-1.1c-0.1-0.4-0.2-0.8-0.3-1.1
	c-0.1-0.3-0.1-0.5-0.1-0.5C17,59.2,17,60,17,60.4l0,0c-0.2-0.4-0.5-0.8-1-0.7c-0.4,0.1-0.4,0.3-0.4,0.6c0,0.3,0.1,0.7,0.2,0.9
	c0.2,0.6,0.5,1.2,1.2,1c0.1,0,0.4-0.2,0.3-0.3c0-0.1-0.1-0.1-0.2-0.1c-0.1,0-0.2-0.1-0.2-0.3c-0.1-0.3,0.1-0.5,0.3-0.6
	c0.3-0.1,0.5,0.1,0.6,0.3c0.1,0.3,0,0.6-0.2,0.8c-0.2,0.2-0.5,0.4-0.7,0.4c0.5-0.2,1.3-0.3,1.5,0.3c0.1,0.2,0,0.5-0.2,0.7
	c-0.2,0.1-0.5,0-0.6-0.2c-0.1-0.1,0-0.3,0-0.4c0-0.1,0.1-0.2,0.1-0.2c-0.1-0.2-0.3-0.1-0.5,0c-0.7,0.3-0.4,1-0.2,1.6
	c0.2,0.4,0.6,1.3,1.2,1c0.4-0.2,0.4-0.8,0.3-1.2l0,0C18.6,64.3,19.1,65,19.7,65z M23.3,70.8c0,0-0.1-0.2-0.3-0.4
	c-0.2-0.3-0.4-0.6-0.7-0.9c-0.3-0.3-0.5-0.7-0.6-1c-0.2-0.3-0.3-0.4-0.3-0.4h0c0,0,0,0-0.1-0.1c0-0.1-0.1-0.2-0.2-0.3
	c-0.2-0.3-0.4-0.6-0.6-1c-0.2-0.4-0.4-0.7-0.5-1c-0.1-0.3-0.2-0.5-0.2-0.5c-0.3,0.5-0.2,1.4-0.1,1.8l0,0c-0.2-0.3-0.7-0.7-1.1-0.5
	c-0.7,0.3-0.2,1.1,0.1,1.5c0.3,0.6,0.7,1.1,1.3,0.8c0.1-0.1,0.3-0.2,0.2-0.4c0,0-0.1-0.1-0.2-0.1c-0.1,0-0.2-0.1-0.3-0.2
	c-0.1-0.2,0-0.5,0.2-0.6c0.2-0.1,0.5,0,0.7,0.2c0.1,0.1,0.1,0.3,0.1,0.4c0,0.1-0.1,0.3-0.1,0.4c-0.1,0.2-0.4,0.4-0.6,0.6
	c0.4-0.3,1.2-0.5,1.5,0c0.1,0.2,0.1,0.5-0.1,0.7c-0.2,0.1-0.5,0.1-0.6-0.1c-0.1-0.1-0.1-0.3-0.1-0.4c0-0.1,0.1-0.2,0-0.2
	c-0.1-0.1-0.4,0-0.5,0c-0.3,0.2-0.4,0.5-0.3,0.8c0.1,0.3,0.2,0.6,0.4,0.8c0.3,0.4,0.8,1.2,1.3,0.7c0.3-0.3,0.2-0.9,0-1.2l0,0
	c0.2,0.2,0.4,0.4,0.7,0.5C22.7,70.7,23,70.8,23.3,70.8z M28,75.7c0,0-0.2-0.1-0.4-0.3c-0.2-0.2-0.5-0.5-0.8-0.8
	c-0.3-0.3-0.6-0.6-0.8-0.8c-0.2-0.2-0.4-0.4-0.4-0.4c0,0-0.1-0.2-0.4-0.4c-0.1-0.1-0.1-0.1-0.2-0.2c-0.1-0.1-0.1-0.1-0.2-0.2
	c-0.1-0.1-0.3-0.3-0.4-0.5c-0.1-0.2-0.3-0.3-0.4-0.5c-0.1-0.1-0.2-0.3-0.3-0.4c-0.2-0.2-0.3-0.4-0.3-0.4c-0.2,0.6,0.1,1.4,0.3,1.7
	l0,0c-0.1-0.1-0.4-0.3-0.6-0.3c-0.2-0.1-0.4-0.1-0.6,0.1c-0.3,0.2-0.3,0.5-0.2,0.8c0.1,0.3,0.4,0.5,0.5,0.7c0.2,0.2,0.4,0.5,0.7,0.6
	c0.2,0.1,0.5,0.1,0.8-0.1c0.1-0.1,0.3-0.3,0.2-0.4c0,0-0.1,0-0.2,0c-0.1,0-0.2,0-0.3-0.1c-0.2-0.2-0.1-0.5,0.1-0.6
	c0.2-0.2,0.5-0.1,0.7,0.1c0.4,0.5,0,1.1-0.3,1.5c0.4-0.4,1.1-0.7,1.5-0.3c0.2,0.2,0.2,0.5,0,0.7c-0.2,0.2-0.4,0.2-0.6,0
	c-0.1-0.1-0.1-0.2-0.1-0.3c0-0.1,0-0.2,0-0.2c-0.1-0.1-0.4,0.1-0.4,0.1c-0.3,0.3-0.3,0.5-0.2,0.8c0.1,0.3,0.4,0.5,0.6,0.7
	c0.2,0.2,0.4,0.4,0.7,0.6c0.3,0.1,0.5,0.2,0.7-0.1c0.1-0.2,0.1-0.4,0.1-0.6c-0.1-0.2-0.2-0.4-0.3-0.6l0,0c0.2,0.1,0.5,0.3,0.8,0.4
	C27.4,75.8,27.7,75.8,28,75.7z M33.6,79.6c0,0-0.2-0.1-0.5-0.3c-0.3-0.2-0.6-0.4-1-0.6c-0.4-0.2-0.7-0.5-1-0.6
	c-0.3-0.2-0.4-0.3-0.4-0.3c0,0-0.2-0.1-0.4-0.3c-0.1-0.1-0.3-0.2-0.4-0.3c-0.2-0.1-0.3-0.2-0.5-0.4c-0.3-0.3-0.7-0.5-0.9-0.7
	c-0.2-0.2-0.4-0.3-0.4-0.3c-0.1,0.3,0,0.6,0.2,0.9c0.1,0.3,0.3,0.5,0.5,0.7l0,0c-0.3-0.2-0.9-0.4-1.2,0c-0.5,0.5,0.3,1.1,0.7,1.4
	c0.2,0.2,0.5,0.4,0.8,0.4c0.3,0.1,0.5,0,0.8-0.3c0.1-0.1,0.2-0.3,0.1-0.4c0,0-0.1,0-0.2,0c-0.1,0-0.2,0-0.4-0.1
	C29,78.3,29,78,29.2,77.8c0.2-0.2,0.5-0.2,0.7-0.1c0.5,0.4,0.2,1.1-0.1,1.5c0.1-0.2,0.4-0.4,0.6-0.6c0.2-0.1,0.5-0.2,0.8,0
	c0.2,0.1,0.3,0.4,0.2,0.7c-0.1,0.2-0.4,0.3-0.6,0.2c-0.1-0.1-0.2-0.2-0.2-0.3c0-0.1,0-0.2-0.1-0.2c-0.1-0.1-0.3,0.1-0.4,0.2
	c-0.2,0.3-0.2,0.6,0,0.8c0.2,0.2,0.5,0.4,0.7,0.6c0.2,0.1,0.5,0.3,0.8,0.4c0.3,0.1,0.6,0,0.7-0.3c0.1-0.2,0.1-0.4,0-0.6
	c-0.1-0.1-0.1-0.2-0.2-0.3c-0.1-0.1-0.2-0.2-0.2-0.2l0,0c0.2,0.1,0.5,0.2,0.8,0.2C33,79.8,33.3,79.8,33.6,79.6z M39.8,82.3
	c0,0-0.2-0.1-0.5-0.2c-0.3-0.1-0.7-0.2-1.1-0.4c-0.4-0.2-0.8-0.3-1.1-0.4c-0.3-0.1-0.5-0.2-0.5-0.2c0,0-0.2-0.1-0.5-0.2
	c-0.1-0.1-0.3-0.1-0.5-0.2c-0.2-0.1-0.4-0.2-0.6-0.3c-0.4-0.2-0.7-0.4-1-0.5c-0.1-0.1-0.3-0.1-0.3-0.2c-0.1,0-0.1-0.1-0.1-0.1
	c0,0.2,0,0.3,0.1,0.5c0.1,0.1,0.2,0.3,0.3,0.4c0.2,0.3,0.4,0.5,0.6,0.6l0,0c-0.4-0.1-0.9-0.2-1.2,0.2c-0.4,0.6,0.5,1,0.9,1.2
	c0.6,0.3,1.2,0.5,1.5-0.2c0.1-0.1,0.1-0.4,0-0.5c-0.1,0-0.1,0-0.2,0.1c-0.1,0-0.2,0.1-0.4,0c-0.3-0.1-0.3-0.4-0.2-0.6
	c0.1-0.2,0.4-0.3,0.7-0.2c0.6,0.3,0.4,1,0.2,1.5c0.1-0.2,0.3-0.5,0.5-0.7c0.2-0.2,0.5-0.3,0.8-0.2c0.2,0.1,0.4,0.4,0.3,0.6
	c-0.1,0.2-0.3,0.4-0.6,0.3c-0.1-0.1-0.2-0.2-0.3-0.3c0-0.1-0.1-0.2-0.1-0.2c-0.2-0.1-0.3,0.2-0.4,0.3c-0.3,0.7,0.5,1,1,1.2
	c0.1,0,0.3,0.1,0.4,0.1c0.2,0,0.3,0.1,0.5,0.1c0.3,0,0.6-0.1,0.6-0.4c0.1-0.5-0.3-0.8-0.7-1l0,0C38.5,82.7,39.4,82.7,39.8,82.3z
	 M44.3,85.7c0.1,0,0.3,0,0.4,0.1c0.2-0.1,0.5-0.1,0.8-0.2c0.1-0.1,0.2-0.2,0.2-0.4c0-0.5-0.5-0.7-0.9-0.8l0,0c0.4,0,1.3-0.2,1.6-0.7
	c0,0-0.8-0.1-1.7-0.2c-0.8-0.1-1.6-0.3-1.7-0.3l0,0h0c0,0-0.8-0.2-1.6-0.4c-0.8-0.2-1.6-0.5-1.6-0.5c0.1,0.6,0.9,1,1.2,1.2l0,0
	c-0.4-0.1-1,0-1.1,0.4c-0.3,0.7,0.7,0.9,1.2,1c0.6,0.2,1.3,0.3,1.5-0.5c0-0.1,0.1-0.4-0.1-0.4c-0.1,0-0.1,0-0.2,0.1
	c-0.1,0.1-0.2,0.1-0.4,0.1c-0.3-0.1-0.4-0.3-0.3-0.6c0.1-0.3,0.3-0.4,0.6-0.3c0.6,0.1,0.6,0.9,0.5,1.4c0.1-0.5,0.5-1.2,1.1-1.1
	c0.3,0,0.5,0.3,0.4,0.6c0,0.3-0.2,0.4-0.5,0.4c-0.2,0-0.2-0.1-0.3-0.2c-0.1-0.1-0.1-0.2-0.2-0.2c-0.2,0-0.3,0.2-0.3,0.4
	C42.9,85.4,43.7,85.6,44.3,85.7z M46.7,85.8c0,0,0-0.1,0-0.1c0-0.2,0.1-0.4,0.2-0.7l-0.5-0.4c0,0-0.1,0.1-0.3,0.1
	c-0.1,0.1-0.3,0.1-0.3,0.1c0.1,0.3,0.1,0.5,0.1,0.7c0,0,0,0,0,0c0.2,0,0.4,0,0.6,0.1C46.6,85.7,46.7,85.7,46.7,85.8z M48.9,86.1
	c-0.3-0.4-0.3-0.7-0.2-1c-0.1-0.1-0.1-0.2-0.1-0.4c0-0.3,0.3-0.5,0.5-0.5c0.1,0,0.3,0,0.4,0.1c0.2-0.2,0.3-0.4,0.4-0.5
	c-0.2,0-0.9,0-1.6,0c-0.8-0.1-1.7-0.1-1.7-0.1c0.3,0.6,1.1,0.8,1.5,1l0,0c-0.4,0-0.9,0.2-1,0.7c-0.1,0.4,0.1,0.5,0.4,0.6
	c0.3,0.1,0.7,0.1,0.9,0.1C48.6,86.1,48.8,86.1,48.9,86.1z M52.4,86c0.3-0.1,0.5-0.3,0.4-0.6c-0.1-0.5-0.6-0.6-1-0.7l0,0
	c0.4-0.1,1.2-0.4,1.5-1c0,0-0.8,0.1-1.7,0.1c-0.7,0-1.3,0-1.6,0c0.1,0.1,0.2,0.3,0.4,0.5c0.1-0.1,0.2-0.1,0.3-0.1
	c0.3,0,0.5,0.2,0.5,0.5c0,0.1,0,0.3-0.1,0.4c0.1,0.2,0.1,0.6-0.2,1c0.2,0,0.4,0,0.5,0C51.8,86.1,52.2,86.1,52.4,86z M53.4,85.7
	c0.2,0,0.4-0.1,0.6-0.1c0,0,0,0,0,0c0-0.2,0-0.4,0.1-0.7c0,0-0.1-0.1-0.3-0.1c-0.1-0.1-0.3-0.1-0.3-0.1L53,84.9
	c0.1,0.3,0.2,0.5,0.2,0.7c0,0,0,0.1,0,0.1C53.2,85.7,53.3,85.7,53.4,85.7z M91.8,60.4c0.3-1.3,0.4-2.6,0.6-3.8
	c0.5,0.1,1.1,0,1.9-0.5c1.2-0.9,2.3-3.2,2.3-3.2s-2.5,0.4-3.7,1.3c-0.1,0.1-0.2,0.2-0.3,0.3c0-1.1,0-2.2-0.1-3.3
	c0.4,0,1.1-0.1,1.7-0.6c1.1-1,1.9-3.2,1.9-3.2s-2.3,0.6-3.4,1.5c-0.2,0.2-0.3,0.3-0.4,0.5c-0.1-0.6-0.2-1.2-0.3-1.8
	c0.3-0.3,0.6-0.9,0.5-1.8c-0.2-1.4-1.5-3.2-1.5-3.2s-0.8,2.1-0.6,3.5c0.1,1,0.8,1.5,1.1,1.7c0.1,0.7,0.2,1.4,0.2,2.1
	c-0.1-0.3-0.4-0.6-0.7-0.9c-1.1-0.9-3.4-1.3-3.4-1.3s0.9,2.1,2.1,3c1,0.8,1.9,0.5,2.1,0.4c0,1.3,0,2.6-0.1,3.8
	c-0.1-0.3-0.3-0.5-0.6-0.8c-1.1-1.1-3.5-1.7-3.5-1.7s0.8,2.3,1.9,3.4c0.8,0.7,1.6,0.7,2,0.7c-0.2,1.4-0.4,2.7-0.8,4.1
	c-0.1-0.2-0.2-0.5-0.5-0.8c-1-1.2-3.3-2.1-3.3-2.1s0.5,2.4,1.5,3.6c0.6,0.7,1.3,0.9,1.8,0.9c-0.4,1.3-0.9,2.6-1.4,3.9
	c-0.1-0.3-0.2-0.6-0.4-0.9c-0.8-1.3-2.9-2.5-2.9-2.5s0.2,2.4,1,3.7c0.5,0.8,1.2,1.1,1.6,1.1c-0.8,1.7-1.8,3.4-2.9,4.9
	c0-0.2-0.1-0.4-0.1-0.6c-0.5-1.5-2.4-3.2-2.4-3.2s-0.4,2.5,0.1,4c0.3,0.8,0.8,1.2,1.2,1.4c-1.1,1.4-2.2,2.6-3.5,3.8
	c0-0.1,0-0.2,0-0.4c-0.1-1.6-1.5-3.7-1.5-3.7s-1,2.3-0.9,3.9c0.1,0.8,0.4,1.3,0.7,1.6c-1.2,0.9-2.4,1.8-3.7,2.6c0,0-0.8,0.5-0.6,1.2
	c0.1,0.4,0.3,0.5,0.5,0.5c0.4,0.2,0.8-0.1,0.8-0.1c1.4-1,2.8-2,4-3.1c0.3,0.4,0.8,0.8,1.7,0.8c1.6,0.1,3.9-0.8,3.9-0.8
	s-2.1-1.4-3.7-1.5c-0.1,0-0.2,0-0.2,0c1.3-1.3,2.5-2.6,3.6-4c0.4,0.3,1,0.6,1.9,0.4c1.6-0.3,3.6-1.8,3.6-1.8s-2.4-0.8-4-0.6
	c-0.1,0-0.1,0-0.2,0c1.1-1.6,2-3.2,2.7-4.8c0.4,0.2,1.1,0.4,2,0c1.4-0.6,3-2.5,3-2.5l-4.7,1.9l4.7-1.9c0,0-2.4-0.2-3.8,0.3
	c-0.1,0-0.2,0.1-0.3,0.1c0.5-1.2,0.9-2.4,1.2-3.6c0.4,0.1,1.1,0.2,1.9-0.3c1.3-0.8,2.6-2.9,2.6-2.9s-2.5,0.1-3.8,0.9
	C92,60.3,91.9,60.3,91.8,60.4z"/>
</svg>
